%FSLAX34Y34*%
%MOMM*%
%LNCOPPER_INNER1*%
G71*
G01*
%ADD10C, 2.320*%
%ADD11C, 2.000*%
%ADD12C, 2.400*%
%ADD13C, 2.200*%
%ADD14C, 2.100*%
%ADD15C, 1.700*%
%ADD16R, 2.700X2.700*%
%ADD17C, 1.022*%
%ADD18R, 1.900X2.700*%
%ADD19R, 2.200X2.700*%
%ADD20C, 1.200*%
%ADD21R, 3.200X3.200*%
%ADD22R, 2.100X3.600*%
%ADD23R, 2.500X2.500*%
%ADD24R, 2.100X2.700*%
%ADD25C, 1.520*%
%ADD26C, 1.200*%
%ADD27C, 1.600*%
%ADD28C, 1.400*%
%ADD29C, 1.300*%
%ADD30C, 0.900*%
%ADD31R, 1.900X1.900*%
%ADD32C, 0.222*%
%ADD33R, 1.100X1.900*%
%ADD34R, 1.400X1.900*%
%ADD35C, 0.400*%
%ADD36R, 2.400X2.400*%
%ADD37R, 1.300X2.800*%
%ADD38R, 1.700X1.700*%
%ADD39R, 1.300X1.900*%
%LPD*%
G36*
X-1120775Y111125D02*
X949225Y111125D01*
X949225Y-868875D01*
X-1120775Y-868875D01*
X-1120775Y111125D01*
G37*
%LPC*%
G36*
X-1057612Y72725D02*
X-1034412Y72725D01*
X-1034412Y49525D01*
X-1057612Y49525D01*
X-1057612Y72725D01*
G37*
X-1020612Y61125D02*
G54D10*
D03*
X-995212Y61125D02*
G54D10*
D03*
X-969812Y61125D02*
G54D10*
D03*
G36*
X-897425Y73638D02*
X-874225Y73638D01*
X-874225Y50438D01*
X-897425Y50438D01*
X-897425Y73638D01*
G37*
X-860425Y62038D02*
G54D10*
D03*
X-835025Y62038D02*
G54D10*
D03*
G36*
X56675Y18062D02*
X76675Y18062D01*
X76675Y-1938D01*
X56675Y-1938D01*
X56675Y18062D01*
G37*
X92075Y8062D02*
G54D11*
D03*
X117475Y8062D02*
G54D11*
D03*
X142875Y8062D02*
G54D11*
D03*
X168275Y8062D02*
G54D11*
D03*
X193675Y8062D02*
G54D11*
D03*
X219075Y8062D02*
G54D11*
D03*
X244475Y8062D02*
G54D11*
D03*
G36*
X56675Y-21625D02*
X76675Y-21625D01*
X76675Y-41625D01*
X56675Y-41625D01*
X56675Y-21625D01*
G37*
X92075Y-31625D02*
G54D11*
D03*
X117475Y-31625D02*
G54D11*
D03*
X142875Y-31625D02*
G54D11*
D03*
X168275Y-31625D02*
G54D11*
D03*
X193675Y-31625D02*
G54D11*
D03*
X219075Y-31625D02*
G54D11*
D03*
X244475Y-31625D02*
G54D11*
D03*
G36*
X56675Y-61312D02*
X76675Y-61312D01*
X76675Y-81312D01*
X56675Y-81312D01*
X56675Y-61312D01*
G37*
X92075Y-71312D02*
G54D11*
D03*
X117475Y-71312D02*
G54D11*
D03*
X142875Y-71312D02*
G54D11*
D03*
X168275Y-71312D02*
G54D11*
D03*
X193675Y-71312D02*
G54D11*
D03*
X219075Y-71312D02*
G54D11*
D03*
X244475Y-71312D02*
G54D11*
D03*
X269875Y-71312D02*
G54D11*
D03*
X295275Y-71312D02*
G54D11*
D03*
G36*
X56675Y-102588D02*
X76675Y-102588D01*
X76675Y-122588D01*
X56675Y-122588D01*
X56675Y-102588D01*
G37*
X92075Y-112588D02*
G54D11*
D03*
X117475Y-112588D02*
G54D11*
D03*
X142875Y-112588D02*
G54D11*
D03*
X168275Y-112588D02*
G54D11*
D03*
X193675Y-112588D02*
G54D11*
D03*
X219075Y-112588D02*
G54D11*
D03*
X244475Y-112588D02*
G54D11*
D03*
G36*
X56675Y-143862D02*
X76675Y-143862D01*
X76675Y-163862D01*
X56675Y-163862D01*
X56675Y-143862D01*
G37*
X92075Y-153862D02*
G54D11*
D03*
X117475Y-153862D02*
G54D11*
D03*
X142875Y-153862D02*
G54D11*
D03*
X168275Y-153862D02*
G54D11*
D03*
X193675Y-153862D02*
G54D11*
D03*
X219075Y-153862D02*
G54D11*
D03*
X244475Y-153862D02*
G54D11*
D03*
G36*
X-91600Y-384525D02*
X-111600Y-384525D01*
X-111600Y-364525D01*
X-91600Y-364525D01*
X-91600Y-384525D01*
G37*
X-127000Y-374525D02*
G54D11*
D03*
X-152400Y-374525D02*
G54D11*
D03*
X-177800Y-374525D02*
G54D11*
D03*
X-203200Y-374525D02*
G54D11*
D03*
X-228600Y-374525D02*
G54D11*
D03*
X-254000Y-374525D02*
G54D11*
D03*
X-279400Y-374525D02*
G54D11*
D03*
X-304800Y-374525D02*
G54D11*
D03*
X-330200Y-374525D02*
G54D11*
D03*
G36*
X-91600Y-487712D02*
X-111600Y-487712D01*
X-111600Y-467712D01*
X-91600Y-467712D01*
X-91600Y-487712D01*
G37*
X-127000Y-477712D02*
G54D11*
D03*
X-152400Y-477712D02*
G54D11*
D03*
X-177800Y-477712D02*
G54D11*
D03*
X-203200Y-477712D02*
G54D11*
D03*
X-228600Y-477712D02*
G54D11*
D03*
X-254000Y-477712D02*
G54D11*
D03*
X-279400Y-477712D02*
G54D11*
D03*
X-304800Y-477712D02*
G54D11*
D03*
X-330200Y-477712D02*
G54D11*
D03*
G36*
X-91600Y-586138D02*
X-111600Y-586138D01*
X-111600Y-566138D01*
X-91600Y-566138D01*
X-91600Y-586138D01*
G37*
X-127000Y-576138D02*
G54D11*
D03*
X-152400Y-576138D02*
G54D11*
D03*
X-177800Y-576138D02*
G54D11*
D03*
X-203200Y-576138D02*
G54D11*
D03*
X-228600Y-576138D02*
G54D11*
D03*
X-254000Y-576138D02*
G54D11*
D03*
X-279400Y-576138D02*
G54D11*
D03*
X-304800Y-576138D02*
G54D11*
D03*
X-330200Y-576138D02*
G54D11*
D03*
G36*
X-93188Y-435325D02*
X-113188Y-435325D01*
X-113188Y-415325D01*
X-93188Y-415325D01*
X-93188Y-435325D01*
G37*
X-128588Y-425325D02*
G54D11*
D03*
X-153988Y-425325D02*
G54D11*
D03*
X-179388Y-425325D02*
G54D11*
D03*
X-204788Y-425325D02*
G54D11*
D03*
X-230188Y-425325D02*
G54D11*
D03*
X-255588Y-425325D02*
G54D11*
D03*
X-280988Y-425325D02*
G54D11*
D03*
G36*
X-91600Y-535338D02*
X-111600Y-535338D01*
X-111600Y-515338D01*
X-91600Y-515338D01*
X-91600Y-535338D01*
G37*
X-127000Y-525338D02*
G54D11*
D03*
X-152400Y-525338D02*
G54D11*
D03*
X-177800Y-525338D02*
G54D11*
D03*
X-203200Y-525338D02*
G54D11*
D03*
X-228600Y-525338D02*
G54D11*
D03*
X-254000Y-525338D02*
G54D11*
D03*
X-279400Y-525338D02*
G54D11*
D03*
G36*
X-91600Y-636938D02*
X-111600Y-636938D01*
X-111600Y-616938D01*
X-91600Y-616938D01*
X-91600Y-636938D01*
G37*
X-127000Y-626938D02*
G54D11*
D03*
X-152400Y-626938D02*
G54D11*
D03*
X-177800Y-626938D02*
G54D11*
D03*
X-203200Y-626938D02*
G54D11*
D03*
X-228600Y-626938D02*
G54D11*
D03*
X-254000Y-626938D02*
G54D11*
D03*
X-279400Y-626938D02*
G54D11*
D03*
X-406400Y-463425D02*
G54D12*
D03*
X-558800Y-463425D02*
G54D12*
D03*
X-558800Y-387225D02*
G54D12*
D03*
X-406400Y-387225D02*
G54D12*
D03*
G36*
X-566625Y-579425D02*
X-544625Y-579425D01*
X-544625Y-601425D01*
X-566625Y-601425D01*
X-566625Y-579425D01*
G37*
X-530225Y-590425D02*
G54D13*
D03*
X-504825Y-590425D02*
G54D13*
D03*
X-479425Y-590425D02*
G54D13*
D03*
X-454025Y-590425D02*
G54D13*
D03*
X-428625Y-590425D02*
G54D13*
D03*
X-403225Y-590425D02*
G54D13*
D03*
X-403225Y-514225D02*
G54D13*
D03*
X-428625Y-514225D02*
G54D13*
D03*
X-454025Y-514225D02*
G54D13*
D03*
X-479425Y-514225D02*
G54D13*
D03*
X-504825Y-514225D02*
G54D13*
D03*
X-530225Y-514225D02*
G54D13*
D03*
X-555625Y-514225D02*
G54D13*
D03*
G36*
X863919Y-637063D02*
X863919Y-617063D01*
X883919Y-617063D01*
X883919Y-637063D01*
X863919Y-637063D01*
G37*
X873919Y-601663D02*
G54D11*
D03*
X873919Y-576263D02*
G54D11*
D03*
X873919Y-550863D02*
G54D11*
D03*
X873919Y-525463D02*
G54D11*
D03*
X873919Y-500063D02*
G54D11*
D03*
X873919Y-474663D02*
G54D11*
D03*
X873919Y-449263D02*
G54D11*
D03*
X873919Y-423863D02*
G54D11*
D03*
X873919Y-398463D02*
G54D11*
D03*
G36*
X899241Y-637460D02*
X899241Y-617460D01*
X919241Y-617460D01*
X919241Y-637460D01*
X899241Y-637460D01*
G37*
X909241Y-602060D02*
G54D11*
D03*
X909241Y-576660D02*
G54D11*
D03*
X909241Y-551260D02*
G54D11*
D03*
X909241Y-525860D02*
G54D11*
D03*
X909241Y-500460D02*
G54D11*
D03*
X909241Y-475060D02*
G54D11*
D03*
X909241Y-449660D02*
G54D11*
D03*
X909241Y-424260D02*
G54D11*
D03*
X909241Y-398860D02*
G54D11*
D03*
G36*
X898447Y-306069D02*
X898447Y-286069D01*
X918447Y-286069D01*
X918447Y-306069D01*
X898447Y-306069D01*
G37*
X908447Y-270669D02*
G54D11*
D03*
X908447Y-245269D02*
G54D11*
D03*
X908447Y-219869D02*
G54D11*
D03*
X908447Y-194469D02*
G54D11*
D03*
X908447Y-169069D02*
G54D11*
D03*
X908447Y-143669D02*
G54D11*
D03*
X908447Y-118269D02*
G54D11*
D03*
X908447Y-92869D02*
G54D11*
D03*
X908447Y-67469D02*
G54D11*
D03*
G36*
X869872Y-305276D02*
X869872Y-285276D01*
X889872Y-285276D01*
X889872Y-305276D01*
X869872Y-305276D01*
G37*
X879872Y-269876D02*
G54D11*
D03*
X879872Y-244476D02*
G54D11*
D03*
X879872Y-219076D02*
G54D11*
D03*
X879872Y-193676D02*
G54D11*
D03*
X879872Y-168276D02*
G54D11*
D03*
X879872Y-142876D02*
G54D11*
D03*
X879872Y-117476D02*
G54D11*
D03*
G36*
X-659300Y-383291D02*
X-636100Y-383291D01*
X-636100Y-406491D01*
X-659300Y-406491D01*
X-659300Y-383291D01*
G37*
X-622300Y-394891D02*
G54D10*
D03*
X400844Y59928D02*
G54D13*
D03*
X426244Y59928D02*
G54D13*
D03*
X451644Y59928D02*
G54D13*
D03*
X477044Y59928D02*
G54D13*
D03*
X502444Y59928D02*
G54D13*
D03*
X527844Y59928D02*
G54D13*
D03*
X553244Y59928D02*
G54D13*
D03*
X578644Y59928D02*
G54D13*
D03*
X604044Y59928D02*
G54D13*
D03*
X629444Y59928D02*
G54D13*
D03*
X654844Y59928D02*
G54D13*
D03*
X680244Y59928D02*
G54D13*
D03*
X705644Y59928D02*
G54D13*
D03*
X731044Y59928D02*
G54D13*
D03*
X756444Y59928D02*
G54D13*
D03*
X781845Y59928D02*
G54D13*
D03*
X807245Y59928D02*
G54D13*
D03*
X400844Y34528D02*
G54D13*
D03*
X426244Y34528D02*
G54D13*
D03*
X451644Y34528D02*
G54D13*
D03*
X477044Y34528D02*
G54D13*
D03*
X502444Y34528D02*
G54D13*
D03*
X527844Y34528D02*
G54D13*
D03*
X553244Y34528D02*
G54D13*
D03*
X578644Y34528D02*
G54D13*
D03*
X604044Y34528D02*
G54D13*
D03*
X629444Y34528D02*
G54D13*
D03*
X654844Y34528D02*
G54D13*
D03*
X680244Y34528D02*
G54D13*
D03*
X705644Y34528D02*
G54D13*
D03*
X731044Y34528D02*
G54D13*
D03*
X756444Y34528D02*
G54D13*
D03*
X781845Y34528D02*
G54D13*
D03*
X807245Y34528D02*
G54D13*
D03*
X832645Y34528D02*
G54D13*
D03*
X400844Y9128D02*
G54D13*
D03*
X426244Y9128D02*
G54D13*
D03*
X451644Y9128D02*
G54D13*
D03*
X477044Y9128D02*
G54D13*
D03*
X502444Y9128D02*
G54D13*
D03*
X527844Y9128D02*
G54D13*
D03*
X553244Y9128D02*
G54D13*
D03*
X578644Y9128D02*
G54D13*
D03*
X604044Y9128D02*
G54D13*
D03*
X629444Y9128D02*
G54D13*
D03*
X654844Y9128D02*
G54D13*
D03*
X680244Y9128D02*
G54D13*
D03*
X705644Y9128D02*
G54D13*
D03*
X731044Y9128D02*
G54D13*
D03*
X756444Y9128D02*
G54D13*
D03*
X781845Y9128D02*
G54D13*
D03*
X807245Y9128D02*
G54D13*
D03*
X832645Y9128D02*
G54D13*
D03*
X400844Y-16272D02*
G54D13*
D03*
X426244Y-16272D02*
G54D13*
D03*
X451644Y-16272D02*
G54D13*
D03*
X781845Y-16272D02*
G54D13*
D03*
X807245Y-16272D02*
G54D13*
D03*
X832645Y-16272D02*
G54D13*
D03*
X400844Y-41672D02*
G54D13*
D03*
X426244Y-41672D02*
G54D13*
D03*
X451644Y-41672D02*
G54D13*
D03*
X781845Y-41672D02*
G54D13*
D03*
X807245Y-41672D02*
G54D13*
D03*
X832645Y-41672D02*
G54D13*
D03*
X400844Y-67072D02*
G54D13*
D03*
X426244Y-67072D02*
G54D13*
D03*
X451644Y-67072D02*
G54D13*
D03*
X781845Y-67072D02*
G54D13*
D03*
X807245Y-67072D02*
G54D13*
D03*
X832645Y-67072D02*
G54D13*
D03*
X400844Y-92472D02*
G54D13*
D03*
X426244Y-92472D02*
G54D13*
D03*
X451644Y-92472D02*
G54D13*
D03*
X781845Y-92472D02*
G54D13*
D03*
X807245Y-92472D02*
G54D13*
D03*
X832645Y-92472D02*
G54D13*
D03*
X400844Y-117872D02*
G54D13*
D03*
X426244Y-117872D02*
G54D13*
D03*
X451644Y-117872D02*
G54D13*
D03*
X781845Y-117872D02*
G54D13*
D03*
X807245Y-117872D02*
G54D13*
D03*
X832645Y-117872D02*
G54D13*
D03*
X400844Y-143272D02*
G54D13*
D03*
X426244Y-143272D02*
G54D13*
D03*
X451644Y-143272D02*
G54D13*
D03*
X781845Y-143272D02*
G54D13*
D03*
X807245Y-143272D02*
G54D13*
D03*
X832645Y-143272D02*
G54D13*
D03*
X400844Y-168672D02*
G54D13*
D03*
X426244Y-168672D02*
G54D13*
D03*
X451644Y-168672D02*
G54D13*
D03*
X781845Y-168672D02*
G54D13*
D03*
X807245Y-168672D02*
G54D13*
D03*
X832645Y-168672D02*
G54D13*
D03*
X400844Y-194072D02*
G54D13*
D03*
X426244Y-194072D02*
G54D13*
D03*
X451644Y-194072D02*
G54D13*
D03*
X781845Y-194072D02*
G54D13*
D03*
X807245Y-194072D02*
G54D13*
D03*
X832645Y-194072D02*
G54D13*
D03*
X400844Y-219472D02*
G54D13*
D03*
X426244Y-219472D02*
G54D13*
D03*
X451644Y-219472D02*
G54D13*
D03*
X781845Y-219472D02*
G54D13*
D03*
X807245Y-219472D02*
G54D13*
D03*
X832645Y-219472D02*
G54D13*
D03*
X400844Y-244872D02*
G54D13*
D03*
X426244Y-244872D02*
G54D13*
D03*
X451644Y-244872D02*
G54D13*
D03*
X781845Y-244872D02*
G54D13*
D03*
X807245Y-244872D02*
G54D13*
D03*
X832645Y-244872D02*
G54D13*
D03*
X400844Y-270272D02*
G54D13*
D03*
X426244Y-270272D02*
G54D13*
D03*
X451644Y-270272D02*
G54D13*
D03*
X781845Y-270272D02*
G54D13*
D03*
X807245Y-270272D02*
G54D13*
D03*
X832645Y-270272D02*
G54D13*
D03*
X400844Y-295672D02*
G54D13*
D03*
X426244Y-295672D02*
G54D13*
D03*
X451644Y-295672D02*
G54D13*
D03*
X781845Y-295672D02*
G54D13*
D03*
X807245Y-295672D02*
G54D13*
D03*
X832645Y-295672D02*
G54D13*
D03*
X400844Y-321072D02*
G54D13*
D03*
X426244Y-321072D02*
G54D13*
D03*
X451644Y-321072D02*
G54D13*
D03*
X477044Y-321072D02*
G54D13*
D03*
X502444Y-321072D02*
G54D13*
D03*
X527844Y-321072D02*
G54D13*
D03*
X553244Y-321072D02*
G54D13*
D03*
X578644Y-321072D02*
G54D13*
D03*
X604044Y-321072D02*
G54D13*
D03*
X629444Y-321072D02*
G54D13*
D03*
X654844Y-321072D02*
G54D13*
D03*
X680244Y-321072D02*
G54D13*
D03*
X705644Y-321072D02*
G54D13*
D03*
X731044Y-321072D02*
G54D13*
D03*
X756444Y-321072D02*
G54D13*
D03*
X781845Y-321072D02*
G54D13*
D03*
X807245Y-321072D02*
G54D13*
D03*
X832645Y-321072D02*
G54D13*
D03*
X400844Y-346472D02*
G54D13*
D03*
X426244Y-346472D02*
G54D13*
D03*
X451644Y-346472D02*
G54D13*
D03*
X477044Y-346472D02*
G54D13*
D03*
X502444Y-346472D02*
G54D13*
D03*
X527844Y-346472D02*
G54D13*
D03*
X553244Y-346472D02*
G54D13*
D03*
X578644Y-346472D02*
G54D13*
D03*
X604044Y-346472D02*
G54D13*
D03*
X629444Y-346472D02*
G54D13*
D03*
X654844Y-346472D02*
G54D13*
D03*
X680244Y-346472D02*
G54D13*
D03*
X705644Y-346472D02*
G54D13*
D03*
X731044Y-346472D02*
G54D13*
D03*
X756444Y-346472D02*
G54D13*
D03*
X781845Y-346472D02*
G54D13*
D03*
X807245Y-346472D02*
G54D13*
D03*
X832645Y-346472D02*
G54D13*
D03*
X400844Y-371872D02*
G54D13*
D03*
X426244Y-371872D02*
G54D13*
D03*
X451644Y-371872D02*
G54D13*
D03*
X477044Y-371872D02*
G54D13*
D03*
X502444Y-371872D02*
G54D13*
D03*
X527844Y-371872D02*
G54D13*
D03*
X553244Y-371872D02*
G54D13*
D03*
X578644Y-371872D02*
G54D13*
D03*
X604044Y-371872D02*
G54D13*
D03*
X629444Y-371872D02*
G54D13*
D03*
X654844Y-371872D02*
G54D13*
D03*
X680244Y-371872D02*
G54D13*
D03*
X705644Y-371872D02*
G54D13*
D03*
X731044Y-371872D02*
G54D13*
D03*
X756444Y-371872D02*
G54D13*
D03*
X781845Y-371872D02*
G54D13*
D03*
X807245Y-371872D02*
G54D13*
D03*
G36*
X821645Y-360872D02*
X843645Y-360872D01*
X843645Y-382872D01*
X821645Y-382872D01*
X821645Y-360872D01*
G37*
X-558800Y-752079D02*
G54D14*
D03*
X-533400Y-752079D02*
G54D14*
D03*
X-508000Y-752079D02*
G54D14*
D03*
X-482600Y-752079D02*
G54D14*
D03*
X-457200Y-752079D02*
G54D14*
D03*
X-431800Y-752079D02*
G54D14*
D03*
X-406400Y-752079D02*
G54D14*
D03*
X-381000Y-752079D02*
G54D14*
D03*
X-355600Y-752079D02*
G54D14*
D03*
X-330200Y-752079D02*
G54D14*
D03*
X-304800Y-752079D02*
G54D14*
D03*
X-279400Y-752079D02*
G54D14*
D03*
X-254000Y-752079D02*
G54D14*
D03*
X-228600Y-752079D02*
G54D14*
D03*
X-203200Y-752079D02*
G54D14*
D03*
X-177800Y-752079D02*
G54D14*
D03*
X-152400Y-752079D02*
G54D14*
D03*
X-127000Y-752079D02*
G54D14*
D03*
X-101600Y-752079D02*
G54D14*
D03*
X-76200Y-752079D02*
G54D14*
D03*
X-50800Y-752079D02*
G54D14*
D03*
X-25400Y-752079D02*
G54D14*
D03*
X0Y-752079D02*
G54D14*
D03*
X25400Y-752079D02*
G54D14*
D03*
X50800Y-752079D02*
G54D14*
D03*
X-558800Y-790579D02*
G54D14*
D03*
X-533400Y-790579D02*
G54D14*
D03*
X-508000Y-790579D02*
G54D14*
D03*
X-482600Y-790579D02*
G54D14*
D03*
X-457200Y-790579D02*
G54D14*
D03*
X-431800Y-790579D02*
G54D14*
D03*
X-406400Y-790579D02*
G54D14*
D03*
X-381000Y-790579D02*
G54D14*
D03*
X-355600Y-790579D02*
G54D14*
D03*
X-330200Y-790579D02*
G54D14*
D03*
X-304800Y-790579D02*
G54D14*
D03*
X-279400Y-790579D02*
G54D14*
D03*
X-254000Y-790579D02*
G54D14*
D03*
X-228600Y-790579D02*
G54D14*
D03*
X-203200Y-790579D02*
G54D14*
D03*
X-177800Y-790579D02*
G54D14*
D03*
X-152400Y-790579D02*
G54D14*
D03*
X-127000Y-790579D02*
G54D14*
D03*
X-101600Y-790579D02*
G54D14*
D03*
X-76200Y-790579D02*
G54D14*
D03*
X-50800Y-790579D02*
G54D14*
D03*
X-25400Y-790579D02*
G54D14*
D03*
X0Y-790579D02*
G54D14*
D03*
X25400Y-790579D02*
G54D14*
D03*
X50800Y-790579D02*
G54D14*
D03*
G36*
X-555730Y-760436D02*
X-534730Y-760436D01*
X-534730Y-781436D01*
X-555730Y-781436D01*
X-555730Y-760436D01*
G37*
X-519830Y-770936D02*
G54D14*
D03*
X-494430Y-770936D02*
G54D14*
D03*
X-469030Y-770936D02*
G54D14*
D03*
X-443630Y-770936D02*
G54D14*
D03*
X-418230Y-770936D02*
G54D14*
D03*
X-392830Y-770936D02*
G54D14*
D03*
X-367430Y-770936D02*
G54D14*
D03*
X-342030Y-770936D02*
G54D14*
D03*
X-316630Y-770936D02*
G54D14*
D03*
X-291230Y-770936D02*
G54D14*
D03*
X-265830Y-770936D02*
G54D14*
D03*
X-240430Y-770936D02*
G54D14*
D03*
X-215030Y-770936D02*
G54D14*
D03*
X-189630Y-770936D02*
G54D14*
D03*
X-164230Y-770936D02*
G54D14*
D03*
X-138830Y-770936D02*
G54D14*
D03*
X-113430Y-770936D02*
G54D14*
D03*
X-88030Y-770936D02*
G54D14*
D03*
X-62631Y-770936D02*
G54D14*
D03*
X-37230Y-770936D02*
G54D14*
D03*
X-11830Y-770936D02*
G54D14*
D03*
X13570Y-770936D02*
G54D14*
D03*
X38970Y-770936D02*
G54D14*
D03*
X64370Y-770936D02*
G54D14*
D03*
X-545230Y-809436D02*
G54D14*
D03*
X-519830Y-809436D02*
G54D14*
D03*
X-494430Y-809436D02*
G54D14*
D03*
X-469030Y-809436D02*
G54D14*
D03*
X-443630Y-809436D02*
G54D14*
D03*
X-418230Y-809436D02*
G54D14*
D03*
X-392830Y-809436D02*
G54D14*
D03*
X-367430Y-809436D02*
G54D14*
D03*
X-342030Y-809436D02*
G54D14*
D03*
X-316630Y-809436D02*
G54D14*
D03*
X-291230Y-809436D02*
G54D14*
D03*
X-265830Y-809436D02*
G54D14*
D03*
X-240430Y-809436D02*
G54D14*
D03*
X-215030Y-809436D02*
G54D14*
D03*
X-189630Y-809436D02*
G54D14*
D03*
X-164230Y-809436D02*
G54D14*
D03*
X-138830Y-809436D02*
G54D14*
D03*
X-113430Y-809436D02*
G54D14*
D03*
X-88030Y-809436D02*
G54D14*
D03*
X-62631Y-809436D02*
G54D14*
D03*
X-37230Y-809436D02*
G54D14*
D03*
X-11830Y-809436D02*
G54D14*
D03*
X13570Y-809436D02*
G54D14*
D03*
X38970Y-809436D02*
G54D14*
D03*
X64370Y-809436D02*
G54D14*
D03*
X107950Y-752079D02*
G54D14*
D03*
X133350Y-752079D02*
G54D14*
D03*
X158750Y-752079D02*
G54D14*
D03*
X184150Y-752079D02*
G54D14*
D03*
X209550Y-752079D02*
G54D14*
D03*
X234950Y-752079D02*
G54D14*
D03*
X260350Y-752079D02*
G54D14*
D03*
X285750Y-752079D02*
G54D14*
D03*
X311150Y-752079D02*
G54D14*
D03*
X336550Y-752079D02*
G54D14*
D03*
X361950Y-752079D02*
G54D14*
D03*
X387350Y-752079D02*
G54D14*
D03*
X412750Y-752079D02*
G54D14*
D03*
X438150Y-752079D02*
G54D14*
D03*
X463550Y-752079D02*
G54D14*
D03*
X488950Y-752079D02*
G54D14*
D03*
X514350Y-752079D02*
G54D14*
D03*
X539750Y-752079D02*
G54D14*
D03*
X565150Y-752079D02*
G54D14*
D03*
X590550Y-752079D02*
G54D14*
D03*
X615950Y-752079D02*
G54D14*
D03*
X641350Y-752079D02*
G54D14*
D03*
X666750Y-752079D02*
G54D14*
D03*
X692150Y-752079D02*
G54D14*
D03*
X717550Y-752079D02*
G54D14*
D03*
X107950Y-790579D02*
G54D14*
D03*
X133350Y-790579D02*
G54D14*
D03*
X158750Y-790579D02*
G54D14*
D03*
X184150Y-790579D02*
G54D14*
D03*
X209550Y-790579D02*
G54D14*
D03*
X234950Y-790579D02*
G54D14*
D03*
X260350Y-790579D02*
G54D14*
D03*
X285750Y-790579D02*
G54D14*
D03*
X311150Y-790579D02*
G54D14*
D03*
X336550Y-790579D02*
G54D14*
D03*
X361950Y-790579D02*
G54D14*
D03*
X387350Y-790579D02*
G54D14*
D03*
X412750Y-790579D02*
G54D14*
D03*
X438150Y-790579D02*
G54D14*
D03*
X463550Y-790579D02*
G54D14*
D03*
X488950Y-790579D02*
G54D14*
D03*
X514350Y-790579D02*
G54D14*
D03*
X539750Y-790579D02*
G54D14*
D03*
X565150Y-790579D02*
G54D14*
D03*
X590550Y-790579D02*
G54D14*
D03*
X615950Y-790579D02*
G54D14*
D03*
X641350Y-790579D02*
G54D14*
D03*
X666750Y-790579D02*
G54D14*
D03*
X692150Y-790579D02*
G54D14*
D03*
X717550Y-790579D02*
G54D14*
D03*
X121520Y-770936D02*
G54D14*
D03*
X146920Y-770936D02*
G54D14*
D03*
X172320Y-770936D02*
G54D14*
D03*
X197720Y-770936D02*
G54D14*
D03*
X223120Y-770936D02*
G54D14*
D03*
X248520Y-770936D02*
G54D14*
D03*
X273920Y-770936D02*
G54D14*
D03*
X299320Y-770936D02*
G54D14*
D03*
X324720Y-770936D02*
G54D14*
D03*
X350120Y-770936D02*
G54D14*
D03*
X375520Y-770936D02*
G54D14*
D03*
X400920Y-770936D02*
G54D14*
D03*
X426320Y-770936D02*
G54D14*
D03*
X451720Y-770936D02*
G54D14*
D03*
X477120Y-770936D02*
G54D14*
D03*
X502520Y-770936D02*
G54D14*
D03*
X527919Y-770936D02*
G54D14*
D03*
X553319Y-770936D02*
G54D14*
D03*
X578719Y-770936D02*
G54D14*
D03*
X604119Y-770936D02*
G54D14*
D03*
X629519Y-770936D02*
G54D14*
D03*
X654919Y-770936D02*
G54D14*
D03*
X680319Y-770936D02*
G54D14*
D03*
X705719Y-770936D02*
G54D14*
D03*
X731120Y-770936D02*
G54D14*
D03*
X121520Y-809436D02*
G54D14*
D03*
X146920Y-809436D02*
G54D14*
D03*
X172320Y-809436D02*
G54D14*
D03*
X197720Y-809436D02*
G54D14*
D03*
X223120Y-809436D02*
G54D14*
D03*
X248520Y-809436D02*
G54D14*
D03*
X273920Y-809436D02*
G54D14*
D03*
X299320Y-809436D02*
G54D14*
D03*
X324720Y-809436D02*
G54D14*
D03*
X350120Y-809436D02*
G54D14*
D03*
X375520Y-809436D02*
G54D14*
D03*
X400920Y-809436D02*
G54D14*
D03*
X426320Y-809436D02*
G54D14*
D03*
X451720Y-809436D02*
G54D14*
D03*
X477120Y-809436D02*
G54D14*
D03*
X502520Y-809436D02*
G54D14*
D03*
X527919Y-809436D02*
G54D14*
D03*
X553319Y-809436D02*
G54D14*
D03*
X578719Y-809436D02*
G54D14*
D03*
X604119Y-809436D02*
G54D14*
D03*
X629519Y-809436D02*
G54D14*
D03*
X654919Y-809436D02*
G54D14*
D03*
X680319Y-809436D02*
G54D14*
D03*
X705719Y-809436D02*
G54D14*
D03*
X731120Y-809436D02*
G54D14*
D03*
X-32147Y63500D02*
G54D15*
D03*
X-79772Y-94854D02*
G54D15*
D03*
X-792559Y-117476D02*
G54D15*
D03*
X354806Y-411162D02*
G54D15*
D03*
X-844550Y-493316D02*
G54D15*
D03*
X371078Y49609D02*
G54D15*
D03*
X-99219Y59531D02*
G54D15*
D03*
X-256778Y37306D02*
G54D15*
D03*
X-1004094Y-17859D02*
G54D15*
D03*
X8731Y68262D02*
G54D15*
D03*
X-33734Y-89694D02*
G54D15*
D03*
X-722709Y-124619D02*
G54D15*
D03*
X155972Y53578D02*
G54D15*
D03*
X-49212Y-350441D02*
G54D15*
D03*
X-138906Y-353616D02*
G54D15*
D03*
X-23416Y73422D02*
G54D15*
D03*
X-50800Y-14684D02*
G54D15*
D03*
X-967581Y-16669D02*
G54D15*
D03*
X-9128Y57547D02*
G54D15*
D03*
X-82947Y73422D02*
G54D15*
D03*
X-245269Y61119D02*
G54D15*
D03*
X-955278Y-30956D02*
G54D15*
D03*
X689372Y79375D02*
G54D15*
D03*
X-930275Y67072D02*
G54D15*
D03*
X-912812Y65484D02*
G54D15*
D03*
X-1071166Y-61912D02*
G54D15*
D03*
X339725Y43656D02*
G54D15*
D03*
X-808434Y54769D02*
G54D15*
D03*
X786209Y85725D02*
G54D15*
D03*
X510381Y-170656D02*
G54D15*
D03*
X475059Y-169862D02*
G54D15*
D03*
X313928Y-226616D02*
G54D15*
D03*
X279400Y-226616D02*
G54D15*
D03*
X252809Y-282575D02*
G54D15*
D03*
X-116681Y-319088D02*
G54D15*
D03*
X-748903Y-295275D02*
G54D15*
D03*
X549275Y-23812D02*
G54D15*
D03*
X489744Y-15875D02*
G54D15*
D03*
X-53975Y5159D02*
G54D15*
D03*
X-99616Y-1588D02*
G54D15*
D03*
X-210741Y-83344D02*
G54D15*
D03*
X-1015206Y-29369D02*
G54D15*
D03*
X756841Y75803D02*
G54D15*
D03*
X-45244Y-71438D02*
G54D15*
D03*
X-329009Y-55166D02*
G54D15*
D03*
X-574278Y-41672D02*
G54D15*
D03*
X-1071959Y-94059D02*
G54D15*
D03*
X-1071959Y-122238D02*
G54D15*
D03*
X-1042988Y-158750D02*
G54D15*
D03*
X-870347Y-180975D02*
G54D15*
D03*
X-574278Y-146050D02*
G54D15*
D03*
X-860425Y-345281D02*
G54D15*
D03*
X-830262Y-349250D02*
G54D15*
D03*
X352822Y48419D02*
G54D15*
D03*
X-81756Y59928D02*
G54D15*
D03*
X910431Y-51197D02*
G54D15*
D03*
X936626Y-51196D02*
G54D15*
D03*
X636984Y-284162D02*
G54D15*
D03*
X310356Y-280988D02*
G54D15*
D03*
X469900Y-12303D02*
G54D15*
D03*
X567531Y-30956D02*
G54D15*
D03*
X402828Y-402034D02*
G54D15*
D03*
X-785812Y-289322D02*
G54D15*
D03*
X-10716Y-74612D02*
G54D15*
D03*
X-167084Y-55166D02*
G54D15*
D03*
X-321866Y-28575D02*
G54D15*
D03*
X-317500Y59134D02*
G54D15*
D03*
X-530225Y56753D02*
G54D15*
D03*
X-1030684Y-80169D02*
G54D15*
D03*
X-613966Y28178D02*
G54D15*
D03*
X-624681Y-412353D02*
G54D15*
D03*
X-566738Y-422672D02*
G54D15*
D03*
X-150812Y65484D02*
G54D15*
D03*
X-356791Y65088D02*
G54D15*
D03*
X-1002903Y31353D02*
G54D15*
D03*
X-739378Y66278D02*
G54D15*
D03*
X-550069Y51197D02*
G54D15*
D03*
X-764778Y-162719D02*
G54D15*
D03*
X-723900Y-165100D02*
G54D15*
D03*
X-721122Y-544909D02*
G54D15*
D03*
X-721122Y-398859D02*
G54D15*
D03*
X-686991Y-406797D02*
G54D15*
D03*
X-982662Y-578247D02*
G54D15*
D03*
X935038Y-268288D02*
G54D15*
D03*
X886222Y-829866D02*
G54D15*
D03*
X853678Y-43656D02*
G54D15*
D03*
X855662Y-65484D02*
G54D15*
D03*
X744141Y-247253D02*
G54D15*
D03*
X290116Y-257969D02*
G54D15*
D03*
X287734Y-283766D02*
G54D15*
D03*
X-157559Y-313928D02*
G54D15*
D03*
X370284Y-92869D02*
G54D15*
D03*
X323056Y-93266D02*
G54D15*
D03*
X315119Y-61913D02*
G54D15*
D03*
X34925Y-66676D02*
G54D15*
D03*
X-449262Y-20241D02*
G54D15*
D03*
X-126206Y-53976D02*
G54D15*
D03*
X-554434Y-188119D02*
G54D15*
D03*
X-1029097Y-165100D02*
G54D15*
D03*
X352822Y-18257D02*
G54D15*
D03*
X-418703Y-4366D02*
G54D15*
D03*
X-163116Y-36910D02*
G54D15*
D03*
X-542131Y-201216D02*
G54D15*
D03*
X-1019969Y-200819D02*
G54D15*
D03*
X244475Y-89694D02*
G54D15*
D03*
X-1064419Y-160735D02*
G54D15*
D03*
X-624681Y-147241D02*
G54D15*
D03*
X311547Y-88900D02*
G54D15*
D03*
X573088Y-69850D02*
G54D15*
D03*
X551656Y-273447D02*
G54D15*
D03*
X218678Y-340122D02*
G54D15*
D03*
X260350Y-227013D02*
G54D15*
D03*
X-169069Y-228203D02*
G54D15*
D03*
X-238919Y-214709D02*
G54D15*
D03*
X157559Y-227012D02*
G54D15*
D03*
X206772Y-225028D02*
G54D15*
D03*
X203200Y-694531D02*
G54D15*
D03*
X205184Y-526256D02*
G54D15*
D03*
X427038Y-500856D02*
G54D15*
D03*
X429419Y-717153D02*
G54D15*
D03*
X823119Y-784622D02*
G54D15*
D03*
X815181Y-723503D02*
G54D15*
D03*
X641350Y-669131D02*
G54D15*
D03*
X810022Y-669131D02*
G54D15*
D03*
X-668734Y-556816D02*
G54D15*
D03*
X-983853Y-616744D02*
G54D15*
D03*
X-297259Y-596503D02*
G54D15*
D03*
X-279003Y-302816D02*
G54D15*
D03*
X-223044Y-294084D02*
G54D15*
D03*
X290512Y-95647D02*
G54D15*
D03*
X-1023144Y-265112D02*
G54D15*
D03*
X-605631Y-241300D02*
G54D15*
D03*
X-260350Y-152797D02*
G54D15*
D03*
X-511969Y-452834D02*
G54D15*
D03*
X-508794Y-414338D02*
G54D15*
D03*
X-447675Y-416322D02*
G54D15*
D03*
X-445294Y-211138D02*
G54D15*
D03*
X-456406Y-176609D02*
G54D15*
D03*
X-456406Y-86519D02*
G54D15*
D03*
X-1020366Y-222250D02*
G54D15*
D03*
X-210219Y-163388D02*
G54D15*
D03*
X-204788Y-392112D02*
G54D15*
D03*
X-439341Y-361156D02*
G54D15*
D03*
X-293688Y-406003D02*
G54D15*
D03*
X-433388Y-123428D02*
G54D15*
D03*
X-1052116Y-114697D02*
G54D15*
D03*
X595709Y-150416D02*
G54D15*
D03*
X599281Y-121047D02*
G54D15*
D03*
X519112Y-121841D02*
G54D15*
D03*
X-1010841Y-268288D02*
G54D15*
D03*
X-633809Y-290512D02*
G54D15*
D03*
X362347Y-203994D02*
G54D15*
D03*
X-59134Y-213122D02*
G54D15*
D03*
X-78581Y-412750D02*
G54D15*
D03*
X-689920Y-479210D02*
G54D15*
D03*
X466725Y-192484D02*
G54D15*
D03*
X576262Y-192881D02*
G54D15*
D03*
X437356Y-393303D02*
G54D15*
D03*
X-581819Y-422275D02*
G54D15*
D03*
X-283766Y-442912D02*
G54D15*
D03*
X373459Y-184150D02*
G54D15*
D03*
X-230981Y-180975D02*
G54D15*
D03*
X-228997Y-234950D02*
G54D15*
D03*
X-478631Y-330994D02*
G54D15*
D03*
X-438944Y-698897D02*
G54D15*
D03*
X-283369Y-699294D02*
G54D15*
D03*
X466328Y-235347D02*
G54D15*
D03*
X-216297Y-268684D02*
G54D15*
D03*
X-119459Y-234553D02*
G54D15*
D03*
X-120650Y-249634D02*
G54D15*
D03*
X306388Y-794D02*
G54D15*
D03*
X-17066Y-700088D02*
G54D15*
D03*
X49609Y-11906D02*
G54D15*
D03*
X-242491Y-13097D02*
G54D15*
D03*
X-280194Y-711994D02*
G54D15*
D03*
X-346075Y-715566D02*
G54D15*
D03*
X352028Y-320675D02*
G54D15*
D03*
X164306Y-330994D02*
G54D15*
D03*
X155972Y-406797D02*
G54D15*
D03*
X509588Y-217091D02*
G54D15*
D03*
X482600Y-218678D02*
G54D15*
D03*
X369491Y-155575D02*
G54D15*
D03*
X324247Y-155575D02*
G54D15*
D03*
X240903Y-186134D02*
G54D15*
D03*
X130572Y-187722D02*
G54D15*
D03*
X123825Y-395684D02*
G54D15*
D03*
X-206772Y-300831D02*
G54D15*
D03*
X199628Y-295672D02*
G54D15*
D03*
X579225Y-154092D02*
G54D15*
D03*
X51594Y-147241D02*
G54D15*
D03*
X108347Y-355203D02*
G54D15*
D03*
X202803Y51197D02*
G54D15*
D03*
X-1032669Y-213518D02*
G54D15*
D03*
X258762Y-94853D02*
G54D15*
D03*
X-1000919Y-165100D02*
G54D15*
D03*
X-65484Y-654447D02*
G54D15*
D03*
X-352822Y-640159D02*
G54D15*
D03*
X-34925Y-697309D02*
G54D15*
D03*
X746522Y-36116D02*
G54D15*
D03*
X488156Y-46831D02*
G54D15*
D03*
X367109Y-11112D02*
G54D15*
D03*
X-188516Y-65484D02*
G54D15*
D03*
X523875Y-100012D02*
G54D15*
D03*
X375444Y-64294D02*
G54D15*
D03*
X308769Y-48816D02*
G54D15*
D03*
X11906Y-715962D02*
G54D15*
D03*
X533003Y-120650D02*
G54D15*
D03*
X376238Y-51594D02*
G54D15*
D03*
X-106759Y-53578D02*
G54D15*
D03*
X-25797Y-123428D02*
G54D15*
D03*
X-47625Y-622697D02*
G54D15*
D03*
X-80962Y-628253D02*
G54D15*
D03*
X722312Y-26988D02*
G54D15*
D03*
X-55166Y-714375D02*
G54D15*
D03*
X249238Y-131366D02*
G54D15*
D03*
X-86122Y-660797D02*
G54D15*
D03*
X-957262Y-619125D02*
G54D15*
D03*
X-8731Y-716359D02*
G54D15*
D03*
X709612Y-44847D02*
G54D15*
D03*
X71834Y-350044D02*
G54D15*
D03*
X30162Y-350044D02*
G54D15*
D03*
X67866Y-638175D02*
G54D15*
D03*
X54769Y-737394D02*
G54D15*
D03*
X-978694Y-599281D02*
G54D15*
D03*
X756444Y-234156D02*
G54D15*
D03*
X484981Y-234156D02*
G54D15*
D03*
X16272Y-674291D02*
G54D15*
D03*
X-971550Y-620316D02*
G54D15*
D03*
X858838Y-78184D02*
G54D15*
D03*
X-1038622Y-483791D02*
G54D15*
D03*
X194469Y-181769D02*
G54D15*
D03*
X-116681Y-722709D02*
G54D15*
D03*
X-126603Y-664369D02*
G54D15*
D03*
X-388541Y-651272D02*
G54D15*
D03*
X-384175Y-678259D02*
G54D15*
D03*
X-651272Y-646906D02*
G54D15*
D03*
X-642541Y-505619D02*
G54D15*
D03*
X-1045766Y-630634D02*
G54D15*
D03*
X-263128Y-286544D02*
G54D15*
D03*
X-247650Y-706438D02*
G54D15*
D03*
X-1035050Y-555228D02*
G54D15*
D03*
X-75803Y-368697D02*
G54D15*
D03*
X-73025Y-548878D02*
G54D15*
D03*
X-790178Y-556816D02*
G54D15*
D03*
X-805276Y-557386D02*
G54D15*
D03*
X-1027906Y-594122D02*
G54D15*
D03*
X719931Y-167878D02*
G54D15*
D03*
X-684212Y-746919D02*
G54D15*
D03*
X-1019969Y-619919D02*
G54D15*
D03*
X675084Y-116681D02*
G54D15*
D03*
X490056Y-105654D02*
G54D15*
D03*
X350044Y-183753D02*
G54D15*
D03*
X325041Y-184547D02*
G54D15*
D03*
X190103Y-399653D02*
G54D15*
D03*
X-180578Y-390525D02*
G54D15*
D03*
X-126603Y-729853D02*
G54D15*
D03*
X-1033462Y-499269D02*
G54D15*
D03*
X525066Y-169466D02*
G54D15*
D03*
X177976Y58349D02*
G54D15*
D03*
X43259Y58341D02*
G54D15*
D03*
X-18653Y-89694D02*
G54D15*
D03*
X-241697Y-101203D02*
G54D15*
D03*
X-254397Y-305197D02*
G54D15*
D03*
X-386159Y-305197D02*
G54D15*
D03*
X-373062Y-484981D02*
G54D15*
D03*
X-1074341Y-619125D02*
G54D15*
D03*
X121047Y-330597D02*
G54D15*
D03*
X-129778Y-327819D02*
G54D15*
D03*
X81359Y-330200D02*
G54D15*
D03*
X600075Y-301625D02*
G54D15*
D03*
X623888Y-488950D02*
G54D15*
D03*
X605234Y-413941D02*
G54D15*
D03*
X558800Y-413941D02*
G54D15*
D03*
X484584Y-409972D02*
G54D15*
D03*
X154384Y-498872D02*
G54D15*
D03*
X159544Y-570309D02*
G54D15*
D03*
X625475Y-509588D02*
G54D15*
D03*
X737394Y-498078D02*
G54D15*
D03*
X348456Y-510778D02*
G54D15*
D03*
X585788Y-265509D02*
G54D15*
D03*
X892969Y-598884D02*
G54D15*
D03*
X716359Y-582216D02*
G54D15*
D03*
X761206Y-749697D02*
G54D15*
D03*
X804466Y-778669D02*
G54D15*
D03*
X929878Y-636191D02*
G54D15*
D03*
X337741Y-631031D02*
G54D15*
D03*
X420291Y-643334D02*
G54D15*
D03*
X550069Y-217884D02*
G54D15*
D03*
X615950Y-192881D02*
G54D15*
D03*
X867966Y-321072D02*
G54D15*
D03*
X44847Y-323056D02*
G54D15*
D03*
X34925Y-533003D02*
G54D15*
D03*
X-85328Y-533400D02*
G54D15*
D03*
X-79772Y-572294D02*
G54D15*
D03*
X-1014725Y-568638D02*
G54D15*
D03*
X-398066Y-554831D02*
G54D15*
D03*
X-394891Y-567928D02*
G54D15*
D03*
X97234Y-340519D02*
G54D15*
D03*
X430609Y-459184D02*
G54D15*
D03*
X611188Y-508000D02*
G54D15*
D03*
X-206375Y-504825D02*
G54D15*
D03*
X136525Y-473472D02*
G54D15*
D03*
X576659Y-498872D02*
G54D15*
D03*
X554434Y-578644D02*
G54D15*
D03*
X106362Y-617538D02*
G54D15*
D03*
X98425Y-565944D02*
G54D15*
D03*
X526256Y-641350D02*
G54D15*
D03*
X533003Y-582216D02*
G54D15*
D03*
X177006Y-577850D02*
G54D15*
D03*
X876300Y-359569D02*
G54D15*
D03*
X771922Y-388541D02*
G54D15*
D03*
X798512Y-479028D02*
G54D15*
D03*
X662384Y-488950D02*
G54D15*
D03*
X685800Y-570309D02*
G54D15*
D03*
X527844Y-679053D02*
G54D15*
D03*
X531416Y-719138D02*
G54D15*
D03*
X524272Y-738584D02*
G54D15*
D03*
X515938Y-838994D02*
G54D15*
D03*
X112316Y-732234D02*
G54D15*
D03*
X850106Y-523478D02*
G54D15*
D03*
X860028Y-623888D02*
G54D15*
D03*
X848519Y-548084D02*
G54D15*
D03*
X352822Y-550069D02*
G54D15*
D03*
X723503Y-508794D02*
G54D15*
D03*
X747316Y-808831D02*
G54D15*
D03*
X-1026319Y-543719D02*
G54D15*
D03*
X-325438Y-540147D02*
G54D15*
D03*
X-319881Y-671909D02*
G54D15*
D03*
X-74612Y-673894D02*
G54D15*
D03*
X73819Y-377428D02*
G54D15*
D03*
X-55562Y-376238D02*
G54D15*
D03*
X-55166Y-513556D02*
G54D15*
D03*
X-154384Y-512366D02*
G54D15*
D03*
X142478Y-390128D02*
G54D15*
D03*
X140494Y-581025D02*
G54D15*
D03*
X609600Y-579438D02*
G54D15*
D03*
X594916Y-219472D02*
G54D15*
D03*
X467519Y-217884D02*
G54D15*
D03*
X351631Y-481409D02*
G54D15*
D03*
X250825Y-490934D02*
G54D15*
D03*
X250428Y-592931D02*
G54D15*
D03*
X132159Y-622300D02*
G54D15*
D03*
X588169Y-721122D02*
G54D15*
D03*
X119062Y-621506D02*
G54D15*
D03*
X500062Y-412750D02*
G54D15*
D03*
X477441Y-550466D02*
G54D15*
D03*
X489347Y-523081D02*
G54D15*
D03*
X-340916Y-547291D02*
G54D15*
D03*
X88106Y-502047D02*
G54D15*
D03*
X547291Y-550466D02*
G54D15*
D03*
X417116Y-716756D02*
G54D15*
D03*
X163512Y-680641D02*
G54D15*
D03*
X447928Y-679679D02*
G54D15*
D03*
X541734Y-406400D02*
G54D15*
D03*
X148828Y-676672D02*
G54D15*
D03*
X397272Y-679053D02*
G54D15*
D03*
X396182Y-717401D02*
G54D15*
D03*
X134938Y-676672D02*
G54D15*
D03*
X829866Y-407591D02*
G54D15*
D03*
X436562Y-637381D02*
G54D15*
D03*
X609997Y-226219D02*
G54D15*
D03*
X706834Y-226616D02*
G54D15*
D03*
X373062Y-726678D02*
G54D15*
D03*
X122634Y-717550D02*
G54D15*
D03*
X515541Y-480616D02*
G54D15*
D03*
X447278Y-717153D02*
G54D15*
D03*
X364331Y-679847D02*
G54D15*
D03*
X201612Y-676275D02*
G54D15*
D03*
X564356Y-393303D02*
G54D15*
D03*
X424259Y-675084D02*
G54D15*
D03*
X97234Y-666750D02*
G54D15*
D03*
X355997Y-664766D02*
G54D15*
D03*
X860425Y-383381D02*
G54D15*
D03*
X335359Y-674688D02*
G54D15*
D03*
X184944Y-644525D02*
G54D15*
D03*
X802878Y-509588D02*
G54D15*
D03*
X835819Y-729456D02*
G54D15*
D03*
X790575Y-796528D02*
G54D15*
D03*
X405606Y-490538D02*
G54D15*
D03*
X736600Y-461962D02*
G54D15*
D03*
X789781Y-470297D02*
G54D15*
D03*
X791369Y-560784D02*
G54D15*
D03*
X400447Y-557609D02*
G54D15*
D03*
X855662Y-575072D02*
G54D15*
D03*
X791369Y-581819D02*
G54D15*
D03*
X781447Y-552847D02*
G54D15*
D03*
X854869Y-561975D02*
G54D15*
D03*
X388144Y-550466D02*
G54D15*
D03*
X770731Y-510778D02*
G54D15*
D03*
X758031Y-577056D02*
G54D15*
D03*
X375047Y-550466D02*
G54D15*
D03*
X856059Y-497284D02*
G54D15*
D03*
X362347Y-511969D02*
G54D15*
D03*
X754062Y-505619D02*
G54D15*
D03*
X-1021556Y-507603D02*
G54D15*
D03*
X75406Y-13097D02*
G54D15*
D03*
X-477044Y11112D02*
G54D15*
D03*
X-369094Y11509D02*
G54D15*
D03*
X-113109Y10716D02*
G54D15*
D03*
X-569516Y-30162D02*
G54D15*
D03*
X-631428Y-46038D02*
G54D15*
D03*
X-696516Y-46434D02*
G54D15*
D03*
X-732631Y-105569D02*
G54D15*
D03*
X-911225Y-108347D02*
G54D15*
D03*
X-988219Y-250825D02*
G54D15*
D03*
X217884Y-468312D02*
G54D15*
D03*
X202803Y-470694D02*
G54D15*
D03*
X327819Y-122634D02*
G54D15*
D03*
X261541Y-117475D02*
G54D15*
D03*
X48022Y-66675D02*
G54D15*
D03*
X-104775Y-37703D02*
G54D15*
D03*
X-207566Y44450D02*
G54D15*
D03*
X-1018778Y18653D02*
G54D15*
D03*
X-566738Y46831D02*
G54D15*
D03*
X-1067991Y-437753D02*
G54D15*
D03*
X308372Y-189706D02*
G54D15*
D03*
X-54372Y-186928D02*
G54D15*
D03*
X110728Y-829072D02*
G54D15*
D03*
X241300Y-225425D02*
G54D15*
D03*
X-498872Y-269875D02*
G54D15*
D03*
X217091Y-187325D02*
G54D15*
D03*
X51594Y-270669D02*
G54D15*
D03*
X-271859Y-238919D02*
G54D15*
D03*
X66675Y-186531D02*
G54D15*
D03*
X-100409Y-145653D02*
G54D15*
D03*
X118666Y-189309D02*
G54D15*
D03*
X169466Y-480616D02*
G54D15*
D03*
X411559Y-475456D02*
G54D15*
D03*
X222250Y-491331D02*
G54D15*
D03*
X71438Y-735806D02*
G54D15*
D03*
X69850Y-791766D02*
G54D15*
D03*
X384572Y-294481D02*
G54D15*
D03*
X156766Y-286147D02*
G54D15*
D03*
X153988Y-349647D02*
G54D15*
D03*
X296069Y-348456D02*
G54D15*
D03*
X333772Y-724694D02*
G54D15*
D03*
X305594Y-627856D02*
G54D15*
D03*
X298450Y-380603D02*
G54D15*
D03*
X144066Y-622697D02*
G54D15*
D03*
X401241Y-388144D02*
G54D15*
D03*
X128191Y-340519D02*
G54D15*
D03*
X368697Y-331788D02*
G54D15*
D03*
X270669Y-334962D02*
G54D15*
D03*
X309959Y-838597D02*
G54D15*
D03*
X409178Y-841772D02*
G54D15*
D03*
X118754Y-360079D02*
G54D15*
D03*
X369491Y-361156D02*
G54D15*
D03*
X355203Y-625872D02*
G54D15*
D03*
X97234Y-470694D02*
G54D15*
D03*
X319484Y-494903D02*
G54D15*
D03*
X273844Y-506809D02*
G54D15*
D03*
X273237Y-720476D02*
G54D15*
D03*
X91281Y-412750D02*
G54D15*
D03*
X312738Y-405209D02*
G54D15*
D03*
X337741Y-459978D02*
G54D15*
D03*
X391319Y-460772D02*
G54D15*
D03*
X416322Y-550069D02*
G54D15*
D03*
X492919Y-559991D02*
G54D15*
D03*
X73819Y-413544D02*
G54D15*
D03*
X325438Y-406797D02*
G54D15*
D03*
X240506Y-434578D02*
G54D15*
D03*
X310356Y-736997D02*
G54D15*
D03*
X54372Y-558800D02*
G54D15*
D03*
X698103Y-577453D02*
G54D15*
D03*
X517525Y-575866D02*
G54D15*
D03*
X497284Y-581025D02*
G54D15*
D03*
X333375Y-558403D02*
G54D15*
D03*
X308372Y-564753D02*
G54D15*
D03*
X-656828Y-558403D02*
G54D15*
D03*
X55562Y-636191D02*
G54D15*
D03*
X-352822Y-619125D02*
G54D15*
D03*
X-319484Y-406400D02*
G54D15*
D03*
X-388541Y-403622D02*
G54D15*
D03*
X68262Y-617934D02*
G54D15*
D03*
X199231Y-636191D02*
G54D15*
D03*
X-81756Y-613569D02*
G54D15*
D03*
X39688Y-679053D02*
G54D15*
D03*
X-352425Y-683022D02*
G54D15*
D03*
X71041Y-661194D02*
G54D15*
D03*
X-54676Y-654045D02*
G54D15*
D03*
X232966Y-633016D02*
G54D15*
D03*
X161528Y-619125D02*
G54D15*
D03*
X278606Y-367903D02*
G54D15*
D03*
X-344884Y-345281D02*
G54D15*
D03*
X314325Y-510778D02*
G54D15*
D03*
X-107156Y-500459D02*
G54D15*
D03*
X438944Y-488950D02*
G54D15*
D03*
X298450Y-673894D02*
G54D15*
D03*
X-353219Y-660797D02*
G54D15*
D03*
X315119Y-549275D02*
G54D15*
D03*
X325438Y-646906D02*
G54D15*
D03*
X437728Y-650100D02*
G54D15*
D03*
X-60325Y-549275D02*
G54D15*
D03*
X325834Y-671116D02*
G54D15*
D03*
X69701Y-675270D02*
G54D15*
D03*
X406436Y-648739D02*
G54D15*
D03*
X343297Y-652462D02*
G54D15*
D03*
X402828Y-618331D02*
G54D15*
D03*
X365522Y-635397D02*
G54D15*
D03*
X358137Y-732787D02*
G54D15*
D03*
X416640Y-733773D02*
G54D15*
D03*
X325834Y-632222D02*
G54D15*
D03*
X326628Y-619125D02*
G54D15*
D03*
X520700Y-459978D02*
G54D15*
D03*
X420688Y-452834D02*
G54D15*
D03*
X423069Y-405606D02*
G54D15*
D03*
X-309166Y-406797D02*
G54D15*
D03*
X547688Y-467916D02*
G54D15*
D03*
X646112Y-454819D02*
G54D15*
D03*
X622300Y-136922D02*
G54D15*
D03*
X470297Y-125016D02*
G54D15*
D03*
X345281Y-203597D02*
G54D15*
D03*
X-104378Y-199231D02*
G54D15*
D03*
X615156Y-402034D02*
G54D15*
D03*
X800100Y-413147D02*
G54D15*
D03*
X850503Y-349250D02*
G54D15*
D03*
X617538Y-452041D02*
G54D15*
D03*
X798909Y-451644D02*
G54D15*
D03*
X911622Y-769144D02*
G54D15*
D03*
X621903Y-253603D02*
G54D15*
D03*
X705247Y-288131D02*
G54D15*
D03*
X927497Y-239316D02*
G54D15*
D03*
X920750Y-813594D02*
G54D15*
D03*
X586978Y-405606D02*
G54D15*
D03*
X828675Y-498078D02*
G54D15*
D03*
X781844Y-460772D02*
G54D15*
D03*
X820738Y-652066D02*
G54D15*
D03*
X579041Y-463550D02*
G54D15*
D03*
X759619Y-467519D02*
G54D15*
D03*
X612775Y-473075D02*
G54D15*
D03*
X630634Y-403622D02*
G54D15*
D03*
X890984Y-431800D02*
G54D15*
D03*
X872728Y-340916D02*
G54D15*
D03*
X566738Y-476250D02*
G54D15*
D03*
X682625Y-465138D02*
G54D15*
D03*
X694134Y-652859D02*
G54D15*
D03*
X720725Y-663178D02*
G54D15*
D03*
X710803Y-736203D02*
G54D15*
D03*
X842962Y-785019D02*
G54D15*
D03*
X841772Y-834231D02*
G54D15*
D03*
X501253Y-719534D02*
G54D15*
D03*
X553641Y-456406D02*
G54D15*
D03*
X729456Y-450453D02*
G54D15*
D03*
X540544Y-477838D02*
G54D15*
D03*
X708819Y-450056D02*
G54D15*
D03*
X516334Y-718741D02*
G54D15*
D03*
X269081Y-845344D02*
G54D15*
D03*
X96044Y-773906D02*
G54D15*
D03*
X-226616Y-712391D02*
G54D15*
D03*
X619522Y-661194D02*
G54D15*
D03*
X799306Y-630634D02*
G54D15*
D03*
X796925Y-750888D02*
G54D15*
D03*
X613569Y-626269D02*
G54D15*
D03*
X791766Y-619125D02*
G54D15*
D03*
X688578Y-633412D02*
G54D15*
D03*
X598488Y-573881D02*
G54D15*
D03*
X660797Y-572294D02*
G54D15*
D03*
X661591Y-590947D02*
G54D15*
D03*
X807244Y-575072D02*
G54D15*
D03*
X570706Y-554831D02*
G54D15*
D03*
X674688Y-587772D02*
G54D15*
D03*
X671116Y-612775D02*
G54D15*
D03*
X671512Y-719534D02*
G54D15*
D03*
X750491Y-621506D02*
G54D15*
D03*
X773509Y-651669D02*
G54D15*
D03*
X742950Y-653256D02*
G54D15*
D03*
X552053Y-653256D02*
G54D15*
D03*
X702866Y-679053D02*
G54D15*
D03*
X676672Y-687784D02*
G54D15*
D03*
X676672Y-707231D02*
G54D15*
D03*
X534988Y-655638D02*
G54D15*
D03*
X552847Y-722312D02*
G54D15*
D03*
X713978Y-628253D02*
G54D15*
D03*
X655241Y-250031D02*
G54D15*
D03*
X-329406Y-286544D02*
G54D15*
D03*
X703659Y-715962D02*
G54D15*
D03*
X823912Y-669131D02*
G54D15*
D03*
X-83741Y-588169D02*
G54D15*
D03*
X-165497Y-180975D02*
G54D15*
D03*
X-364331Y-195262D02*
G54D15*
D03*
X-484981Y-5953D02*
G54D15*
D03*
X-629841Y-12700D02*
G54D15*
D03*
X-643731Y-172244D02*
G54D15*
D03*
X-897731Y-173434D02*
G54D15*
D03*
X-179388Y-140494D02*
G54D15*
D03*
X-325438Y-145256D02*
G54D15*
D03*
X-336947Y-101600D02*
G54D15*
D03*
X-897731Y-111125D02*
G54D15*
D03*
X-169069Y-107553D02*
G54D15*
D03*
X-284162Y-81756D02*
G54D15*
D03*
X-421878Y-82153D02*
G54D15*
D03*
X-400050Y-340519D02*
G54D15*
D03*
X-1017984Y-325438D02*
G54D15*
D03*
X-177006Y-194866D02*
G54D15*
D03*
X-279003Y-194866D02*
G54D15*
D03*
X-370284Y-232172D02*
G54D15*
D03*
X-1038622Y-325834D02*
G54D15*
D03*
X-177800Y-207566D02*
G54D15*
D03*
X-461962Y-243284D02*
G54D15*
D03*
X-461169Y-221456D02*
G54D15*
D03*
X-479028Y-184944D02*
G54D15*
D03*
X-157956Y-93266D02*
G54D15*
D03*
X-197247Y-93266D02*
G54D15*
D03*
X-217091Y-5556D02*
G54D15*
D03*
X-249238Y-794D02*
G54D15*
D03*
X-329406Y-397D02*
G54D15*
D03*
X-329406Y-42466D02*
G54D15*
D03*
X-477441Y-35719D02*
G54D15*
D03*
X-211534Y-438547D02*
G54D15*
D03*
X-695722Y-456803D02*
G54D15*
D03*
X-623094Y-302022D02*
G54D15*
D03*
X-400050Y-183753D02*
G54D15*
D03*
X-673894Y-400050D02*
G54D15*
D03*
X-720464Y-421585D02*
G54D15*
D03*
X-1017191Y-412353D02*
G54D15*
D03*
X-189309Y-318294D02*
G54D15*
D03*
X-417512Y-328612D02*
G54D15*
D03*
X-410369Y-367903D02*
G54D15*
D03*
X-940594Y-372666D02*
G54D15*
D03*
X-163116Y-258762D02*
G54D15*
D03*
X-435769Y-282178D02*
G54D15*
D03*
X-425450Y-442516D02*
G54D15*
D03*
X-983059Y-433388D02*
G54D15*
D03*
X-81756Y-474266D02*
G54D15*
D03*
X685006Y-498872D02*
G54D15*
D03*
X818753Y-451644D02*
G54D15*
D03*
X-292497Y-103981D02*
G54D15*
D03*
X-524669Y-103188D02*
G54D15*
D03*
X-543322Y-145653D02*
G54D15*
D03*
X-669131Y-163116D02*
G54D15*
D03*
X-272966Y35406D02*
G54D15*
D03*
X-463466Y35406D02*
G54D15*
D03*
X-465138Y-26590D02*
G54D15*
D03*
X-235347Y9128D02*
G54D15*
D03*
X-213122Y-65881D02*
G54D15*
D03*
X-958850Y-68659D02*
G54D15*
D03*
X-833835Y-87709D02*
G54D15*
D03*
X-370682Y-55959D02*
G54D15*
D03*
X-226219Y-66675D02*
G54D15*
D03*
X-623094Y-74215D02*
G54D15*
D03*
X-915194Y-425450D02*
G54D15*
D03*
X-1009254Y-392509D02*
G54D15*
D03*
X-690960Y-385762D02*
G54D15*
D03*
X-705644Y-727868D02*
G54D15*
D03*
X-685404Y-725884D02*
G54D15*
D03*
X-788988Y-403622D02*
G54D15*
D03*
X-881857Y-384968D02*
G54D15*
D03*
X-231775Y-314722D02*
G54D15*
D03*
X-405210Y-310356D02*
G54D15*
D03*
X-388541Y-403622D02*
G54D15*
D03*
X-404581Y-403045D02*
G54D15*
D03*
X-962422Y-349250D02*
G54D15*
D03*
X-430610Y-53578D02*
G54D15*
D03*
X-896938Y-76200D02*
G54D15*
D03*
X-319088Y-94456D02*
G54D15*
D03*
X-396082Y-91281D02*
G54D15*
D03*
X-536972Y-82153D02*
G54D15*
D03*
X-368300Y-153988D02*
G54D15*
D03*
X-465138Y-153988D02*
G54D15*
D03*
X-317500Y-245665D02*
G54D15*
D03*
X678656Y-208756D02*
G54D15*
D03*
X-153591Y-229790D02*
G54D15*
D03*
X-602854Y55960D02*
G54D15*
D03*
X-704057Y794D02*
G54D15*
D03*
X-650875Y0D02*
G54D15*
D03*
X-527460Y9512D02*
G54D15*
D03*
X-876300Y-63500D02*
G54D15*
D03*
X-784225Y-145653D02*
G54D15*
D03*
X-842169Y-216694D02*
G54D15*
D03*
X-799307Y-221456D02*
G54D15*
D03*
X-692944Y-654844D02*
G54D15*
D03*
X-1052910Y794D02*
G54D15*
D03*
X-754857Y-125015D02*
G54D15*
D03*
X-1019175Y-400447D02*
G54D15*
D03*
X-1066007Y-306784D02*
G54D15*
D03*
X-773907Y-452040D02*
G54D15*
D03*
X-1031875Y-130968D02*
G54D15*
D03*
X-957263Y-55562D02*
G54D15*
D03*
X-653257Y-80962D02*
G54D15*
D03*
X-637778Y-343694D02*
G54D15*
D03*
X-591344Y-344487D02*
G54D15*
D03*
X-591741Y-749697D02*
G54D15*
D03*
X-656432Y-758428D02*
G54D15*
D03*
X-656828Y-798115D02*
G54D15*
D03*
X195262Y-831453D02*
G54D15*
D03*
X-904478Y-379809D02*
G54D15*
D03*
X-963216Y-137318D02*
G54D15*
D03*
X-1080691Y-324247D02*
G54D15*
D03*
X-895350Y-329009D02*
G54D15*
D03*
X-573882Y-364728D02*
G54D15*
D03*
X-904166Y-278125D02*
G54D15*
D03*
X-521494Y-368697D02*
G54D15*
D03*
X-913294Y-265425D02*
G54D15*
D03*
X-502841Y-368697D02*
G54D15*
D03*
X-442119Y-712390D02*
G54D15*
D03*
X-623491Y-713184D02*
G54D15*
D03*
X-693341Y-818356D02*
G54D15*
D03*
X244475Y-830262D02*
G54D15*
D03*
X-895350Y-260747D02*
G54D15*
D03*
X-521891Y-341312D02*
G54D15*
D03*
X-488554Y-450850D02*
G54D15*
D03*
X220662Y-443309D02*
G54D15*
D03*
X-713582Y-227409D02*
G54D15*
D03*
X-667544Y-828278D02*
G54D15*
D03*
X-958057Y-227012D02*
G54D15*
D03*
X-917575Y-217487D02*
G54D15*
D03*
X-654050Y-232172D02*
G54D15*
D03*
X-956866Y-202406D02*
G54D15*
D03*
X-575866Y-203994D02*
G54D15*
D03*
X-495697Y-242887D02*
G54D15*
D03*
X-429022Y-253603D02*
G54D15*
D03*
X-902891Y-223440D02*
G54D15*
D03*
X-696516Y-227409D02*
G54D15*
D03*
X-690563Y-422275D02*
G54D15*
D03*
X-598488Y-422672D02*
G54D15*
D03*
X-1054894Y-375444D02*
G54D15*
D03*
X-1069975Y-454422D02*
G54D15*
D03*
X-1019572Y-348853D02*
G54D15*
D03*
X-919163Y-399256D02*
G54D15*
D03*
X-867966Y-492125D02*
G54D15*
D03*
X-1035188Y-371612D02*
G54D15*
D03*
X-860425Y-474662D02*
G54D15*
D03*
X-1016397Y-438547D02*
G54D15*
D03*
X-595710Y-453628D02*
G54D15*
D03*
X-917575Y-615156D02*
G54D15*
D03*
X-800894Y-608012D02*
G54D15*
D03*
X-727075Y-756444D02*
G54D15*
D03*
X-734616Y-826294D02*
G54D15*
D03*
X-887016Y-623094D02*
G54D15*
D03*
X-762000Y-604440D02*
G54D15*
D03*
X-649685Y-735409D02*
G54D15*
D03*
X-481807Y-698897D02*
G54D15*
D03*
X-897335Y-508794D02*
G54D15*
D03*
X-754063Y-510778D02*
G54D15*
D03*
X-748501Y-562395D02*
G54D15*
D03*
X-637778Y-556022D02*
G54D15*
D03*
X-629444Y-599281D02*
G54D15*
D03*
X-618728Y-657225D02*
G54D15*
D03*
X-604044Y-716359D02*
G54D15*
D03*
X-973932Y-346472D02*
G54D15*
D03*
X-970757Y-404018D02*
G54D15*
D03*
X-819212Y-407255D02*
G54D15*
D03*
X-905272Y-622300D02*
G54D15*
D03*
X-676672Y-736203D02*
G54D15*
D03*
X-936188Y-660359D02*
G54D15*
D03*
X-1098550Y-377031D02*
G54D15*
D03*
X-978694Y33735D02*
G54D15*
D03*
X-825104Y37306D02*
G54D15*
D03*
X-907654Y-542528D02*
G54D15*
D03*
X-375444Y-528637D02*
G54D15*
D03*
X-954088Y-507999D02*
G54D15*
D03*
X-539750Y-409178D02*
G54D15*
D03*
X-515938Y-723900D02*
G54D15*
D03*
X-746522Y-608012D02*
G54D15*
D03*
X-611118Y-803517D02*
G54D15*
D03*
X-611118Y-749230D02*
G54D15*
D03*
X-812007Y-568722D02*
G54D15*
D03*
X-911622Y-572690D02*
G54D15*
D03*
X-758032Y-838200D02*
G54D15*
D03*
X-707628Y-838994D02*
G54D15*
D03*
X-810022Y-433784D02*
G54D15*
D03*
X-456407Y-434975D02*
G54D15*
D03*
X-758825Y-433784D02*
G54D15*
D03*
X451246Y-846137D02*
G54D15*
D03*
X-719138Y-667147D02*
G54D15*
D03*
X-775097Y-404415D02*
G54D15*
D03*
X-558007Y-552450D02*
G54D15*
D03*
X-522685Y-555625D02*
G54D15*
D03*
X-541735Y-723900D02*
G54D15*
D03*
X-540147Y-387350D02*
G54D15*
D03*
X-436960Y-390128D02*
G54D15*
D03*
X-529432Y-722709D02*
G54D15*
D03*
X-618332Y-601265D02*
G54D15*
D03*
X-624285Y-646112D02*
G54D15*
D03*
X-507207Y-692150D02*
G54D15*
D03*
X145653Y-726678D02*
G54D15*
D03*
X-506810Y-618728D02*
G54D15*
D03*
X-645319Y-601662D02*
G54D15*
D03*
X-590154Y-590153D02*
G54D15*
D03*
X631428Y60325D02*
G54D16*
D03*
X756046Y58135D02*
G54D16*
D03*
X425846Y33528D02*
G54D16*
D03*
X479028Y34719D02*
G54D16*
D03*
X604043Y34528D02*
G54D16*
D03*
X632618Y34528D02*
G54D16*
D03*
X809228Y31941D02*
G54D16*
D03*
X756046Y8922D02*
G54D16*
D03*
X705246Y9922D02*
G54D16*
D03*
X604043Y8335D02*
G54D16*
D03*
X580628Y9922D02*
G54D16*
D03*
X525859Y8922D02*
G54D16*
D03*
X427037Y-18462D02*
G54D16*
D03*
X425846Y-68072D02*
G54D16*
D03*
X451643Y-92678D02*
G54D16*
D03*
X425846Y-118475D02*
G54D16*
D03*
X450453Y-144668D02*
G54D16*
D03*
X424259Y-192690D02*
G54D16*
D03*
X424259Y-245872D02*
G54D16*
D03*
X424259Y-296672D02*
G54D16*
D03*
X527050Y-321278D02*
G54D16*
D03*
X579040Y-321278D02*
G54D16*
D03*
X632618Y-321278D02*
G54D16*
D03*
X680640Y-322865D02*
G54D16*
D03*
X706437Y-322865D02*
G54D16*
D03*
X806450Y-348662D02*
G54D16*
D03*
X757237Y-348662D02*
G54D16*
D03*
X708025Y-347472D02*
G54D16*
D03*
X656034Y-348662D02*
G54D16*
D03*
X604043Y-348662D02*
G54D16*
D03*
X527050Y-348662D02*
G54D16*
D03*
X476646Y-345884D02*
G54D16*
D03*
X427037Y-345884D02*
G54D16*
D03*
X808037Y-16081D02*
G54D16*
D03*
X808037Y-68072D02*
G54D16*
D03*
X806450Y-120062D02*
G54D16*
D03*
X781843Y-121253D02*
G54D16*
D03*
X781843Y-143478D02*
G54D16*
D03*
X806450Y-193881D02*
G54D16*
D03*
X806450Y-245872D02*
G54D16*
D03*
X806450Y-298259D02*
G54D16*
D03*
G54D17*
X-1081311Y-829311D02*
X-1075978Y-829311D01*
X-1075978Y-834866D01*
X-1077311Y-837089D01*
X-1079978Y-838200D01*
X-1082644Y-838200D01*
X-1085311Y-837089D01*
X-1086644Y-834866D01*
X-1086644Y-823755D01*
X-1085311Y-821533D01*
X-1082644Y-820422D01*
X-1079978Y-820422D01*
X-1077311Y-821533D01*
X-1075978Y-823755D01*
G54D17*
X-1071088Y-838200D02*
X-1071088Y-820422D01*
X-1060422Y-838200D01*
X-1060422Y-820422D01*
G54D17*
X-1055532Y-838200D02*
X-1055532Y-820422D01*
X-1048866Y-820422D01*
X-1046199Y-821533D01*
X-1044865Y-823755D01*
X-1044865Y-834866D01*
X-1046199Y-837089D01*
X-1048866Y-838200D01*
X-1055532Y-838200D01*
X899318Y75406D02*
G54D15*
D03*
X900509Y74010D02*
G54D16*
D03*
X908446Y-297862D02*
G54D16*
D03*
X343296Y-286147D02*
G54D15*
D03*
X342900Y-285353D02*
G54D16*
D03*
X284162Y-190103D02*
G54D15*
D03*
X283765Y-190103D02*
G54D16*
D03*
X15875Y-262731D02*
G54D15*
D03*
X17462Y-261540D02*
G54D16*
D03*
X187722Y-325437D02*
G54D15*
D03*
X187722Y-324644D02*
G54D16*
D03*
X175022Y-249634D02*
G54D15*
D03*
X175022Y-250031D02*
G54D16*
D03*
X13890Y-493315D02*
G54D15*
D03*
X182165Y-504825D02*
G54D15*
D03*
X157559Y-467122D02*
G54D15*
D03*
X17065Y-493315D02*
G54D16*
D03*
X157956Y-463947D02*
G54D16*
D03*
X182959Y-505618D02*
G54D16*
D03*
X20637Y-650875D02*
G54D15*
D03*
X188515Y-679053D02*
G54D15*
D03*
X178196Y-618331D02*
G54D15*
D03*
X21034Y-647700D02*
G54D16*
D03*
X182165Y-617140D02*
G54D16*
D03*
X185340Y-675084D02*
G54D16*
D03*
X440134Y-502047D02*
G54D15*
D03*
X438546Y-404812D02*
G54D15*
D03*
X286146Y-487759D02*
G54D15*
D03*
X442515Y-407987D02*
G54D16*
D03*
X443309Y-504825D02*
G54D16*
D03*
X286940Y-486568D02*
G54D16*
D03*
X435768Y-677862D02*
G54D15*
D03*
X428625Y-621506D02*
G54D15*
D03*
X269478Y-670718D02*
G54D15*
D03*
X268684Y-669131D02*
G54D16*
D03*
X429815Y-619522D02*
G54D16*
D03*
X436165Y-679450D02*
G54D18*
D03*
X478234Y-511968D02*
G54D15*
D03*
X648096Y-508794D02*
G54D15*
D03*
X635396Y-484981D02*
G54D15*
D03*
X478234Y-508794D02*
G54D16*
D03*
X640159Y-481806D02*
G54D16*
D03*
X648096Y-507206D02*
G54D16*
D03*
X767159Y-477044D02*
G54D15*
D03*
X827484Y-510381D02*
G54D15*
D03*
X814784Y-413544D02*
G54D15*
D03*
X771922Y-481806D02*
G54D16*
D03*
X829072Y-515144D02*
G54D16*
D03*
X814784Y-415131D02*
G54D19*
D03*
X485309Y-680431D02*
G54D15*
D03*
X654309Y-716606D02*
G54D15*
D03*
X637722Y-639606D02*
G54D15*
D03*
X486309Y-677431D02*
G54D16*
D03*
X639309Y-635431D02*
G54D16*
D03*
X652309Y-711431D02*
G54D16*
D03*
X779309Y-746431D02*
G54D15*
D03*
X827309Y-713431D02*
G54D15*
D03*
X799309Y-646431D02*
G54D15*
D03*
X779309Y-742431D02*
G54D16*
D03*
X830309Y-709431D02*
G54D16*
D03*
X-557691Y-617431D02*
G54D15*
D03*
X-558691Y-619431D02*
G54D16*
D03*
X-134691Y-93431D02*
G54D15*
D03*
X-152691Y-293431D02*
G54D15*
D03*
X-134691Y-96431D02*
G54D16*
D03*
X-151691Y-292431D02*
G54D16*
D03*
X-152691Y-54431D02*
G54D15*
D03*
X-50691Y-31431D02*
G54D15*
D03*
X-149691Y-55431D02*
G54D16*
D03*
X-47691Y-33431D02*
G54D16*
D03*
X-379691Y-180431D02*
G54D15*
D03*
X-380691Y-177431D02*
G54D16*
D03*
X-345691Y-281431D02*
G54D15*
D03*
X-347691Y-281431D02*
G54D16*
D03*
X-548691Y-77431D02*
G54D15*
D03*
X-552691Y-77431D02*
G54D16*
D03*
G54D20*
X-548691Y-77431D02*
X-550691Y-77431D01*
X-550691Y-85431D01*
X-534691Y-101431D01*
X-534691Y-109431D01*
X-510691Y-133431D01*
X-318691Y-133431D01*
X-310691Y-141431D01*
X-254691Y-141431D01*
X-246691Y-149431D01*
X-206691Y-149431D01*
X-190691Y-165431D01*
X-158691Y-165431D01*
X-78691Y-245431D01*
X33309Y-245431D01*
X49309Y-261431D01*
X57309Y-261431D01*
X65309Y-269431D01*
X313309Y-269431D01*
X329309Y-285431D01*
X345309Y-285431D01*
X343297Y-286147D01*
X-765691Y-217431D02*
G54D15*
D03*
X-843928Y-87018D02*
G54D15*
D03*
X-849691Y-87431D02*
G54D16*
D03*
X-765691Y-217431D02*
G54D16*
D03*
X-866691Y-30431D02*
G54D15*
D03*
X-1006691Y-130431D02*
G54D15*
D03*
X-1005691Y-130431D02*
G54D15*
D03*
X-1005691Y-129431D02*
G54D16*
D03*
X-864691Y-30431D02*
G54D16*
D03*
X-1097691Y-199431D02*
G54D15*
D03*
X-1005691Y-313431D02*
G54D15*
D03*
X-1097691Y-200431D02*
G54D16*
D03*
X-1006691Y-309431D02*
G54D16*
D03*
X-1003691Y-436431D02*
G54D15*
D03*
X-1106866Y-430431D02*
G54D15*
D03*
X-1110628Y-431431D02*
G54D16*
D03*
X-999691Y-439431D02*
G54D16*
D03*
X-996691Y-614431D02*
G54D15*
D03*
X-1001691Y-614431D02*
G54D16*
D03*
X-862691Y-621431D02*
G54D15*
D03*
X-863691Y-619431D02*
G54D16*
D03*
X-722691Y-643431D02*
G54D15*
D03*
X-725691Y-643431D02*
G54D16*
D03*
G54D20*
X-725691Y-643431D02*
X-727691Y-645431D01*
X-751691Y-621431D01*
X-863691Y-621431D01*
X-863691Y-619431D01*
G54D20*
X-863691Y-619431D02*
X-863691Y-621431D01*
X-895691Y-589431D01*
X-983691Y-589431D01*
X-999691Y-605431D01*
X-999691Y-613431D01*
X-1001691Y-614431D01*
X-860691Y-388431D02*
G54D15*
D03*
X-719691Y-452431D02*
G54D15*
D03*
X-720691Y-454431D02*
G54D16*
D03*
X-859691Y-389431D02*
G54D16*
D03*
X-837691Y-452431D02*
G54D15*
D03*
X-838691Y-453431D02*
G54D16*
D03*
X-860691Y-260431D02*
G54D15*
D03*
X-743866Y-341018D02*
G54D15*
D03*
X-861691Y-261431D02*
G54D16*
D03*
X-739691Y-334431D02*
G54D16*
D03*
X-567691Y-287431D02*
G54D15*
D03*
X-670691Y-256431D02*
G54D15*
D03*
X-672691Y-259431D02*
G54D16*
D03*
X-569691Y-286431D02*
G54D16*
D03*
X-478691Y-238431D02*
G54D15*
D03*
X-540691Y-295431D02*
G54D15*
D03*
X-540691Y-294431D02*
G54D16*
D03*
X-479691Y-236431D02*
G54D16*
D03*
G54D20*
X-540691Y-294431D02*
X-542691Y-293431D01*
X-534691Y-285431D01*
X-494691Y-285431D01*
X-478691Y-269431D01*
X-478691Y-237431D01*
X-478691Y-238431D01*
X-692866Y-698431D02*
G54D15*
D03*
X-583691Y-617431D02*
G54D15*
D03*
X-585691Y-619431D02*
G54D16*
D03*
X-689691Y-697431D02*
G54D16*
D03*
X-530691Y-618431D02*
G54D15*
D03*
X-531691Y-618431D02*
G54D16*
D03*
G54D20*
X-689691Y-697431D02*
X-687691Y-701431D01*
X-655691Y-669431D01*
X-615691Y-669431D01*
X-583691Y-637431D01*
X-583691Y-621431D01*
X-585691Y-619431D01*
G54D20*
X-584691Y-619431D02*
X-582691Y-621431D01*
X-558691Y-621431D01*
X-557691Y-619431D01*
G54D20*
X-531691Y-618431D02*
X-527691Y-621431D01*
X-559691Y-621431D01*
X-558691Y-619431D01*
X-574691Y-553431D02*
G54D15*
D03*
X-614691Y-556431D02*
G54D15*
D03*
X-575691Y-553431D02*
G54D16*
D03*
X-614691Y-558431D02*
G54D16*
D03*
X-649691Y-414431D02*
G54D15*
D03*
X-649691Y-416431D02*
G54D16*
D03*
G54D20*
X-649691Y-416431D02*
X-646691Y-413431D01*
X-614691Y-445431D01*
X-614691Y-557431D01*
X-613691Y-558431D01*
X-403691Y-591431D02*
G54D16*
D03*
G54D20*
X-403691Y-591431D02*
X-406691Y-589431D01*
X-430691Y-565431D01*
X-558691Y-565431D01*
X-566691Y-557431D01*
X-574691Y-557431D01*
X-575691Y-553431D01*
X-559691Y-387431D02*
G54D21*
D03*
X-379691Y-428431D02*
G54D15*
D03*
X-379691Y-427431D02*
G54D21*
D03*
G54D20*
X-379691Y-427431D02*
X-382691Y-429431D01*
X-398691Y-413431D01*
X-406691Y-413431D01*
X-414691Y-405431D01*
X-438691Y-405431D01*
X-446691Y-397431D01*
X-542691Y-397431D01*
X-550691Y-389431D01*
X-558691Y-389431D01*
X-559691Y-387431D01*
X271309Y-155431D02*
G54D15*
D03*
X275309Y-154431D02*
G54D21*
D03*
G54D20*
X275309Y-155431D02*
X273309Y-158431D01*
X289309Y-142431D01*
X377309Y-142431D01*
X393309Y-158431D01*
X433309Y-158431D01*
X449309Y-142431D01*
X451644Y-144272D01*
X348309Y-368431D02*
G54D15*
D03*
X345309Y-369431D02*
G54D21*
D03*
G54D20*
X345309Y-369431D02*
X345309Y-365431D01*
X337309Y-357431D01*
X337309Y-317431D01*
X361309Y-293431D01*
X361309Y-277431D01*
X360759Y-238918D01*
X321309Y-237431D01*
X305309Y-237431D01*
X297309Y-229431D01*
X297309Y-173431D01*
X281309Y-157431D01*
X273309Y-157431D01*
X275309Y-154431D01*
X274309Y-32431D02*
G54D15*
D03*
X275309Y-32431D02*
G54D19*
D03*
G54D20*
X275309Y-33431D02*
X273309Y-30431D01*
X409309Y-30431D01*
X417309Y-22431D01*
X425309Y-22431D01*
X427037Y-18462D01*
G54D20*
X900509Y74010D02*
X897309Y73569D01*
X873309Y49569D01*
X825309Y49569D01*
X809309Y33569D01*
X809228Y31941D01*
X231309Y-370431D02*
G54D15*
D03*
X231309Y-372431D02*
G54D22*
D03*
X-772691Y-834431D02*
G54D15*
D03*
X-774691Y-835431D02*
G54D22*
D03*
G54D20*
X-47691Y-33431D02*
X-46691Y-29431D01*
X-54691Y-29431D01*
X-62691Y-21431D01*
X-110691Y-21431D01*
X-142691Y-53431D01*
X-150691Y-53431D01*
X-149691Y-55431D01*
X-559691Y-752431D02*
G54D23*
D03*
X-533691Y-752431D02*
G54D23*
D03*
X-509691Y-752431D02*
G54D23*
D03*
X-327691Y-751431D02*
G54D23*
D03*
X-253691Y-752431D02*
G54D23*
D03*
X-177691Y-753431D02*
G54D23*
D03*
X-101691Y-751431D02*
G54D23*
D03*
X-24691Y-751431D02*
G54D23*
D03*
X210309Y-752431D02*
G54D23*
D03*
X286309Y-751431D02*
G54D23*
D03*
X337309Y-751431D02*
G54D23*
D03*
X361309Y-752431D02*
G54D23*
D03*
X438309Y-751431D02*
G54D23*
D03*
X516309Y-752431D02*
G54D23*
D03*
X715309Y-751431D02*
G54D23*
D03*
X689309Y-751431D02*
G54D23*
D03*
X665309Y-753431D02*
G54D23*
D03*
X-544691Y-808431D02*
G54D23*
D03*
X-520691Y-809431D02*
G54D23*
D03*
X-494691Y-809431D02*
G54D23*
D03*
X-342691Y-809431D02*
G54D23*
D03*
X-316691Y-807431D02*
G54D23*
D03*
X-264691Y-809431D02*
G54D23*
D03*
X-239691Y-809431D02*
G54D23*
D03*
X-187691Y-811431D02*
G54D23*
D03*
X-163691Y-811431D02*
G54D23*
D03*
X-112691Y-808431D02*
G54D23*
D03*
X-86691Y-808431D02*
G54D23*
D03*
X-34691Y-809431D02*
G54D23*
D03*
X-10691Y-809431D02*
G54D23*
D03*
X197309Y-809431D02*
G54D23*
D03*
X222309Y-809431D02*
G54D23*
D03*
X730309Y-809431D02*
G54D23*
D03*
X705309Y-808431D02*
G54D23*
D03*
X680309Y-809431D02*
G54D23*
D03*
X528309Y-809431D02*
G54D23*
D03*
X502309Y-808431D02*
G54D23*
D03*
X449309Y-809431D02*
G54D23*
D03*
X424309Y-811431D02*
G54D23*
D03*
X374309Y-809431D02*
G54D23*
D03*
X348309Y-809431D02*
G54D23*
D03*
X297309Y-809431D02*
G54D23*
D03*
X274309Y-808431D02*
G54D23*
D03*
G54D20*
X312309Y-269431D02*
X312309Y-237431D01*
G54D20*
X297309Y-193431D02*
X292309Y-193431D01*
G54D20*
X441309Y-138431D02*
X440309Y-138431D01*
X430309Y-128431D01*
G54D20*
X433309Y-111431D02*
X434309Y-111431D01*
X445309Y-100431D01*
G54D20*
X445309Y-86431D02*
X444309Y-86431D01*
X433309Y-75431D01*
G54D20*
X417309Y-184431D02*
X417309Y-182431D01*
X413309Y-178431D01*
X413309Y-160431D01*
X415309Y-158431D01*
G54D20*
X416309Y-201431D02*
X415309Y-201431D01*
X413309Y-203431D01*
X413309Y-232431D01*
X417309Y-236431D01*
G54D20*
X415309Y-254431D02*
X415309Y-255431D01*
X412309Y-258431D01*
X412309Y-285431D01*
X416309Y-289431D01*
G54D20*
X416309Y-305431D02*
X411309Y-310431D01*
X411309Y-333431D01*
X419484Y-341606D01*
G54D20*
X434309Y-338431D02*
X434309Y-336431D01*
X438896Y-335018D01*
X464309Y-333431D01*
X471309Y-340431D01*
G54D20*
X483309Y-339431D02*
X485309Y-339431D01*
X489309Y-335431D01*
X520309Y-335431D01*
X524309Y-339431D01*
X524309Y-334431D01*
X527896Y-329256D01*
G54D20*
X527309Y-330431D02*
X528309Y-330431D01*
X531309Y-333431D01*
X573309Y-333431D01*
X578309Y-328431D01*
G54D20*
X584309Y-327431D02*
X587309Y-327431D01*
X601309Y-341431D01*
G54D20*
X610309Y-343431D02*
X608959Y-343431D01*
X631484Y-322494D01*
G54D20*
X632372Y-317906D02*
X641896Y-334844D01*
X651309Y-347431D01*
G54D20*
X662309Y-345431D02*
X664309Y-345431D01*
X681309Y-328431D01*
G54D20*
X682309Y-323431D02*
X708309Y-323431D01*
G54D20*
X710309Y-324431D02*
X710309Y-347431D01*
X709309Y-348431D01*
G54D20*
X710309Y-352431D02*
X714309Y-352431D01*
X720309Y-358431D01*
X751309Y-358431D01*
X756309Y-353431D01*
G54D20*
X761309Y-354431D02*
X761309Y-355431D01*
X766309Y-360431D01*
X796309Y-360431D01*
X803309Y-353431D01*
G54D20*
X809959Y-347194D02*
X816309Y-341431D01*
X820309Y-337431D01*
X820309Y-310431D01*
X813309Y-303431D01*
G54D20*
X811309Y-289431D02*
X814309Y-289431D01*
X820309Y-283431D01*
X820309Y-260431D01*
X811309Y-251431D01*
G54D20*
X811309Y-238431D02*
X814309Y-238431D01*
X820309Y-232431D01*
X820309Y-204431D01*
X813309Y-197431D01*
G54D20*
X814309Y-184431D02*
X816309Y-184431D01*
X820309Y-180431D01*
X820309Y-136431D01*
X810309Y-126431D01*
G54D20*
X802309Y-127431D02*
X782309Y-127431D01*
X782309Y-141431D01*
X785309Y-144431D01*
G54D20*
X812309Y-113431D02*
X819309Y-106431D01*
X819309Y-78431D01*
X816309Y-75431D01*
G54D20*
X814309Y-62431D02*
X815309Y-62431D01*
X820309Y-57431D01*
X820309Y-22431D01*
X816309Y-18431D01*
G54D20*
X815309Y-9431D02*
X815309Y-6431D01*
X818309Y-3431D01*
X818309Y27569D01*
X815309Y30569D01*
G54D20*
X798309Y25569D02*
X797309Y25569D01*
X795309Y23569D01*
X771309Y23569D01*
X765309Y17569D01*
G54D20*
X771309Y24569D02*
X771309Y42569D01*
X760309Y53569D01*
G54D20*
X746309Y16569D02*
X746309Y17569D01*
X741309Y22569D01*
X717309Y22569D01*
X711309Y16569D01*
G54D20*
X697309Y19569D02*
X693309Y19569D01*
X690309Y22569D01*
X644309Y22569D01*
X638309Y28569D01*
G54D20*
X639309Y41569D02*
X639309Y56569D01*
G54D20*
X628309Y37569D02*
X613309Y37569D01*
X610309Y34569D01*
G54D20*
X606309Y27569D02*
X606309Y12569D01*
X606309Y25569D01*
X603309Y28569D01*
X602309Y28569D01*
X586309Y12569D01*
G54D20*
X574309Y17569D02*
X570309Y17569D01*
X566309Y21569D01*
X535309Y21569D01*
X530309Y16569D01*
G54D20*
X518309Y16569D02*
X513309Y16569D01*
X508309Y21569D01*
X492309Y21569D01*
X483309Y30569D01*
G54D20*
X470309Y24569D02*
X469309Y24569D01*
X466309Y21569D01*
X431309Y21569D01*
X426309Y26569D01*
G54D20*
X438309Y19569D02*
X438309Y-9431D01*
X433309Y-14431D01*
G54D20*
X433309Y-26431D02*
X438309Y-31431D01*
X438309Y-56431D01*
X431309Y-63431D01*
G54D20*
X819546Y-332581D02*
X867172Y-332581D01*
X908446Y-334168D01*
X908446Y-296068D01*
G54D20*
X814784Y-356394D02*
X814784Y-359568D01*
X819546Y-364331D01*
X819546Y-402431D01*
X813196Y-408781D01*
G54D20*
X765572Y-775494D02*
X765572Y-758031D01*
X775096Y-748506D01*
X775096Y-740568D01*
X808434Y-707231D01*
X829072Y-707231D01*
X832246Y-704056D01*
X833834Y-704056D01*
X846534Y-691356D01*
X846534Y-665956D01*
X824309Y-643731D01*
X824309Y-516731D01*
X824309Y-510381D01*
X810022Y-496094D01*
X786209Y-496094D01*
X778272Y-488156D01*
G54D20*
X810022Y-496094D02*
X810022Y-418306D01*
G54D20*
X648096Y-732631D02*
X648096Y-707231D01*
X652859Y-702468D01*
X652859Y-643731D01*
X641746Y-632618D01*
X641746Y-483394D01*
X646509Y-478631D01*
G54D20*
X490934Y-673894D02*
X484584Y-673894D01*
X478234Y-583406D01*
X462359Y-561181D01*
X462359Y-524668D01*
X478234Y-508794D01*
X449659Y-508794D01*
G54D20*
X435372Y-700881D02*
X435372Y-673894D01*
G54D20*
X481409Y-672306D02*
X481409Y-661194D01*
X436959Y-616744D01*
G54D20*
X260746Y-662781D02*
X235346Y-611981D01*
X244872Y-531018D01*
X286146Y-515144D01*
X286146Y-491331D01*
X289322Y-488156D01*
G54D20*
X284559Y-481806D02*
X284559Y-429418D01*
X233759Y-378618D01*
X233759Y-375444D01*
X190896Y-332581D01*
G54D20*
X182959Y-316706D02*
X182959Y-246856D01*
G54D20*
X-147241Y-292894D02*
X-9128Y-292894D01*
X17859Y-265906D01*
G54D20*
X-399654Y-591344D02*
X-394891Y-591344D01*
X-356791Y-553244D01*
X-356791Y-442118D01*
X-375841Y-423068D01*
G54D20*
X-579041Y-613568D02*
X-579041Y-558006D01*
G54D20*
X-588566Y-615156D02*
X-588566Y-613568D01*
X-606028Y-596106D01*
X-606028Y-564356D01*
X-610791Y-559594D01*
G54D20*
X-691754Y-692944D02*
X-691754Y-673894D01*
X-723504Y-642144D01*
G54D20*
X-1106091Y-431006D02*
X-1094978Y-431006D01*
X-1088628Y-424656D01*
X-1088628Y-346868D01*
X-1101328Y-334168D01*
X-1106091Y-270668D01*
X-1101328Y-207168D01*
X-1098154Y-203994D01*
G54D20*
X-1099741Y-199231D02*
X-1099741Y-148431D01*
X-1093391Y-142081D01*
X-1012428Y-142081D01*
X-1002904Y-132556D01*
G54D20*
X-1104504Y-281781D02*
X-1034654Y-281781D01*
X-1012428Y-304006D01*
G54D20*
X-1103691Y-430431D02*
X-1106091Y-427831D01*
X-1010841Y-427831D01*
X-1004491Y-434181D01*
X-1003691Y-436431D01*
G54D20*
X-540691Y-295431D02*
X-540941Y-294481D01*
X-515541Y-269081D01*
X-515541Y-97631D01*
X-521891Y-91281D01*
X-540941Y-91281D01*
X-547291Y-84931D01*
X-547291Y-78581D01*
X-548691Y-77431D01*
G54D20*
X-569691Y-286431D02*
X-572691Y-288131D01*
X-604441Y-256381D01*
X-667941Y-256381D01*
X-670691Y-256431D01*
G54D20*
X-670691Y-256431D02*
X-667941Y-256381D01*
X-686991Y-237331D01*
X-686991Y-224631D01*
X-693341Y-218281D01*
X-763191Y-218281D01*
X-765691Y-217431D01*
G54D20*
X-860691Y-260431D02*
X-858441Y-262731D01*
X-826691Y-230981D01*
X-794941Y-230981D01*
X-782241Y-218281D01*
X-763191Y-218281D01*
X-765691Y-217431D01*
G54D20*
X-860691Y-260431D02*
X-858441Y-262731D01*
X-852091Y-256381D01*
X-852091Y-84931D01*
X-849691Y-87431D01*
G54D20*
X-1005691Y-130431D02*
X-1004491Y-129381D01*
X-960041Y-84931D01*
X-921941Y-84931D01*
X-864791Y-27781D01*
X-866691Y-30431D01*
G54D20*
X-866691Y-30431D02*
X-864791Y-27781D01*
X-845741Y-46831D01*
X-845741Y-84931D01*
X-848691Y-85431D01*
G54D20*
X-564754Y-289718D02*
X-545704Y-289718D01*
X-544116Y-291306D01*
G54D20*
X-739691Y-334431D02*
X-737791Y-332581D01*
X-790178Y-256381D01*
X-858441Y-262731D01*
X-860691Y-260431D01*
G54D20*
X-739691Y-334431D02*
X-737791Y-332581D01*
X-731441Y-338931D01*
X-731441Y-427831D01*
X-718741Y-440531D01*
X-718741Y-453231D01*
X-720691Y-454431D01*
G54D20*
X-837691Y-452431D02*
X-839391Y-453231D01*
X-826691Y-465931D01*
X-769541Y-465931D01*
X-756841Y-453231D01*
X-718741Y-453231D01*
X-720691Y-454431D01*
G54D20*
X-859691Y-389431D02*
X-858441Y-389731D01*
X-864791Y-396081D01*
X-890191Y-396081D01*
X-896541Y-389731D01*
X-972741Y-389731D01*
X-998141Y-415131D01*
X-998141Y-440531D01*
X-999691Y-439431D01*
G54D20*
X-718741Y-442118D02*
X-666354Y-442118D01*
X-647304Y-423068D01*
G54D20*
X-478691Y-238431D02*
X-477441Y-237331D01*
X-471091Y-230981D01*
X-458391Y-230981D01*
X-452041Y-224631D01*
X-439341Y-224631D01*
X-407591Y-192881D01*
X-394891Y-192881D01*
X-382191Y-180181D01*
X-379691Y-180431D01*
G54D20*
X-345691Y-281431D02*
X-344091Y-281781D01*
X-350441Y-275431D01*
X-350441Y-192881D01*
X-363141Y-180181D01*
X-382191Y-180181D01*
X-379691Y-180431D01*
G54D20*
X-379691Y-428431D02*
X-382191Y-427831D01*
X-356791Y-402431D01*
X-356791Y-338931D01*
X-344091Y-326231D01*
X-344091Y-281781D01*
X-345691Y-281431D01*
G54D20*
X-552691Y-77431D02*
X-553641Y-78581D01*
X-540941Y-91281D01*
X-521891Y-91281D01*
X-502841Y-110331D01*
X-426641Y-110331D01*
X-420291Y-116681D01*
X-159941Y-116681D01*
X-134541Y-91281D01*
X-134691Y-93431D01*
G54D20*
X-149691Y-55431D02*
X-147241Y-53181D01*
X-134541Y-65881D01*
X-134541Y-97631D01*
X-134691Y-96431D01*
G54D20*
X274309Y-32431D02*
X271859Y-34131D01*
X240109Y-2381D01*
X43259Y-2381D01*
X11509Y-34131D01*
X-45641Y-34131D01*
X-47691Y-33431D01*
G54D20*
X231309Y-370431D02*
X233759Y-370681D01*
X157559Y-446881D01*
X157559Y-465931D01*
X157559Y-467122D01*
G54D20*
X157559Y-467122D02*
X157559Y-465931D01*
X151209Y-472281D01*
X151209Y-478631D01*
X138509Y-491331D01*
X17859Y-491331D01*
X18653Y-493315D01*
G54D20*
X157559Y-467122D02*
X157559Y-465931D01*
X170259Y-465931D01*
X182959Y-478631D01*
X182959Y-504031D01*
X182165Y-504825D01*
G54D20*
X20637Y-650875D02*
X21034Y-650081D01*
X14684Y-643731D01*
X14684Y-491331D01*
X15478Y-493315D01*
G54D20*
X178197Y-618331D02*
X176609Y-618331D01*
X144859Y-650081D01*
X24209Y-650081D01*
X23812Y-650875D01*
G54D20*
X185340Y-675084D02*
X182959Y-675481D01*
X208359Y-650081D01*
X208359Y-631031D01*
X195659Y-618331D01*
X182959Y-618331D01*
X182165Y-617140D01*
G54D20*
X268684Y-669131D02*
X265509Y-669131D01*
X259159Y-662781D01*
X195659Y-662781D01*
X189309Y-669131D01*
X189309Y-681831D01*
X188515Y-679053D01*
G54D20*
X22622Y-254794D02*
X22622Y-245268D01*
G54D20*
X438547Y-404812D02*
X436959Y-402431D01*
X436959Y-408781D01*
X430609Y-415131D01*
X417909Y-415131D01*
X398859Y-413544D01*
X392509Y-407194D01*
X386159Y-389731D01*
X386159Y-364331D01*
X392509Y-357981D01*
X411559Y-357981D01*
X424259Y-345281D01*
X426244Y-346472D01*
G54D20*
X442515Y-407987D02*
X443309Y-408781D01*
X449659Y-415131D01*
X449659Y-491331D01*
X443309Y-497681D01*
X443309Y-504031D01*
X440134Y-502047D01*
G54D20*
X719534Y-753268D02*
X663972Y-753268D01*
G54D20*
X733822Y-808831D02*
X679846Y-808831D01*
G54D20*
X522684Y-810418D02*
X506809Y-810418D01*
X503634Y-813594D01*
G54D20*
X449659Y-812006D02*
X422672Y-812006D01*
G54D20*
X375046Y-808831D02*
X346472Y-808831D01*
X344884Y-807244D01*
G54D20*
X297259Y-807244D02*
X276622Y-807244D01*
X273446Y-810418D01*
G54D20*
X221059Y-808831D02*
X195659Y-808831D01*
G54D20*
X360759Y-751681D02*
X340122Y-751681D01*
X338534Y-753268D01*
G54D20*
X-7541Y-807244D02*
X-40878Y-807244D01*
G54D20*
X-83741Y-808831D02*
X-117078Y-808831D01*
G54D20*
X-161528Y-808831D02*
X-194866Y-808831D01*
G54D20*
X-240904Y-812006D02*
X-263128Y-812006D01*
X-266304Y-808831D01*
G54D20*
X-313928Y-807244D02*
X-339328Y-807244D01*
X-342504Y-810418D01*
X-342504Y-808831D01*
G54D20*
X-491728Y-810418D02*
X-548878Y-810418D01*
G54D20*
X-509191Y-748506D02*
X-555228Y-748506D01*
X-561578Y-754856D01*
G54D20*
X-545230Y-809436D02*
X-547291Y-808831D01*
X-553641Y-802481D01*
X-566341Y-802481D01*
X-572691Y-796131D01*
X-572691Y-783431D01*
X-559991Y-770731D01*
X-559991Y-751681D01*
X-558800Y-752079D01*
G54D20*
X-330200Y-752079D02*
X-331391Y-751681D01*
X-344091Y-738981D01*
X-490141Y-738981D01*
X-502841Y-751681D01*
X-509191Y-751681D01*
X-508000Y-752079D01*
G54D20*
X-254000Y-752079D02*
X-255191Y-751681D01*
X-267891Y-738981D01*
X-312341Y-738981D01*
X-325041Y-751681D01*
X-331391Y-751681D01*
X-330200Y-752079D01*
G54D20*
X-177800Y-752079D02*
X-178991Y-751681D01*
X-191691Y-738981D01*
X-236141Y-738981D01*
X-248841Y-751681D01*
X-255191Y-751681D01*
X-254000Y-752079D01*
G54D20*
X-101600Y-752079D02*
X-102791Y-751681D01*
X-115491Y-738981D01*
X-159941Y-738981D01*
X-172641Y-751681D01*
X-178991Y-751681D01*
X-177800Y-752079D01*
G54D20*
X-25400Y-752079D02*
X-26591Y-751681D01*
X-39291Y-738981D01*
X-83741Y-738981D01*
X-96441Y-751681D01*
X-102791Y-751681D01*
X-101600Y-752079D01*
G54D20*
X-342030Y-809436D02*
X-344091Y-808831D01*
X-356791Y-821531D01*
X-477441Y-821531D01*
X-490141Y-808831D01*
X-496491Y-808831D01*
X-494430Y-809436D01*
G54D20*
X-265830Y-809436D02*
X-267891Y-808831D01*
X-280591Y-821531D01*
X-299641Y-821531D01*
X-312341Y-808831D01*
X-318691Y-808831D01*
X-316630Y-809436D01*
G54D20*
X-189630Y-809436D02*
X-191691Y-808831D01*
X-204391Y-821531D01*
X-223441Y-821531D01*
X-236141Y-808831D01*
X-242491Y-808831D01*
X-240430Y-809436D01*
G54D20*
X-113431Y-809436D02*
X-115491Y-808831D01*
X-128191Y-821531D01*
X-147241Y-821531D01*
X-159941Y-808831D01*
X-166291Y-808831D01*
X-164230Y-809436D01*
G54D20*
X-37230Y-809436D02*
X-39291Y-808831D01*
X-51991Y-821531D01*
X-71041Y-821531D01*
X-83741Y-808831D01*
X-90091Y-808831D01*
X-88031Y-809436D01*
G54D20*
X273920Y-809436D02*
X271859Y-808831D01*
X259159Y-821531D01*
X240109Y-821531D01*
X227409Y-808831D01*
X221059Y-808831D01*
X223120Y-809436D01*
G54D20*
X350120Y-809436D02*
X348059Y-808831D01*
X335359Y-821531D01*
X316309Y-821531D01*
X303609Y-808831D01*
X297259Y-808831D01*
X299320Y-809436D01*
G54D20*
X426320Y-809436D02*
X424259Y-808831D01*
X411559Y-821531D01*
X392509Y-821531D01*
X379809Y-808831D01*
X373459Y-808831D01*
X375520Y-809436D01*
G54D20*
X502520Y-809436D02*
X500459Y-808831D01*
X487759Y-821531D01*
X468709Y-821531D01*
X456009Y-808831D01*
X449659Y-808831D01*
X451720Y-809436D01*
G54D20*
X680319Y-809436D02*
X678259Y-808831D01*
X665559Y-821531D01*
X544909Y-821531D01*
X532209Y-808831D01*
X525859Y-808831D01*
X527919Y-809436D01*
G54D20*
X514350Y-752079D02*
X513159Y-751681D01*
X500459Y-738981D01*
X456009Y-738981D01*
X443309Y-751681D01*
X436959Y-751681D01*
X438150Y-752079D01*
G54D20*
X336550Y-752079D02*
X335359Y-751681D01*
X322659Y-738981D01*
X322659Y-732631D01*
X316309Y-726281D01*
X303609Y-726281D01*
X284559Y-745331D01*
X284559Y-751681D01*
X285750Y-752079D01*
G54D20*
X285750Y-752079D02*
X284559Y-751681D01*
X271859Y-738981D01*
X227409Y-738981D01*
X214709Y-751681D01*
X208359Y-751681D01*
X209550Y-752079D01*
G54D20*
X438150Y-752079D02*
X436959Y-751681D01*
X456009Y-732631D01*
X456009Y-713581D01*
X449659Y-707231D01*
X411559Y-707231D01*
X405209Y-713581D01*
X405209Y-726281D01*
X392509Y-738981D01*
X379809Y-738981D01*
X367109Y-751681D01*
X360759Y-751681D01*
X361950Y-752079D01*
G54D20*
X-557691Y-617431D02*
X-559991Y-618331D01*
X-547291Y-631031D01*
X-344091Y-631031D01*
X-331391Y-643731D01*
X-51991Y-643731D01*
X-45641Y-650081D01*
X75009Y-650081D01*
X81359Y-656431D01*
X100409Y-656431D01*
X106759Y-662781D01*
X208359Y-662781D01*
X240109Y-694531D01*
X367109Y-694531D01*
X398859Y-662781D01*
X443309Y-662781D01*
X449659Y-669131D01*
X456009Y-669131D01*
X494109Y-707231D01*
X538559Y-707231D01*
X544909Y-713581D01*
X557609Y-713581D01*
X583009Y-738981D01*
X652859Y-738981D01*
X659209Y-732631D01*
X678259Y-732631D01*
X684609Y-726281D01*
X716359Y-726281D01*
X754459Y-764381D01*
X805259Y-764381D01*
X811609Y-770731D01*
X843359Y-770731D01*
X875109Y-802481D01*
X900509Y-802481D01*
X900906Y-791363D01*
G54D20*
X721122Y-743744D02*
X721122Y-742156D01*
X725884Y-737394D01*
G54D20*
X657622Y-748506D02*
X657622Y-745331D01*
X651272Y-738981D01*
G54D20*
X736996Y-804068D02*
X765572Y-775494D01*
G54D20*
X197720Y-809436D02*
X195659Y-808831D01*
X163909Y-840581D01*
X106759Y-840581D01*
X87709Y-821531D01*
X5159Y-821531D01*
X-7541Y-808831D01*
X-13891Y-808831D01*
X-11830Y-809436D01*
G54D20*
X-774691Y-835431D02*
X-775891Y-834231D01*
X-750491Y-808831D01*
X-686991Y-808831D01*
X-680641Y-815181D01*
X-604441Y-815181D01*
X-598091Y-808831D01*
X-547291Y-808831D01*
X-545230Y-809436D01*
G54D20*
X-837691Y-452431D02*
X-839391Y-453231D01*
X-858441Y-434181D01*
X-858441Y-389731D01*
X-859691Y-389431D01*
G54D20*
X-1004491Y-610394D02*
X-1004491Y-446881D01*
X-999728Y-442118D01*
G54D20*
X-867966Y-615156D02*
X-867966Y-570706D01*
X-872728Y-553244D01*
X-883841Y-456406D01*
X-858441Y-431006D01*
G54D20*
X648096Y-738981D02*
X648096Y-729456D01*
G54D20*
X435372Y-707231D02*
X435372Y-699294D01*
G54D20*
X435372Y-670718D02*
X435372Y-662781D01*
X800496Y-650081D02*
G54D23*
D03*
G54D20*
X806846Y-643731D02*
X814784Y-643731D01*
X822722Y-635794D01*
X341709Y-251618D02*
G54D15*
D03*
X-591741Y-81756D02*
G54D15*
D03*
X490934Y-605631D02*
G54D15*
D03*
X513159Y-627856D02*
G54D15*
D03*
X292496Y-564356D02*
G54D15*
D03*
X267096Y-562768D02*
G54D15*
D03*
X295672Y-411956D02*
G54D15*
D03*
X251222Y-418306D02*
G54D15*
D03*
X694134Y-480218D02*
G54D15*
D03*
X749696Y-748506D02*
G54D15*
D03*
X686196Y-615156D02*
G54D15*
D03*
X24209Y-569118D02*
G54D15*
D03*
X49609Y-618331D02*
G54D15*
D03*
X484584Y-431006D02*
G54D15*
D03*
X511572Y-410368D02*
G54D15*
D03*
X21034Y-419894D02*
G54D15*
D03*
X54372Y-467518D02*
G54D15*
D03*
X40084Y-181768D02*
G54D15*
D03*
X13096Y-189706D02*
G54D15*
D03*
X-136128Y-199231D02*
G54D15*
D03*
X-9128Y2382D02*
G54D15*
D03*
X-125016Y-794D02*
G54D15*
D03*
X-331391Y59532D02*
G54D15*
D03*
X-302816Y-151606D02*
G54D15*
D03*
X-317104Y-292894D02*
G54D15*
D03*
X-332978Y-156368D02*
G54D15*
D03*
X-534591Y-8731D02*
G54D15*
D03*
X-844154Y-164306D02*
G54D15*
D03*
X-720328Y-142081D02*
G54D15*
D03*
X-893366Y-34131D02*
G54D15*
D03*
X-983854Y-16668D02*
G54D15*
D03*
X-980678Y-200818D02*
G54D15*
D03*
X-1096566Y-273844D02*
G54D15*
D03*
X-860028Y-459581D02*
G54D15*
D03*
X-837804Y-394494D02*
G54D15*
D03*
X-861616Y-540544D02*
G54D15*
D03*
X-836216Y-545306D02*
G54D15*
D03*
X-817166Y-286544D02*
G54D15*
D03*
X-861616Y-330994D02*
G54D15*
D03*
X-1106091Y-396081D02*
G54D15*
D03*
X-980678Y-383381D02*
G54D15*
D03*
X-885428Y-542131D02*
G54D15*
D03*
X-979091Y-564356D02*
G54D15*
D03*
X-758428Y-394494D02*
G54D15*
D03*
X-796528Y-350044D02*
G54D15*
D03*
X-812404Y-351631D02*
G54D15*
D03*
X-828278Y-431006D02*
G54D15*
D03*
X-812404Y-351631D02*
G54D23*
D03*
X-799704Y-351631D02*
G54D23*
D03*
X-756841Y-392906D02*
G54D23*
D03*
G54D20*
X-812403Y-351631D02*
X-813991Y-351631D01*
X-852091Y-389731D01*
X-858441Y-389731D01*
X-860691Y-388431D01*
G54D20*
X-799703Y-351631D02*
X-801291Y-351631D01*
X-756841Y-396081D01*
X-758429Y-394493D01*
G54D20*
X-758429Y-394493D02*
X-756841Y-396081D01*
X-744141Y-383381D01*
X-744141Y-338931D01*
X-743866Y-341019D01*
X-677466Y-337344D02*
G54D15*
D03*
X-644128Y-286544D02*
G54D15*
D03*
X-567928Y-184944D02*
G54D15*
D03*
X-594916Y-227806D02*
G54D15*
D03*
X-583804Y-686594D02*
G54D15*
D03*
X-531416Y-688181D02*
G54D15*
D03*
X-691754Y-645318D02*
G54D15*
D03*
X-556816Y-688181D02*
G54D15*
D03*
X-690166Y-504031D02*
G54D15*
D03*
X271859Y-121444D02*
G54D15*
D03*
X265509Y-364331D02*
G54D15*
D03*
X848122Y61119D02*
G54D15*
D03*
X883046Y-324644D02*
G54D15*
D03*
X275034Y8732D02*
G54D15*
D03*
X-463154Y-329406D02*
G54D15*
D03*
X-772716Y-746918D02*
G54D15*
D03*
X71834Y62706D02*
G54D15*
D03*
X-430212Y-618331D02*
G54D15*
D03*
X-430212Y-615950D02*
G54D23*
D03*
G54D20*
X-430213Y-618331D02*
X-431800Y-615950D01*
X-406400Y-590550D01*
X-403225Y-590425D01*
X-390525Y-640556D02*
G54D15*
D03*
X-480219Y-617538D02*
G54D15*
D03*
X-113506Y-182562D02*
G54D15*
D03*
X647700Y-200819D02*
G54D15*
D03*
X899319Y-791369D02*
G54D15*
D03*
X822325Y-733425D02*
G54D15*
D03*
X18256Y-734219D02*
G54D15*
D03*
X895350Y-634206D02*
G54D15*
D03*
X498475Y-700088D02*
G54D15*
D03*
X498475Y-700088D02*
G54D24*
D03*
X-962422Y-320278D02*
G54D15*
D03*
%LPD*%
G36*
X-1053612Y68725D02*
X-1038412Y68725D01*
X-1038412Y53525D01*
X-1053612Y53525D01*
X-1053612Y68725D01*
G37*
X-1020612Y61125D02*
G54D25*
D03*
X-995212Y61125D02*
G54D25*
D03*
X-969812Y61125D02*
G54D25*
D03*
G36*
X-893425Y69638D02*
X-878225Y69638D01*
X-878225Y54438D01*
X-893425Y54438D01*
X-893425Y69638D01*
G37*
X-860425Y62038D02*
G54D25*
D03*
X-835025Y62038D02*
G54D25*
D03*
G36*
X60675Y14062D02*
X72675Y14062D01*
X72675Y2062D01*
X60675Y2062D01*
X60675Y14062D01*
G37*
X92075Y8062D02*
G54D26*
D03*
X117475Y8062D02*
G54D26*
D03*
X142875Y8062D02*
G54D26*
D03*
X168275Y8062D02*
G54D26*
D03*
X193675Y8062D02*
G54D26*
D03*
X219075Y8062D02*
G54D26*
D03*
X244475Y8062D02*
G54D26*
D03*
G36*
X60675Y-25625D02*
X72675Y-25625D01*
X72675Y-37625D01*
X60675Y-37625D01*
X60675Y-25625D01*
G37*
X92075Y-31625D02*
G54D26*
D03*
X117475Y-31625D02*
G54D26*
D03*
X142875Y-31625D02*
G54D26*
D03*
X168275Y-31625D02*
G54D26*
D03*
X193675Y-31625D02*
G54D26*
D03*
X219075Y-31625D02*
G54D26*
D03*
X244475Y-31625D02*
G54D26*
D03*
G36*
X60675Y-65312D02*
X72675Y-65312D01*
X72675Y-77312D01*
X60675Y-77312D01*
X60675Y-65312D01*
G37*
X92075Y-71312D02*
G54D26*
D03*
X117475Y-71312D02*
G54D26*
D03*
X142875Y-71312D02*
G54D26*
D03*
X168275Y-71312D02*
G54D26*
D03*
X193675Y-71312D02*
G54D26*
D03*
X219075Y-71312D02*
G54D26*
D03*
X244475Y-71312D02*
G54D26*
D03*
X269875Y-71312D02*
G54D26*
D03*
X295275Y-71312D02*
G54D26*
D03*
G36*
X60675Y-106588D02*
X72675Y-106588D01*
X72675Y-118588D01*
X60675Y-118588D01*
X60675Y-106588D01*
G37*
X92075Y-112588D02*
G54D26*
D03*
X117475Y-112588D02*
G54D26*
D03*
X142875Y-112588D02*
G54D26*
D03*
X168275Y-112588D02*
G54D26*
D03*
X193675Y-112588D02*
G54D26*
D03*
X219075Y-112588D02*
G54D26*
D03*
X244475Y-112588D02*
G54D26*
D03*
G36*
X60675Y-147862D02*
X72675Y-147862D01*
X72675Y-159862D01*
X60675Y-159862D01*
X60675Y-147862D01*
G37*
X92075Y-153862D02*
G54D26*
D03*
X117475Y-153862D02*
G54D26*
D03*
X142875Y-153862D02*
G54D26*
D03*
X168275Y-153862D02*
G54D26*
D03*
X193675Y-153862D02*
G54D26*
D03*
X219075Y-153862D02*
G54D26*
D03*
X244475Y-153862D02*
G54D26*
D03*
G36*
X-95600Y-380525D02*
X-107600Y-380525D01*
X-107600Y-368525D01*
X-95600Y-368525D01*
X-95600Y-380525D01*
G37*
X-127000Y-374525D02*
G54D26*
D03*
X-152400Y-374525D02*
G54D26*
D03*
X-177800Y-374525D02*
G54D26*
D03*
X-203200Y-374525D02*
G54D26*
D03*
X-228600Y-374525D02*
G54D26*
D03*
X-254000Y-374525D02*
G54D26*
D03*
X-279400Y-374525D02*
G54D26*
D03*
X-304800Y-374525D02*
G54D26*
D03*
X-330200Y-374525D02*
G54D26*
D03*
G36*
X-95600Y-483712D02*
X-107600Y-483712D01*
X-107600Y-471712D01*
X-95600Y-471712D01*
X-95600Y-483712D01*
G37*
X-127000Y-477712D02*
G54D26*
D03*
X-152400Y-477712D02*
G54D26*
D03*
X-177800Y-477712D02*
G54D26*
D03*
X-203200Y-477712D02*
G54D26*
D03*
X-228600Y-477712D02*
G54D26*
D03*
X-254000Y-477712D02*
G54D26*
D03*
X-279400Y-477712D02*
G54D26*
D03*
X-304800Y-477712D02*
G54D26*
D03*
X-330200Y-477712D02*
G54D26*
D03*
G36*
X-95600Y-582138D02*
X-107600Y-582138D01*
X-107600Y-570138D01*
X-95600Y-570138D01*
X-95600Y-582138D01*
G37*
X-127000Y-576138D02*
G54D26*
D03*
X-152400Y-576138D02*
G54D26*
D03*
X-177800Y-576138D02*
G54D26*
D03*
X-203200Y-576138D02*
G54D26*
D03*
X-228600Y-576138D02*
G54D26*
D03*
X-254000Y-576138D02*
G54D26*
D03*
X-279400Y-576138D02*
G54D26*
D03*
X-304800Y-576138D02*
G54D26*
D03*
X-330200Y-576138D02*
G54D26*
D03*
G36*
X-97188Y-431325D02*
X-109188Y-431325D01*
X-109188Y-419325D01*
X-97188Y-419325D01*
X-97188Y-431325D01*
G37*
X-128588Y-425325D02*
G54D26*
D03*
X-153988Y-425325D02*
G54D26*
D03*
X-179388Y-425325D02*
G54D26*
D03*
X-204788Y-425325D02*
G54D26*
D03*
X-230188Y-425325D02*
G54D26*
D03*
X-255588Y-425325D02*
G54D26*
D03*
X-280988Y-425325D02*
G54D26*
D03*
G36*
X-95600Y-531338D02*
X-107600Y-531338D01*
X-107600Y-519338D01*
X-95600Y-519338D01*
X-95600Y-531338D01*
G37*
X-127000Y-525338D02*
G54D26*
D03*
X-152400Y-525338D02*
G54D26*
D03*
X-177800Y-525338D02*
G54D26*
D03*
X-203200Y-525338D02*
G54D26*
D03*
X-228600Y-525338D02*
G54D26*
D03*
X-254000Y-525338D02*
G54D26*
D03*
X-279400Y-525338D02*
G54D26*
D03*
G36*
X-95600Y-632938D02*
X-107600Y-632938D01*
X-107600Y-620938D01*
X-95600Y-620938D01*
X-95600Y-632938D01*
G37*
X-127000Y-626938D02*
G54D26*
D03*
X-152400Y-626938D02*
G54D26*
D03*
X-177800Y-626938D02*
G54D26*
D03*
X-203200Y-626938D02*
G54D26*
D03*
X-228600Y-626938D02*
G54D26*
D03*
X-254000Y-626938D02*
G54D26*
D03*
X-279400Y-626938D02*
G54D26*
D03*
X-406400Y-463425D02*
G54D27*
D03*
X-558800Y-463425D02*
G54D27*
D03*
X-558800Y-387225D02*
G54D27*
D03*
X-406400Y-387225D02*
G54D27*
D03*
G36*
X-562625Y-583425D02*
X-548625Y-583425D01*
X-548625Y-597425D01*
X-562625Y-597425D01*
X-562625Y-583425D01*
G37*
X-530225Y-590425D02*
G54D28*
D03*
X-504825Y-590425D02*
G54D28*
D03*
X-479425Y-590425D02*
G54D28*
D03*
X-454025Y-590425D02*
G54D28*
D03*
X-428625Y-590425D02*
G54D28*
D03*
X-403225Y-590425D02*
G54D28*
D03*
X-403225Y-514225D02*
G54D28*
D03*
X-428625Y-514225D02*
G54D28*
D03*
X-454025Y-514225D02*
G54D28*
D03*
X-479425Y-514225D02*
G54D28*
D03*
X-504825Y-514225D02*
G54D28*
D03*
X-530225Y-514225D02*
G54D28*
D03*
X-555625Y-514225D02*
G54D28*
D03*
G36*
X867919Y-633063D02*
X867919Y-621063D01*
X879919Y-621063D01*
X879919Y-633063D01*
X867919Y-633063D01*
G37*
X873919Y-601663D02*
G54D26*
D03*
X873919Y-576263D02*
G54D26*
D03*
X873919Y-550863D02*
G54D26*
D03*
X873919Y-525463D02*
G54D26*
D03*
X873919Y-500063D02*
G54D26*
D03*
X873919Y-474663D02*
G54D26*
D03*
X873919Y-449263D02*
G54D26*
D03*
X873919Y-423863D02*
G54D26*
D03*
X873919Y-398463D02*
G54D26*
D03*
G36*
X903241Y-633460D02*
X903241Y-621460D01*
X915241Y-621460D01*
X915241Y-633460D01*
X903241Y-633460D01*
G37*
X909241Y-602060D02*
G54D26*
D03*
X909241Y-576660D02*
G54D26*
D03*
X909241Y-551260D02*
G54D26*
D03*
X909241Y-525860D02*
G54D26*
D03*
X909241Y-500460D02*
G54D26*
D03*
X909241Y-475060D02*
G54D26*
D03*
X909241Y-449660D02*
G54D26*
D03*
X909241Y-424260D02*
G54D26*
D03*
X909241Y-398860D02*
G54D26*
D03*
G36*
X902447Y-302069D02*
X902447Y-290069D01*
X914447Y-290069D01*
X914447Y-302069D01*
X902447Y-302069D01*
G37*
X908447Y-270669D02*
G54D26*
D03*
X908447Y-245269D02*
G54D26*
D03*
X908447Y-219869D02*
G54D26*
D03*
X908447Y-194469D02*
G54D26*
D03*
X908447Y-169069D02*
G54D26*
D03*
X908447Y-143669D02*
G54D26*
D03*
X908447Y-118269D02*
G54D26*
D03*
X908447Y-92869D02*
G54D26*
D03*
X908447Y-67469D02*
G54D26*
D03*
G36*
X873872Y-301276D02*
X873872Y-289276D01*
X885872Y-289276D01*
X885872Y-301276D01*
X873872Y-301276D01*
G37*
X879872Y-269876D02*
G54D26*
D03*
X879872Y-244476D02*
G54D26*
D03*
X879872Y-219076D02*
G54D26*
D03*
X879872Y-193676D02*
G54D26*
D03*
X879872Y-168276D02*
G54D26*
D03*
X879872Y-142876D02*
G54D26*
D03*
X879872Y-117476D02*
G54D26*
D03*
G36*
X-655300Y-387291D02*
X-640100Y-387291D01*
X-640100Y-402491D01*
X-655300Y-402491D01*
X-655300Y-387291D01*
G37*
X-622300Y-394891D02*
G54D25*
D03*
X400844Y59928D02*
G54D28*
D03*
X426244Y59928D02*
G54D28*
D03*
X451644Y59928D02*
G54D28*
D03*
X477044Y59928D02*
G54D28*
D03*
X502444Y59928D02*
G54D28*
D03*
X527844Y59928D02*
G54D28*
D03*
X553244Y59928D02*
G54D28*
D03*
X578644Y59928D02*
G54D28*
D03*
X604044Y59928D02*
G54D28*
D03*
X629444Y59928D02*
G54D28*
D03*
X654844Y59928D02*
G54D28*
D03*
X680244Y59928D02*
G54D28*
D03*
X705644Y59928D02*
G54D28*
D03*
X731044Y59928D02*
G54D28*
D03*
X756444Y59928D02*
G54D28*
D03*
X781845Y59928D02*
G54D28*
D03*
X807245Y59928D02*
G54D28*
D03*
X400844Y34528D02*
G54D28*
D03*
X426244Y34528D02*
G54D28*
D03*
X451644Y34528D02*
G54D28*
D03*
X477044Y34528D02*
G54D28*
D03*
X502444Y34528D02*
G54D28*
D03*
X527844Y34528D02*
G54D28*
D03*
X553244Y34528D02*
G54D28*
D03*
X578644Y34528D02*
G54D28*
D03*
X604044Y34528D02*
G54D28*
D03*
X629444Y34528D02*
G54D28*
D03*
X654844Y34528D02*
G54D28*
D03*
X680244Y34528D02*
G54D28*
D03*
X705644Y34528D02*
G54D28*
D03*
X731044Y34528D02*
G54D28*
D03*
X756444Y34528D02*
G54D28*
D03*
X781845Y34528D02*
G54D28*
D03*
X807245Y34528D02*
G54D28*
D03*
X832645Y34528D02*
G54D28*
D03*
X400844Y9128D02*
G54D28*
D03*
X426244Y9128D02*
G54D28*
D03*
X451644Y9128D02*
G54D28*
D03*
X477044Y9128D02*
G54D28*
D03*
X502444Y9128D02*
G54D28*
D03*
X527844Y9128D02*
G54D28*
D03*
X553244Y9128D02*
G54D28*
D03*
X578644Y9128D02*
G54D28*
D03*
X604044Y9128D02*
G54D28*
D03*
X629444Y9128D02*
G54D28*
D03*
X654844Y9128D02*
G54D28*
D03*
X680244Y9128D02*
G54D28*
D03*
X705644Y9128D02*
G54D28*
D03*
X731044Y9128D02*
G54D28*
D03*
X756444Y9128D02*
G54D28*
D03*
X781845Y9128D02*
G54D28*
D03*
X807245Y9128D02*
G54D28*
D03*
X832645Y9128D02*
G54D28*
D03*
X400844Y-16272D02*
G54D28*
D03*
X426244Y-16272D02*
G54D28*
D03*
X451644Y-16272D02*
G54D28*
D03*
X781845Y-16272D02*
G54D28*
D03*
X807245Y-16272D02*
G54D28*
D03*
X832645Y-16272D02*
G54D28*
D03*
X400844Y-41672D02*
G54D28*
D03*
X426244Y-41672D02*
G54D28*
D03*
X451644Y-41672D02*
G54D28*
D03*
X781845Y-41672D02*
G54D28*
D03*
X807245Y-41672D02*
G54D28*
D03*
X832645Y-41672D02*
G54D28*
D03*
X400844Y-67072D02*
G54D28*
D03*
X426244Y-67072D02*
G54D28*
D03*
X451644Y-67072D02*
G54D28*
D03*
X781845Y-67072D02*
G54D28*
D03*
X807245Y-67072D02*
G54D28*
D03*
X832645Y-67072D02*
G54D28*
D03*
X400844Y-92472D02*
G54D28*
D03*
X426244Y-92472D02*
G54D28*
D03*
X451644Y-92472D02*
G54D28*
D03*
X781845Y-92472D02*
G54D28*
D03*
X807245Y-92472D02*
G54D28*
D03*
X832645Y-92472D02*
G54D28*
D03*
X400844Y-117872D02*
G54D28*
D03*
X426244Y-117872D02*
G54D28*
D03*
X451644Y-117872D02*
G54D28*
D03*
X781845Y-117872D02*
G54D28*
D03*
X807245Y-117872D02*
G54D28*
D03*
X832645Y-117872D02*
G54D28*
D03*
X400844Y-143272D02*
G54D28*
D03*
X426244Y-143272D02*
G54D28*
D03*
X451644Y-143272D02*
G54D28*
D03*
X781845Y-143272D02*
G54D28*
D03*
X807245Y-143272D02*
G54D28*
D03*
X832645Y-143272D02*
G54D28*
D03*
X400844Y-168672D02*
G54D28*
D03*
X426244Y-168672D02*
G54D28*
D03*
X451644Y-168672D02*
G54D28*
D03*
X781845Y-168672D02*
G54D28*
D03*
X807245Y-168672D02*
G54D28*
D03*
X832645Y-168672D02*
G54D28*
D03*
X400844Y-194072D02*
G54D28*
D03*
X426244Y-194072D02*
G54D28*
D03*
X451644Y-194072D02*
G54D28*
D03*
X781845Y-194072D02*
G54D28*
D03*
X807245Y-194072D02*
G54D28*
D03*
X832645Y-194072D02*
G54D28*
D03*
X400844Y-219472D02*
G54D28*
D03*
X426244Y-219472D02*
G54D28*
D03*
X451644Y-219472D02*
G54D28*
D03*
X781845Y-219472D02*
G54D28*
D03*
X807245Y-219472D02*
G54D28*
D03*
X832645Y-219472D02*
G54D28*
D03*
X400844Y-244872D02*
G54D28*
D03*
X426244Y-244872D02*
G54D28*
D03*
X451644Y-244872D02*
G54D28*
D03*
X781845Y-244872D02*
G54D28*
D03*
X807245Y-244872D02*
G54D28*
D03*
X832645Y-244872D02*
G54D28*
D03*
X400844Y-270272D02*
G54D28*
D03*
X426244Y-270272D02*
G54D28*
D03*
X451644Y-270272D02*
G54D28*
D03*
X781845Y-270272D02*
G54D28*
D03*
X807245Y-270272D02*
G54D28*
D03*
X832645Y-270272D02*
G54D28*
D03*
X400844Y-295672D02*
G54D28*
D03*
X426244Y-295672D02*
G54D28*
D03*
X451644Y-295672D02*
G54D28*
D03*
X781845Y-295672D02*
G54D28*
D03*
X807245Y-295672D02*
G54D28*
D03*
X832645Y-295672D02*
G54D28*
D03*
X400844Y-321072D02*
G54D28*
D03*
X426244Y-321072D02*
G54D28*
D03*
X451644Y-321072D02*
G54D28*
D03*
X477044Y-321072D02*
G54D28*
D03*
X502444Y-321072D02*
G54D28*
D03*
X527844Y-321072D02*
G54D28*
D03*
X553244Y-321072D02*
G54D28*
D03*
X578644Y-321072D02*
G54D28*
D03*
X604044Y-321072D02*
G54D28*
D03*
X629444Y-321072D02*
G54D28*
D03*
X654844Y-321072D02*
G54D28*
D03*
X680244Y-321072D02*
G54D28*
D03*
X705644Y-321072D02*
G54D28*
D03*
X731044Y-321072D02*
G54D28*
D03*
X756444Y-321072D02*
G54D28*
D03*
X781845Y-321072D02*
G54D28*
D03*
X807245Y-321072D02*
G54D28*
D03*
X832645Y-321072D02*
G54D28*
D03*
X400844Y-346472D02*
G54D28*
D03*
X426244Y-346472D02*
G54D28*
D03*
X451644Y-346472D02*
G54D28*
D03*
X477044Y-346472D02*
G54D28*
D03*
X502444Y-346472D02*
G54D28*
D03*
X527844Y-346472D02*
G54D28*
D03*
X553244Y-346472D02*
G54D28*
D03*
X578644Y-346472D02*
G54D28*
D03*
X604044Y-346472D02*
G54D28*
D03*
X629444Y-346472D02*
G54D28*
D03*
X654844Y-346472D02*
G54D28*
D03*
X680244Y-346472D02*
G54D28*
D03*
X705644Y-346472D02*
G54D28*
D03*
X731044Y-346472D02*
G54D28*
D03*
X756444Y-346472D02*
G54D28*
D03*
X781845Y-346472D02*
G54D28*
D03*
X807245Y-346472D02*
G54D28*
D03*
X832645Y-346472D02*
G54D28*
D03*
X400844Y-371872D02*
G54D28*
D03*
X426244Y-371872D02*
G54D28*
D03*
X451644Y-371872D02*
G54D28*
D03*
X477044Y-371872D02*
G54D28*
D03*
X502444Y-371872D02*
G54D28*
D03*
X527844Y-371872D02*
G54D28*
D03*
X553244Y-371872D02*
G54D28*
D03*
X578644Y-371872D02*
G54D28*
D03*
X604044Y-371872D02*
G54D28*
D03*
X629444Y-371872D02*
G54D28*
D03*
X654844Y-371872D02*
G54D28*
D03*
X680244Y-371872D02*
G54D28*
D03*
X705644Y-371872D02*
G54D28*
D03*
X731044Y-371872D02*
G54D28*
D03*
X756444Y-371872D02*
G54D28*
D03*
X781845Y-371872D02*
G54D28*
D03*
X807245Y-371872D02*
G54D28*
D03*
G36*
X825645Y-364872D02*
X839645Y-364872D01*
X839645Y-378872D01*
X825645Y-378872D01*
X825645Y-364872D01*
G37*
X-558800Y-752079D02*
G54D29*
D03*
X-533400Y-752079D02*
G54D29*
D03*
X-508000Y-752079D02*
G54D29*
D03*
X-482600Y-752079D02*
G54D29*
D03*
X-457200Y-752079D02*
G54D29*
D03*
X-431800Y-752079D02*
G54D29*
D03*
X-406400Y-752079D02*
G54D29*
D03*
X-381000Y-752079D02*
G54D29*
D03*
X-355600Y-752079D02*
G54D29*
D03*
X-330200Y-752079D02*
G54D29*
D03*
X-304800Y-752079D02*
G54D29*
D03*
X-279400Y-752079D02*
G54D29*
D03*
X-254000Y-752079D02*
G54D29*
D03*
X-228600Y-752079D02*
G54D29*
D03*
X-203200Y-752079D02*
G54D29*
D03*
X-177800Y-752079D02*
G54D29*
D03*
X-152400Y-752079D02*
G54D29*
D03*
X-127000Y-752079D02*
G54D29*
D03*
X-101600Y-752079D02*
G54D29*
D03*
X-76200Y-752079D02*
G54D29*
D03*
X-50800Y-752079D02*
G54D29*
D03*
X-25400Y-752079D02*
G54D29*
D03*
X0Y-752079D02*
G54D29*
D03*
X25400Y-752079D02*
G54D29*
D03*
X50800Y-752079D02*
G54D29*
D03*
X-558800Y-790579D02*
G54D29*
D03*
X-533400Y-790579D02*
G54D29*
D03*
X-508000Y-790579D02*
G54D29*
D03*
X-482600Y-790579D02*
G54D29*
D03*
X-457200Y-790579D02*
G54D29*
D03*
X-431800Y-790579D02*
G54D29*
D03*
X-406400Y-790579D02*
G54D29*
D03*
X-381000Y-790579D02*
G54D29*
D03*
X-355600Y-790579D02*
G54D29*
D03*
X-330200Y-790579D02*
G54D29*
D03*
X-304800Y-790579D02*
G54D29*
D03*
X-279400Y-790579D02*
G54D29*
D03*
X-254000Y-790579D02*
G54D29*
D03*
X-228600Y-790579D02*
G54D29*
D03*
X-203200Y-790579D02*
G54D29*
D03*
X-177800Y-790579D02*
G54D29*
D03*
X-152400Y-790579D02*
G54D29*
D03*
X-127000Y-790579D02*
G54D29*
D03*
X-101600Y-790579D02*
G54D29*
D03*
X-76200Y-790579D02*
G54D29*
D03*
X-50800Y-790579D02*
G54D29*
D03*
X-25400Y-790579D02*
G54D29*
D03*
X0Y-790579D02*
G54D29*
D03*
X25400Y-790579D02*
G54D29*
D03*
X50800Y-790579D02*
G54D29*
D03*
G36*
X-551730Y-764436D02*
X-538730Y-764436D01*
X-538730Y-777436D01*
X-551730Y-777436D01*
X-551730Y-764436D01*
G37*
X-519830Y-770936D02*
G54D29*
D03*
X-494430Y-770936D02*
G54D29*
D03*
X-469030Y-770936D02*
G54D29*
D03*
X-443630Y-770936D02*
G54D29*
D03*
X-418230Y-770936D02*
G54D29*
D03*
X-392830Y-770936D02*
G54D29*
D03*
X-367430Y-770936D02*
G54D29*
D03*
X-342030Y-770936D02*
G54D29*
D03*
X-316630Y-770936D02*
G54D29*
D03*
X-291230Y-770936D02*
G54D29*
D03*
X-265830Y-770936D02*
G54D29*
D03*
X-240430Y-770936D02*
G54D29*
D03*
X-215030Y-770936D02*
G54D29*
D03*
X-189630Y-770936D02*
G54D29*
D03*
X-164230Y-770936D02*
G54D29*
D03*
X-138830Y-770936D02*
G54D29*
D03*
X-113430Y-770936D02*
G54D29*
D03*
X-88030Y-770936D02*
G54D29*
D03*
X-62631Y-770936D02*
G54D29*
D03*
X-37230Y-770936D02*
G54D29*
D03*
X-11830Y-770936D02*
G54D29*
D03*
X13570Y-770936D02*
G54D29*
D03*
X38970Y-770936D02*
G54D29*
D03*
X64370Y-770936D02*
G54D29*
D03*
X-545230Y-809436D02*
G54D29*
D03*
X-519830Y-809436D02*
G54D29*
D03*
X-494430Y-809436D02*
G54D29*
D03*
X-469030Y-809436D02*
G54D29*
D03*
X-443630Y-809436D02*
G54D29*
D03*
X-418230Y-809436D02*
G54D29*
D03*
X-392830Y-809436D02*
G54D29*
D03*
X-367430Y-809436D02*
G54D29*
D03*
X-342030Y-809436D02*
G54D29*
D03*
X-316630Y-809436D02*
G54D29*
D03*
X-291230Y-809436D02*
G54D29*
D03*
X-265830Y-809436D02*
G54D29*
D03*
X-240430Y-809436D02*
G54D29*
D03*
X-215030Y-809436D02*
G54D29*
D03*
X-189630Y-809436D02*
G54D29*
D03*
X-164230Y-809436D02*
G54D29*
D03*
X-138830Y-809436D02*
G54D29*
D03*
X-113430Y-809436D02*
G54D29*
D03*
X-88030Y-809436D02*
G54D29*
D03*
X-62631Y-809436D02*
G54D29*
D03*
X-37230Y-809436D02*
G54D29*
D03*
X-11830Y-809436D02*
G54D29*
D03*
X13570Y-809436D02*
G54D29*
D03*
X38970Y-809436D02*
G54D29*
D03*
X64370Y-809436D02*
G54D29*
D03*
X107950Y-752079D02*
G54D29*
D03*
X133350Y-752079D02*
G54D29*
D03*
X158750Y-752079D02*
G54D29*
D03*
X184150Y-752079D02*
G54D29*
D03*
X209550Y-752079D02*
G54D29*
D03*
X234950Y-752079D02*
G54D29*
D03*
X260350Y-752079D02*
G54D29*
D03*
X285750Y-752079D02*
G54D29*
D03*
X311150Y-752079D02*
G54D29*
D03*
X336550Y-752079D02*
G54D29*
D03*
X361950Y-752079D02*
G54D29*
D03*
X387350Y-752079D02*
G54D29*
D03*
X412750Y-752079D02*
G54D29*
D03*
X438150Y-752079D02*
G54D29*
D03*
X463550Y-752079D02*
G54D29*
D03*
X488950Y-752079D02*
G54D29*
D03*
X514350Y-752079D02*
G54D29*
D03*
X539750Y-752079D02*
G54D29*
D03*
X565150Y-752079D02*
G54D29*
D03*
X590550Y-752079D02*
G54D29*
D03*
X615950Y-752079D02*
G54D29*
D03*
X641350Y-752079D02*
G54D29*
D03*
X666750Y-752079D02*
G54D29*
D03*
X692150Y-752079D02*
G54D29*
D03*
X717550Y-752079D02*
G54D29*
D03*
X107950Y-790579D02*
G54D29*
D03*
X133350Y-790579D02*
G54D29*
D03*
X158750Y-790579D02*
G54D29*
D03*
X184150Y-790579D02*
G54D29*
D03*
X209550Y-790579D02*
G54D29*
D03*
X234950Y-790579D02*
G54D29*
D03*
X260350Y-790579D02*
G54D29*
D03*
X285750Y-790579D02*
G54D29*
D03*
X311150Y-790579D02*
G54D29*
D03*
X336550Y-790579D02*
G54D29*
D03*
X361950Y-790579D02*
G54D29*
D03*
X387350Y-790579D02*
G54D29*
D03*
X412750Y-790579D02*
G54D29*
D03*
X438150Y-790579D02*
G54D29*
D03*
X463550Y-790579D02*
G54D29*
D03*
X488950Y-790579D02*
G54D29*
D03*
X514350Y-790579D02*
G54D29*
D03*
X539750Y-790579D02*
G54D29*
D03*
X565150Y-790579D02*
G54D29*
D03*
X590550Y-790579D02*
G54D29*
D03*
X615950Y-790579D02*
G54D29*
D03*
X641350Y-790579D02*
G54D29*
D03*
X666750Y-790579D02*
G54D29*
D03*
X692150Y-790579D02*
G54D29*
D03*
X717550Y-790579D02*
G54D29*
D03*
X121520Y-770936D02*
G54D29*
D03*
X146920Y-770936D02*
G54D29*
D03*
X172320Y-770936D02*
G54D29*
D03*
X197720Y-770936D02*
G54D29*
D03*
X223120Y-770936D02*
G54D29*
D03*
X248520Y-770936D02*
G54D29*
D03*
X273920Y-770936D02*
G54D29*
D03*
X299320Y-770936D02*
G54D29*
D03*
X324720Y-770936D02*
G54D29*
D03*
X350120Y-770936D02*
G54D29*
D03*
X375520Y-770936D02*
G54D29*
D03*
X400920Y-770936D02*
G54D29*
D03*
X426320Y-770936D02*
G54D29*
D03*
X451720Y-770936D02*
G54D29*
D03*
X477120Y-770936D02*
G54D29*
D03*
X502520Y-770936D02*
G54D29*
D03*
X527919Y-770936D02*
G54D29*
D03*
X553319Y-770936D02*
G54D29*
D03*
X578719Y-770936D02*
G54D29*
D03*
X604119Y-770936D02*
G54D29*
D03*
X629519Y-770936D02*
G54D29*
D03*
X654919Y-770936D02*
G54D29*
D03*
X680319Y-770936D02*
G54D29*
D03*
X705719Y-770936D02*
G54D29*
D03*
X731120Y-770936D02*
G54D29*
D03*
X121520Y-809436D02*
G54D29*
D03*
X146920Y-809436D02*
G54D29*
D03*
X172320Y-809436D02*
G54D29*
D03*
X197720Y-809436D02*
G54D29*
D03*
X223120Y-809436D02*
G54D29*
D03*
X248520Y-809436D02*
G54D29*
D03*
X273920Y-809436D02*
G54D29*
D03*
X299320Y-809436D02*
G54D29*
D03*
X324720Y-809436D02*
G54D29*
D03*
X350120Y-809436D02*
G54D29*
D03*
X375520Y-809436D02*
G54D29*
D03*
X400920Y-809436D02*
G54D29*
D03*
X426320Y-809436D02*
G54D29*
D03*
X451720Y-809436D02*
G54D29*
D03*
X477120Y-809436D02*
G54D29*
D03*
X502520Y-809436D02*
G54D29*
D03*
X527919Y-809436D02*
G54D29*
D03*
X553319Y-809436D02*
G54D29*
D03*
X578719Y-809436D02*
G54D29*
D03*
X604119Y-809436D02*
G54D29*
D03*
X629519Y-809436D02*
G54D29*
D03*
X654919Y-809436D02*
G54D29*
D03*
X680319Y-809436D02*
G54D29*
D03*
X705719Y-809436D02*
G54D29*
D03*
X731120Y-809436D02*
G54D29*
D03*
X-32147Y63500D02*
G54D30*
D03*
X-79772Y-94854D02*
G54D30*
D03*
X-792559Y-117476D02*
G54D30*
D03*
X354806Y-411162D02*
G54D30*
D03*
X-844550Y-493316D02*
G54D30*
D03*
X371078Y49609D02*
G54D30*
D03*
X-99219Y59531D02*
G54D30*
D03*
X-256778Y37306D02*
G54D30*
D03*
X-1004094Y-17859D02*
G54D30*
D03*
X8731Y68262D02*
G54D30*
D03*
X-33734Y-89694D02*
G54D30*
D03*
X-722709Y-124619D02*
G54D30*
D03*
X155972Y53578D02*
G54D30*
D03*
X-49212Y-350441D02*
G54D30*
D03*
X-138906Y-353616D02*
G54D30*
D03*
X-23416Y73422D02*
G54D30*
D03*
X-50800Y-14684D02*
G54D30*
D03*
X-967581Y-16669D02*
G54D30*
D03*
X-9128Y57547D02*
G54D30*
D03*
X-82947Y73422D02*
G54D30*
D03*
X-245269Y61119D02*
G54D30*
D03*
X-955278Y-30956D02*
G54D30*
D03*
X689372Y79375D02*
G54D30*
D03*
X-930275Y67072D02*
G54D30*
D03*
X-912812Y65484D02*
G54D30*
D03*
X-1071166Y-61912D02*
G54D30*
D03*
X339725Y43656D02*
G54D30*
D03*
X-808434Y54769D02*
G54D30*
D03*
X786209Y85725D02*
G54D30*
D03*
X510381Y-170656D02*
G54D30*
D03*
X475059Y-169862D02*
G54D30*
D03*
X313928Y-226616D02*
G54D30*
D03*
X279400Y-226616D02*
G54D30*
D03*
X252809Y-282575D02*
G54D30*
D03*
X-116681Y-319088D02*
G54D30*
D03*
X-748903Y-295275D02*
G54D30*
D03*
X549275Y-23812D02*
G54D30*
D03*
X489744Y-15875D02*
G54D30*
D03*
X-53975Y5159D02*
G54D30*
D03*
X-99616Y-1588D02*
G54D30*
D03*
X-210741Y-83344D02*
G54D30*
D03*
X-1015206Y-29369D02*
G54D30*
D03*
X756841Y75803D02*
G54D30*
D03*
X-45244Y-71438D02*
G54D30*
D03*
X-329009Y-55166D02*
G54D30*
D03*
X-574278Y-41672D02*
G54D30*
D03*
X-1071959Y-94059D02*
G54D30*
D03*
X-1071959Y-122238D02*
G54D30*
D03*
X-1042988Y-158750D02*
G54D30*
D03*
X-870347Y-180975D02*
G54D30*
D03*
X-574278Y-146050D02*
G54D30*
D03*
X-860425Y-345281D02*
G54D30*
D03*
X-830262Y-349250D02*
G54D30*
D03*
X352822Y48419D02*
G54D30*
D03*
X-81756Y59928D02*
G54D30*
D03*
X910431Y-51197D02*
G54D30*
D03*
X936626Y-51196D02*
G54D30*
D03*
X636984Y-284162D02*
G54D30*
D03*
X310356Y-280988D02*
G54D30*
D03*
X469900Y-12303D02*
G54D30*
D03*
X567531Y-30956D02*
G54D30*
D03*
X402828Y-402034D02*
G54D30*
D03*
X-785812Y-289322D02*
G54D30*
D03*
X-10716Y-74612D02*
G54D30*
D03*
X-167084Y-55166D02*
G54D30*
D03*
X-321866Y-28575D02*
G54D30*
D03*
X-317500Y59134D02*
G54D30*
D03*
X-530225Y56753D02*
G54D30*
D03*
X-1030684Y-80169D02*
G54D30*
D03*
X-613966Y28178D02*
G54D30*
D03*
X-624681Y-412353D02*
G54D30*
D03*
X-566738Y-422672D02*
G54D30*
D03*
X-150812Y65484D02*
G54D30*
D03*
X-356791Y65088D02*
G54D30*
D03*
X-1002903Y31353D02*
G54D30*
D03*
X-739378Y66278D02*
G54D30*
D03*
X-550069Y51197D02*
G54D30*
D03*
X-764778Y-162719D02*
G54D30*
D03*
X-723900Y-165100D02*
G54D30*
D03*
X-721122Y-544909D02*
G54D30*
D03*
X-721122Y-398859D02*
G54D30*
D03*
X-686991Y-406797D02*
G54D30*
D03*
X-982662Y-578247D02*
G54D30*
D03*
X935038Y-268288D02*
G54D30*
D03*
X886222Y-829866D02*
G54D30*
D03*
X853678Y-43656D02*
G54D30*
D03*
X855662Y-65484D02*
G54D30*
D03*
X744141Y-247253D02*
G54D30*
D03*
X290116Y-257969D02*
G54D30*
D03*
X287734Y-283766D02*
G54D30*
D03*
X-157559Y-313928D02*
G54D30*
D03*
X370284Y-92869D02*
G54D30*
D03*
X323056Y-93266D02*
G54D30*
D03*
X315119Y-61913D02*
G54D30*
D03*
X34925Y-66676D02*
G54D30*
D03*
X-449262Y-20241D02*
G54D30*
D03*
X-126206Y-53976D02*
G54D30*
D03*
X-554434Y-188119D02*
G54D30*
D03*
X-1029097Y-165100D02*
G54D30*
D03*
X352822Y-18257D02*
G54D30*
D03*
X-418703Y-4366D02*
G54D30*
D03*
X-163116Y-36910D02*
G54D30*
D03*
X-542131Y-201216D02*
G54D30*
D03*
X-1019969Y-200819D02*
G54D30*
D03*
X244475Y-89694D02*
G54D30*
D03*
X-1064419Y-160735D02*
G54D30*
D03*
X-624681Y-147241D02*
G54D30*
D03*
X311547Y-88900D02*
G54D30*
D03*
X573088Y-69850D02*
G54D30*
D03*
X551656Y-273447D02*
G54D30*
D03*
X218678Y-340122D02*
G54D30*
D03*
X260350Y-227013D02*
G54D30*
D03*
X-169069Y-228203D02*
G54D30*
D03*
X-238919Y-214709D02*
G54D30*
D03*
X157559Y-227012D02*
G54D30*
D03*
X206772Y-225028D02*
G54D30*
D03*
X203200Y-694531D02*
G54D30*
D03*
X205184Y-526256D02*
G54D30*
D03*
X427038Y-500856D02*
G54D30*
D03*
X429419Y-717153D02*
G54D30*
D03*
X823119Y-784622D02*
G54D30*
D03*
X815181Y-723503D02*
G54D30*
D03*
X641350Y-669131D02*
G54D30*
D03*
X810022Y-669131D02*
G54D30*
D03*
X-668734Y-556816D02*
G54D30*
D03*
X-983853Y-616744D02*
G54D30*
D03*
X-297259Y-596503D02*
G54D30*
D03*
X-279003Y-302816D02*
G54D30*
D03*
X-223044Y-294084D02*
G54D30*
D03*
X290512Y-95647D02*
G54D30*
D03*
X-1023144Y-265112D02*
G54D30*
D03*
X-605631Y-241300D02*
G54D30*
D03*
X-260350Y-152797D02*
G54D30*
D03*
X-511969Y-452834D02*
G54D30*
D03*
X-508794Y-414338D02*
G54D30*
D03*
X-447675Y-416322D02*
G54D30*
D03*
X-445294Y-211138D02*
G54D30*
D03*
X-456406Y-176609D02*
G54D30*
D03*
X-456406Y-86519D02*
G54D30*
D03*
X-1020366Y-222250D02*
G54D30*
D03*
X-210219Y-163388D02*
G54D30*
D03*
X-204788Y-392112D02*
G54D30*
D03*
X-439341Y-361156D02*
G54D30*
D03*
X-293688Y-406003D02*
G54D30*
D03*
X-433388Y-123428D02*
G54D30*
D03*
X-1052116Y-114697D02*
G54D30*
D03*
X595709Y-150416D02*
G54D30*
D03*
X599281Y-121047D02*
G54D30*
D03*
X519112Y-121841D02*
G54D30*
D03*
X-1010841Y-268288D02*
G54D30*
D03*
X-633809Y-290512D02*
G54D30*
D03*
X362347Y-203994D02*
G54D30*
D03*
X-59134Y-213122D02*
G54D30*
D03*
X-78581Y-412750D02*
G54D30*
D03*
X-689920Y-479210D02*
G54D30*
D03*
X466725Y-192484D02*
G54D30*
D03*
X576262Y-192881D02*
G54D30*
D03*
X437356Y-393303D02*
G54D30*
D03*
X-581819Y-422275D02*
G54D30*
D03*
X-283766Y-442912D02*
G54D30*
D03*
X373459Y-184150D02*
G54D30*
D03*
X-230981Y-180975D02*
G54D30*
D03*
X-228997Y-234950D02*
G54D30*
D03*
X-478631Y-330994D02*
G54D30*
D03*
X-438944Y-698897D02*
G54D30*
D03*
X-283369Y-699294D02*
G54D30*
D03*
X466328Y-235347D02*
G54D30*
D03*
X-216297Y-268684D02*
G54D30*
D03*
X-119459Y-234553D02*
G54D30*
D03*
X-120650Y-249634D02*
G54D30*
D03*
X306388Y-794D02*
G54D30*
D03*
X-17066Y-700088D02*
G54D30*
D03*
X49609Y-11906D02*
G54D30*
D03*
X-242491Y-13097D02*
G54D30*
D03*
X-280194Y-711994D02*
G54D30*
D03*
X-346075Y-715566D02*
G54D30*
D03*
X352028Y-320675D02*
G54D30*
D03*
X164306Y-330994D02*
G54D30*
D03*
X155972Y-406797D02*
G54D30*
D03*
X509588Y-217091D02*
G54D30*
D03*
X482600Y-218678D02*
G54D30*
D03*
X369491Y-155575D02*
G54D30*
D03*
X324247Y-155575D02*
G54D30*
D03*
X240903Y-186134D02*
G54D30*
D03*
X130572Y-187722D02*
G54D30*
D03*
X123825Y-395684D02*
G54D30*
D03*
X-206772Y-300831D02*
G54D30*
D03*
X199628Y-295672D02*
G54D30*
D03*
X579225Y-154092D02*
G54D30*
D03*
X51594Y-147241D02*
G54D30*
D03*
X108347Y-355203D02*
G54D30*
D03*
X202803Y51197D02*
G54D30*
D03*
X-1032669Y-213518D02*
G54D30*
D03*
X258762Y-94853D02*
G54D30*
D03*
X-1000919Y-165100D02*
G54D30*
D03*
X-65484Y-654447D02*
G54D30*
D03*
X-352822Y-640159D02*
G54D30*
D03*
X-34925Y-697309D02*
G54D30*
D03*
X746522Y-36116D02*
G54D30*
D03*
X488156Y-46831D02*
G54D30*
D03*
X367109Y-11112D02*
G54D30*
D03*
X-188516Y-65484D02*
G54D30*
D03*
X523875Y-100012D02*
G54D30*
D03*
X375444Y-64294D02*
G54D30*
D03*
X308769Y-48816D02*
G54D30*
D03*
X11906Y-715962D02*
G54D30*
D03*
X533003Y-120650D02*
G54D30*
D03*
X376238Y-51594D02*
G54D30*
D03*
X-106759Y-53578D02*
G54D30*
D03*
X-25797Y-123428D02*
G54D30*
D03*
X-47625Y-622697D02*
G54D30*
D03*
X-80962Y-628253D02*
G54D30*
D03*
X722312Y-26988D02*
G54D30*
D03*
X-55166Y-714375D02*
G54D30*
D03*
X249238Y-131366D02*
G54D30*
D03*
X-86122Y-660797D02*
G54D30*
D03*
X-957262Y-619125D02*
G54D30*
D03*
X-8731Y-716359D02*
G54D30*
D03*
X709612Y-44847D02*
G54D30*
D03*
X71834Y-350044D02*
G54D30*
D03*
X30162Y-350044D02*
G54D30*
D03*
X67866Y-638175D02*
G54D30*
D03*
X54769Y-737394D02*
G54D30*
D03*
X-978694Y-599281D02*
G54D30*
D03*
X756444Y-234156D02*
G54D30*
D03*
X484981Y-234156D02*
G54D30*
D03*
X16272Y-674291D02*
G54D30*
D03*
X-971550Y-620316D02*
G54D30*
D03*
X858838Y-78184D02*
G54D30*
D03*
X-1038622Y-483791D02*
G54D30*
D03*
X194469Y-181769D02*
G54D30*
D03*
X-116681Y-722709D02*
G54D30*
D03*
X-126603Y-664369D02*
G54D30*
D03*
X-388541Y-651272D02*
G54D30*
D03*
X-384175Y-678259D02*
G54D30*
D03*
X-651272Y-646906D02*
G54D30*
D03*
X-642541Y-505619D02*
G54D30*
D03*
X-1045766Y-630634D02*
G54D30*
D03*
X-263128Y-286544D02*
G54D30*
D03*
X-247650Y-706438D02*
G54D30*
D03*
X-1035050Y-555228D02*
G54D30*
D03*
X-75803Y-368697D02*
G54D30*
D03*
X-73025Y-548878D02*
G54D30*
D03*
X-790178Y-556816D02*
G54D30*
D03*
X-805276Y-557386D02*
G54D30*
D03*
X-1027906Y-594122D02*
G54D30*
D03*
X719931Y-167878D02*
G54D30*
D03*
X-684212Y-746919D02*
G54D30*
D03*
X-1019969Y-619919D02*
G54D30*
D03*
X675084Y-116681D02*
G54D30*
D03*
X490056Y-105654D02*
G54D30*
D03*
X350044Y-183753D02*
G54D30*
D03*
X325041Y-184547D02*
G54D30*
D03*
X190103Y-399653D02*
G54D30*
D03*
X-180578Y-390525D02*
G54D30*
D03*
X-126603Y-729853D02*
G54D30*
D03*
X-1033462Y-499269D02*
G54D30*
D03*
X525066Y-169466D02*
G54D30*
D03*
X177976Y58349D02*
G54D30*
D03*
X43259Y58341D02*
G54D30*
D03*
X-18653Y-89694D02*
G54D30*
D03*
X-241697Y-101203D02*
G54D30*
D03*
X-254397Y-305197D02*
G54D30*
D03*
X-386159Y-305197D02*
G54D30*
D03*
X-373062Y-484981D02*
G54D30*
D03*
X-1074341Y-619125D02*
G54D30*
D03*
X121047Y-330597D02*
G54D30*
D03*
X-129778Y-327819D02*
G54D30*
D03*
X81359Y-330200D02*
G54D30*
D03*
X600075Y-301625D02*
G54D30*
D03*
X623888Y-488950D02*
G54D30*
D03*
X605234Y-413941D02*
G54D30*
D03*
X558800Y-413941D02*
G54D30*
D03*
X484584Y-409972D02*
G54D30*
D03*
X154384Y-498872D02*
G54D30*
D03*
X159544Y-570309D02*
G54D30*
D03*
X625475Y-509588D02*
G54D30*
D03*
X737394Y-498078D02*
G54D30*
D03*
X348456Y-510778D02*
G54D30*
D03*
X585788Y-265509D02*
G54D30*
D03*
X892969Y-598884D02*
G54D30*
D03*
X716359Y-582216D02*
G54D30*
D03*
X761206Y-749697D02*
G54D30*
D03*
X804466Y-778669D02*
G54D30*
D03*
X929878Y-636191D02*
G54D30*
D03*
X337741Y-631031D02*
G54D30*
D03*
X420291Y-643334D02*
G54D30*
D03*
X550069Y-217884D02*
G54D30*
D03*
X615950Y-192881D02*
G54D30*
D03*
X867966Y-321072D02*
G54D30*
D03*
X44847Y-323056D02*
G54D30*
D03*
X34925Y-533003D02*
G54D30*
D03*
X-85328Y-533400D02*
G54D30*
D03*
X-79772Y-572294D02*
G54D30*
D03*
X-1014725Y-568638D02*
G54D30*
D03*
X-398066Y-554831D02*
G54D30*
D03*
X-394891Y-567928D02*
G54D30*
D03*
X97234Y-340519D02*
G54D30*
D03*
X430609Y-459184D02*
G54D30*
D03*
X611188Y-508000D02*
G54D30*
D03*
X-206375Y-504825D02*
G54D30*
D03*
X136525Y-473472D02*
G54D30*
D03*
X576659Y-498872D02*
G54D30*
D03*
X554434Y-578644D02*
G54D30*
D03*
X106362Y-617538D02*
G54D30*
D03*
X98425Y-565944D02*
G54D30*
D03*
X526256Y-641350D02*
G54D30*
D03*
X533003Y-582216D02*
G54D30*
D03*
X177006Y-577850D02*
G54D30*
D03*
X876300Y-359569D02*
G54D30*
D03*
X771922Y-388541D02*
G54D30*
D03*
X798512Y-479028D02*
G54D30*
D03*
X662384Y-488950D02*
G54D30*
D03*
X685800Y-570309D02*
G54D30*
D03*
X527844Y-679053D02*
G54D30*
D03*
X531416Y-719138D02*
G54D30*
D03*
X524272Y-738584D02*
G54D30*
D03*
X515938Y-838994D02*
G54D30*
D03*
X112316Y-732234D02*
G54D30*
D03*
X850106Y-523478D02*
G54D30*
D03*
X860028Y-623888D02*
G54D30*
D03*
X848519Y-548084D02*
G54D30*
D03*
X352822Y-550069D02*
G54D30*
D03*
X723503Y-508794D02*
G54D30*
D03*
X747316Y-808831D02*
G54D30*
D03*
X-1026319Y-543719D02*
G54D30*
D03*
X-325438Y-540147D02*
G54D30*
D03*
X-319881Y-671909D02*
G54D30*
D03*
X-74612Y-673894D02*
G54D30*
D03*
X73819Y-377428D02*
G54D30*
D03*
X-55562Y-376238D02*
G54D30*
D03*
X-55166Y-513556D02*
G54D30*
D03*
X-154384Y-512366D02*
G54D30*
D03*
X142478Y-390128D02*
G54D30*
D03*
X140494Y-581025D02*
G54D30*
D03*
X609600Y-579438D02*
G54D30*
D03*
X594916Y-219472D02*
G54D30*
D03*
X467519Y-217884D02*
G54D30*
D03*
X351631Y-481409D02*
G54D30*
D03*
X250825Y-490934D02*
G54D30*
D03*
X250428Y-592931D02*
G54D30*
D03*
X132159Y-622300D02*
G54D30*
D03*
X588169Y-721122D02*
G54D30*
D03*
X119062Y-621506D02*
G54D30*
D03*
X500062Y-412750D02*
G54D30*
D03*
X477441Y-550466D02*
G54D30*
D03*
X489347Y-523081D02*
G54D30*
D03*
X-340916Y-547291D02*
G54D30*
D03*
X88106Y-502047D02*
G54D30*
D03*
X547291Y-550466D02*
G54D30*
D03*
X417116Y-716756D02*
G54D30*
D03*
X163512Y-680641D02*
G54D30*
D03*
X447928Y-679679D02*
G54D30*
D03*
X541734Y-406400D02*
G54D30*
D03*
X148828Y-676672D02*
G54D30*
D03*
X397272Y-679053D02*
G54D30*
D03*
X396182Y-717401D02*
G54D30*
D03*
X134938Y-676672D02*
G54D30*
D03*
X829866Y-407591D02*
G54D30*
D03*
X436562Y-637381D02*
G54D30*
D03*
X609997Y-226219D02*
G54D30*
D03*
X706834Y-226616D02*
G54D30*
D03*
X373062Y-726678D02*
G54D30*
D03*
X122634Y-717550D02*
G54D30*
D03*
X515541Y-480616D02*
G54D30*
D03*
X447278Y-717153D02*
G54D30*
D03*
X364331Y-679847D02*
G54D30*
D03*
X201612Y-676275D02*
G54D30*
D03*
X564356Y-393303D02*
G54D30*
D03*
X424259Y-675084D02*
G54D30*
D03*
X97234Y-666750D02*
G54D30*
D03*
X355997Y-664766D02*
G54D30*
D03*
X860425Y-383381D02*
G54D30*
D03*
X335359Y-674688D02*
G54D30*
D03*
X184944Y-644525D02*
G54D30*
D03*
X802878Y-509588D02*
G54D30*
D03*
X835819Y-729456D02*
G54D30*
D03*
X790575Y-796528D02*
G54D30*
D03*
X405606Y-490538D02*
G54D30*
D03*
X736600Y-461962D02*
G54D30*
D03*
X789781Y-470297D02*
G54D30*
D03*
X791369Y-560784D02*
G54D30*
D03*
X400447Y-557609D02*
G54D30*
D03*
X855662Y-575072D02*
G54D30*
D03*
X791369Y-581819D02*
G54D30*
D03*
X781447Y-552847D02*
G54D30*
D03*
X854869Y-561975D02*
G54D30*
D03*
X388144Y-550466D02*
G54D30*
D03*
X770731Y-510778D02*
G54D30*
D03*
X758031Y-577056D02*
G54D30*
D03*
X375047Y-550466D02*
G54D30*
D03*
X856059Y-497284D02*
G54D30*
D03*
X362347Y-511969D02*
G54D30*
D03*
X754062Y-505619D02*
G54D30*
D03*
X-1021556Y-507603D02*
G54D30*
D03*
X75406Y-13097D02*
G54D30*
D03*
X-477044Y11112D02*
G54D30*
D03*
X-369094Y11509D02*
G54D30*
D03*
X-113109Y10716D02*
G54D30*
D03*
X-569516Y-30162D02*
G54D30*
D03*
X-631428Y-46038D02*
G54D30*
D03*
X-696516Y-46434D02*
G54D30*
D03*
X-732631Y-105569D02*
G54D30*
D03*
X-911225Y-108347D02*
G54D30*
D03*
X-988219Y-250825D02*
G54D30*
D03*
X217884Y-468312D02*
G54D30*
D03*
X202803Y-470694D02*
G54D30*
D03*
X327819Y-122634D02*
G54D30*
D03*
X261541Y-117475D02*
G54D30*
D03*
X48022Y-66675D02*
G54D30*
D03*
X-104775Y-37703D02*
G54D30*
D03*
X-207566Y44450D02*
G54D30*
D03*
X-1018778Y18653D02*
G54D30*
D03*
X-566738Y46831D02*
G54D30*
D03*
X-1067991Y-437753D02*
G54D30*
D03*
X308372Y-189706D02*
G54D30*
D03*
X-54372Y-186928D02*
G54D30*
D03*
X110728Y-829072D02*
G54D30*
D03*
X241300Y-225425D02*
G54D30*
D03*
X-498872Y-269875D02*
G54D30*
D03*
X217091Y-187325D02*
G54D30*
D03*
X51594Y-270669D02*
G54D30*
D03*
X-271859Y-238919D02*
G54D30*
D03*
X66675Y-186531D02*
G54D30*
D03*
X-100409Y-145653D02*
G54D30*
D03*
X118666Y-189309D02*
G54D30*
D03*
X169466Y-480616D02*
G54D30*
D03*
X411559Y-475456D02*
G54D30*
D03*
X222250Y-491331D02*
G54D30*
D03*
X71438Y-735806D02*
G54D30*
D03*
X69850Y-791766D02*
G54D30*
D03*
X384572Y-294481D02*
G54D30*
D03*
X156766Y-286147D02*
G54D30*
D03*
X153988Y-349647D02*
G54D30*
D03*
X296069Y-348456D02*
G54D30*
D03*
X333772Y-724694D02*
G54D30*
D03*
X305594Y-627856D02*
G54D30*
D03*
X298450Y-380603D02*
G54D30*
D03*
X144066Y-622697D02*
G54D30*
D03*
X401241Y-388144D02*
G54D30*
D03*
X128191Y-340519D02*
G54D30*
D03*
X368697Y-331788D02*
G54D30*
D03*
X270669Y-334962D02*
G54D30*
D03*
X309959Y-838597D02*
G54D30*
D03*
X409178Y-841772D02*
G54D30*
D03*
X118754Y-360079D02*
G54D30*
D03*
X369491Y-361156D02*
G54D30*
D03*
X355203Y-625872D02*
G54D30*
D03*
X97234Y-470694D02*
G54D30*
D03*
X319484Y-494903D02*
G54D30*
D03*
X273844Y-506809D02*
G54D30*
D03*
X273237Y-720476D02*
G54D30*
D03*
X91281Y-412750D02*
G54D30*
D03*
X312738Y-405209D02*
G54D30*
D03*
X337741Y-459978D02*
G54D30*
D03*
X391319Y-460772D02*
G54D30*
D03*
X416322Y-550069D02*
G54D30*
D03*
X492919Y-559991D02*
G54D30*
D03*
X73819Y-413544D02*
G54D30*
D03*
X325438Y-406797D02*
G54D30*
D03*
X240506Y-434578D02*
G54D30*
D03*
X310356Y-736997D02*
G54D30*
D03*
X54372Y-558800D02*
G54D30*
D03*
X698103Y-577453D02*
G54D30*
D03*
X517525Y-575866D02*
G54D30*
D03*
X497284Y-581025D02*
G54D30*
D03*
X333375Y-558403D02*
G54D30*
D03*
X308372Y-564753D02*
G54D30*
D03*
X-656828Y-558403D02*
G54D30*
D03*
X55562Y-636191D02*
G54D30*
D03*
X-352822Y-619125D02*
G54D30*
D03*
X-319484Y-406400D02*
G54D30*
D03*
X-388541Y-403622D02*
G54D30*
D03*
X68262Y-617934D02*
G54D30*
D03*
X199231Y-636191D02*
G54D30*
D03*
X-81756Y-613569D02*
G54D30*
D03*
X39688Y-679053D02*
G54D30*
D03*
X-352425Y-683022D02*
G54D30*
D03*
X71041Y-661194D02*
G54D30*
D03*
X-54676Y-654045D02*
G54D30*
D03*
X232966Y-633016D02*
G54D30*
D03*
X161528Y-619125D02*
G54D30*
D03*
X278606Y-367903D02*
G54D30*
D03*
X-344884Y-345281D02*
G54D30*
D03*
X314325Y-510778D02*
G54D30*
D03*
X-107156Y-500459D02*
G54D30*
D03*
X438944Y-488950D02*
G54D30*
D03*
X298450Y-673894D02*
G54D30*
D03*
X-353219Y-660797D02*
G54D30*
D03*
X315119Y-549275D02*
G54D30*
D03*
X325438Y-646906D02*
G54D30*
D03*
X437728Y-650100D02*
G54D30*
D03*
X-60325Y-549275D02*
G54D30*
D03*
X325834Y-671116D02*
G54D30*
D03*
X69701Y-675270D02*
G54D30*
D03*
X406436Y-648739D02*
G54D30*
D03*
X343297Y-652462D02*
G54D30*
D03*
X402828Y-618331D02*
G54D30*
D03*
X365522Y-635397D02*
G54D30*
D03*
X358137Y-732787D02*
G54D30*
D03*
X416640Y-733773D02*
G54D30*
D03*
X325834Y-632222D02*
G54D30*
D03*
X326628Y-619125D02*
G54D30*
D03*
X520700Y-459978D02*
G54D30*
D03*
X420688Y-452834D02*
G54D30*
D03*
X423069Y-405606D02*
G54D30*
D03*
X-309166Y-406797D02*
G54D30*
D03*
X547688Y-467916D02*
G54D30*
D03*
X646112Y-454819D02*
G54D30*
D03*
X622300Y-136922D02*
G54D30*
D03*
X470297Y-125016D02*
G54D30*
D03*
X345281Y-203597D02*
G54D30*
D03*
X-104378Y-199231D02*
G54D30*
D03*
X615156Y-402034D02*
G54D30*
D03*
X800100Y-413147D02*
G54D30*
D03*
X850503Y-349250D02*
G54D30*
D03*
X617538Y-452041D02*
G54D30*
D03*
X798909Y-451644D02*
G54D30*
D03*
X911622Y-769144D02*
G54D30*
D03*
X621903Y-253603D02*
G54D30*
D03*
X705247Y-288131D02*
G54D30*
D03*
X927497Y-239316D02*
G54D30*
D03*
X920750Y-813594D02*
G54D30*
D03*
X586978Y-405606D02*
G54D30*
D03*
X828675Y-498078D02*
G54D30*
D03*
X781844Y-460772D02*
G54D30*
D03*
X820738Y-652066D02*
G54D30*
D03*
X579041Y-463550D02*
G54D30*
D03*
X759619Y-467519D02*
G54D30*
D03*
X612775Y-473075D02*
G54D30*
D03*
X630634Y-403622D02*
G54D30*
D03*
X890984Y-431800D02*
G54D30*
D03*
X872728Y-340916D02*
G54D30*
D03*
X566738Y-476250D02*
G54D30*
D03*
X682625Y-465138D02*
G54D30*
D03*
X694134Y-652859D02*
G54D30*
D03*
X720725Y-663178D02*
G54D30*
D03*
X710803Y-736203D02*
G54D30*
D03*
X842962Y-785019D02*
G54D30*
D03*
X841772Y-834231D02*
G54D30*
D03*
X501253Y-719534D02*
G54D30*
D03*
X553641Y-456406D02*
G54D30*
D03*
X729456Y-450453D02*
G54D30*
D03*
X540544Y-477838D02*
G54D30*
D03*
X708819Y-450056D02*
G54D30*
D03*
X516334Y-718741D02*
G54D30*
D03*
X269081Y-845344D02*
G54D30*
D03*
X96044Y-773906D02*
G54D30*
D03*
X-226616Y-712391D02*
G54D30*
D03*
X619522Y-661194D02*
G54D30*
D03*
X799306Y-630634D02*
G54D30*
D03*
X796925Y-750888D02*
G54D30*
D03*
X613569Y-626269D02*
G54D30*
D03*
X791766Y-619125D02*
G54D30*
D03*
X688578Y-633412D02*
G54D30*
D03*
X598488Y-573881D02*
G54D30*
D03*
X660797Y-572294D02*
G54D30*
D03*
X661591Y-590947D02*
G54D30*
D03*
X807244Y-575072D02*
G54D30*
D03*
X570706Y-554831D02*
G54D30*
D03*
X674688Y-587772D02*
G54D30*
D03*
X671116Y-612775D02*
G54D30*
D03*
X671512Y-719534D02*
G54D30*
D03*
X750491Y-621506D02*
G54D30*
D03*
X773509Y-651669D02*
G54D30*
D03*
X742950Y-653256D02*
G54D30*
D03*
X552053Y-653256D02*
G54D30*
D03*
X702866Y-679053D02*
G54D30*
D03*
X676672Y-687784D02*
G54D30*
D03*
X676672Y-707231D02*
G54D30*
D03*
X534988Y-655638D02*
G54D30*
D03*
X552847Y-722312D02*
G54D30*
D03*
X713978Y-628253D02*
G54D30*
D03*
X655241Y-250031D02*
G54D30*
D03*
X-329406Y-286544D02*
G54D30*
D03*
X703659Y-715962D02*
G54D30*
D03*
X823912Y-669131D02*
G54D30*
D03*
X-83741Y-588169D02*
G54D30*
D03*
X-165497Y-180975D02*
G54D30*
D03*
X-364331Y-195262D02*
G54D30*
D03*
X-484981Y-5953D02*
G54D30*
D03*
X-629841Y-12700D02*
G54D30*
D03*
X-643731Y-172244D02*
G54D30*
D03*
X-897731Y-173434D02*
G54D30*
D03*
X-179388Y-140494D02*
G54D30*
D03*
X-325438Y-145256D02*
G54D30*
D03*
X-336947Y-101600D02*
G54D30*
D03*
X-897731Y-111125D02*
G54D30*
D03*
X-169069Y-107553D02*
G54D30*
D03*
X-284162Y-81756D02*
G54D30*
D03*
X-421878Y-82153D02*
G54D30*
D03*
X-400050Y-340519D02*
G54D30*
D03*
X-1017984Y-325438D02*
G54D30*
D03*
X-177006Y-194866D02*
G54D30*
D03*
X-279003Y-194866D02*
G54D30*
D03*
X-370284Y-232172D02*
G54D30*
D03*
X-1038622Y-325834D02*
G54D30*
D03*
X-177800Y-207566D02*
G54D30*
D03*
X-461962Y-243284D02*
G54D30*
D03*
X-461169Y-221456D02*
G54D30*
D03*
X-479028Y-184944D02*
G54D30*
D03*
X-157956Y-93266D02*
G54D30*
D03*
X-197247Y-93266D02*
G54D30*
D03*
X-217091Y-5556D02*
G54D30*
D03*
X-249238Y-794D02*
G54D30*
D03*
X-329406Y-397D02*
G54D30*
D03*
X-329406Y-42466D02*
G54D30*
D03*
X-477441Y-35719D02*
G54D30*
D03*
X-211534Y-438547D02*
G54D30*
D03*
X-695722Y-456803D02*
G54D30*
D03*
X-623094Y-302022D02*
G54D30*
D03*
X-400050Y-183753D02*
G54D30*
D03*
X-673894Y-400050D02*
G54D30*
D03*
X-720464Y-421585D02*
G54D30*
D03*
X-1017191Y-412353D02*
G54D30*
D03*
X-189309Y-318294D02*
G54D30*
D03*
X-417512Y-328612D02*
G54D30*
D03*
X-410369Y-367903D02*
G54D30*
D03*
X-940594Y-372666D02*
G54D30*
D03*
X-163116Y-258762D02*
G54D30*
D03*
X-435769Y-282178D02*
G54D30*
D03*
X-425450Y-442516D02*
G54D30*
D03*
X-983059Y-433388D02*
G54D30*
D03*
X-81756Y-474266D02*
G54D30*
D03*
X685006Y-498872D02*
G54D30*
D03*
X818753Y-451644D02*
G54D30*
D03*
X-292497Y-103981D02*
G54D30*
D03*
X-524669Y-103188D02*
G54D30*
D03*
X-543322Y-145653D02*
G54D30*
D03*
X-669131Y-163116D02*
G54D30*
D03*
X-272966Y35406D02*
G54D30*
D03*
X-463466Y35406D02*
G54D30*
D03*
X-465138Y-26590D02*
G54D30*
D03*
X-235347Y9128D02*
G54D30*
D03*
X-213122Y-65881D02*
G54D30*
D03*
X-958850Y-68659D02*
G54D30*
D03*
X-833835Y-87709D02*
G54D30*
D03*
X-370682Y-55959D02*
G54D30*
D03*
X-226219Y-66675D02*
G54D30*
D03*
X-623094Y-74215D02*
G54D30*
D03*
X-915194Y-425450D02*
G54D30*
D03*
X-1009254Y-392509D02*
G54D30*
D03*
X-690960Y-385762D02*
G54D30*
D03*
X-705644Y-727868D02*
G54D30*
D03*
X-685404Y-725884D02*
G54D30*
D03*
X-788988Y-403622D02*
G54D30*
D03*
X-881857Y-384968D02*
G54D30*
D03*
X-231775Y-314722D02*
G54D30*
D03*
X-405210Y-310356D02*
G54D30*
D03*
X-388541Y-403622D02*
G54D30*
D03*
X-404581Y-403045D02*
G54D30*
D03*
X-962422Y-349250D02*
G54D30*
D03*
X-430610Y-53578D02*
G54D30*
D03*
X-896938Y-76200D02*
G54D30*
D03*
X-319088Y-94456D02*
G54D30*
D03*
X-396082Y-91281D02*
G54D30*
D03*
X-536972Y-82153D02*
G54D30*
D03*
X-368300Y-153988D02*
G54D30*
D03*
X-465138Y-153988D02*
G54D30*
D03*
X-317500Y-245665D02*
G54D30*
D03*
X678656Y-208756D02*
G54D30*
D03*
X-153591Y-229790D02*
G54D30*
D03*
X-602854Y55960D02*
G54D30*
D03*
X-704057Y794D02*
G54D30*
D03*
X-650875Y0D02*
G54D30*
D03*
X-527460Y9512D02*
G54D30*
D03*
X-876300Y-63500D02*
G54D30*
D03*
X-784225Y-145653D02*
G54D30*
D03*
X-842169Y-216694D02*
G54D30*
D03*
X-799307Y-221456D02*
G54D30*
D03*
X-692944Y-654844D02*
G54D30*
D03*
X-1052910Y794D02*
G54D30*
D03*
X-754857Y-125015D02*
G54D30*
D03*
X-1019175Y-400447D02*
G54D30*
D03*
X-1066007Y-306784D02*
G54D30*
D03*
X-773907Y-452040D02*
G54D30*
D03*
X-1031875Y-130968D02*
G54D30*
D03*
X-957263Y-55562D02*
G54D30*
D03*
X-653257Y-80962D02*
G54D30*
D03*
X-637778Y-343694D02*
G54D30*
D03*
X-591344Y-344487D02*
G54D30*
D03*
X-591741Y-749697D02*
G54D30*
D03*
X-656432Y-758428D02*
G54D30*
D03*
X-656828Y-798115D02*
G54D30*
D03*
X195262Y-831453D02*
G54D30*
D03*
X-904478Y-379809D02*
G54D30*
D03*
X-963216Y-137318D02*
G54D30*
D03*
X-1080691Y-324247D02*
G54D30*
D03*
X-895350Y-329009D02*
G54D30*
D03*
X-573882Y-364728D02*
G54D30*
D03*
X-904166Y-278125D02*
G54D30*
D03*
X-521494Y-368697D02*
G54D30*
D03*
X-913294Y-265425D02*
G54D30*
D03*
X-502841Y-368697D02*
G54D30*
D03*
X-442119Y-712390D02*
G54D30*
D03*
X-623491Y-713184D02*
G54D30*
D03*
X-693341Y-818356D02*
G54D30*
D03*
X244475Y-830262D02*
G54D30*
D03*
X-895350Y-260747D02*
G54D30*
D03*
X-521891Y-341312D02*
G54D30*
D03*
X-488554Y-450850D02*
G54D30*
D03*
X220662Y-443309D02*
G54D30*
D03*
X-713582Y-227409D02*
G54D30*
D03*
X-667544Y-828278D02*
G54D30*
D03*
X-958057Y-227012D02*
G54D30*
D03*
X-917575Y-217487D02*
G54D30*
D03*
X-654050Y-232172D02*
G54D30*
D03*
X-956866Y-202406D02*
G54D30*
D03*
X-575866Y-203994D02*
G54D30*
D03*
X-495697Y-242887D02*
G54D30*
D03*
X-429022Y-253603D02*
G54D30*
D03*
X-902891Y-223440D02*
G54D30*
D03*
X-696516Y-227409D02*
G54D30*
D03*
X-690563Y-422275D02*
G54D30*
D03*
X-598488Y-422672D02*
G54D30*
D03*
X-1054894Y-375444D02*
G54D30*
D03*
X-1069975Y-454422D02*
G54D30*
D03*
X-1019572Y-348853D02*
G54D30*
D03*
X-919163Y-399256D02*
G54D30*
D03*
X-867966Y-492125D02*
G54D30*
D03*
X-1035188Y-371612D02*
G54D30*
D03*
X-860425Y-474662D02*
G54D30*
D03*
X-1016397Y-438547D02*
G54D30*
D03*
X-595710Y-453628D02*
G54D30*
D03*
X-917575Y-615156D02*
G54D30*
D03*
X-800894Y-608012D02*
G54D30*
D03*
X-727075Y-756444D02*
G54D30*
D03*
X-734616Y-826294D02*
G54D30*
D03*
X-887016Y-623094D02*
G54D30*
D03*
X-762000Y-604440D02*
G54D30*
D03*
X-649685Y-735409D02*
G54D30*
D03*
X-481807Y-698897D02*
G54D30*
D03*
X-897335Y-508794D02*
G54D30*
D03*
X-754063Y-510778D02*
G54D30*
D03*
X-748501Y-562395D02*
G54D30*
D03*
X-637778Y-556022D02*
G54D30*
D03*
X-629444Y-599281D02*
G54D30*
D03*
X-618728Y-657225D02*
G54D30*
D03*
X-604044Y-716359D02*
G54D30*
D03*
X-973932Y-346472D02*
G54D30*
D03*
X-970757Y-404018D02*
G54D30*
D03*
X-819212Y-407255D02*
G54D30*
D03*
X-905272Y-622300D02*
G54D30*
D03*
X-676672Y-736203D02*
G54D30*
D03*
X-936188Y-660359D02*
G54D30*
D03*
X-1098550Y-377031D02*
G54D30*
D03*
X-978694Y33735D02*
G54D30*
D03*
X-825104Y37306D02*
G54D30*
D03*
X-907654Y-542528D02*
G54D30*
D03*
X-375444Y-528637D02*
G54D30*
D03*
X-954088Y-507999D02*
G54D30*
D03*
X-539750Y-409178D02*
G54D30*
D03*
X-515938Y-723900D02*
G54D30*
D03*
X-746522Y-608012D02*
G54D30*
D03*
X-611118Y-803517D02*
G54D30*
D03*
X-611118Y-749230D02*
G54D30*
D03*
X-812007Y-568722D02*
G54D30*
D03*
X-911622Y-572690D02*
G54D30*
D03*
X-758032Y-838200D02*
G54D30*
D03*
X-707628Y-838994D02*
G54D30*
D03*
X-810022Y-433784D02*
G54D30*
D03*
X-456407Y-434975D02*
G54D30*
D03*
X-758825Y-433784D02*
G54D30*
D03*
X451246Y-846137D02*
G54D30*
D03*
X-719138Y-667147D02*
G54D30*
D03*
X-775097Y-404415D02*
G54D30*
D03*
X-558007Y-552450D02*
G54D30*
D03*
X-522685Y-555625D02*
G54D30*
D03*
X-541735Y-723900D02*
G54D30*
D03*
X-540147Y-387350D02*
G54D30*
D03*
X-436960Y-390128D02*
G54D30*
D03*
X-529432Y-722709D02*
G54D30*
D03*
X-618332Y-601265D02*
G54D30*
D03*
X-624285Y-646112D02*
G54D30*
D03*
X-507207Y-692150D02*
G54D30*
D03*
X145653Y-726678D02*
G54D30*
D03*
X-506810Y-618728D02*
G54D30*
D03*
X-645319Y-601662D02*
G54D30*
D03*
X-590154Y-590153D02*
G54D30*
D03*
X631428Y60325D02*
G54D31*
D03*
X756046Y58135D02*
G54D31*
D03*
X425846Y33528D02*
G54D31*
D03*
X479028Y34719D02*
G54D31*
D03*
X604043Y34528D02*
G54D31*
D03*
X632618Y34528D02*
G54D31*
D03*
X809228Y31941D02*
G54D31*
D03*
X756046Y8922D02*
G54D31*
D03*
X705246Y9922D02*
G54D31*
D03*
X604043Y8335D02*
G54D31*
D03*
X580628Y9922D02*
G54D31*
D03*
X525859Y8922D02*
G54D31*
D03*
X427037Y-18462D02*
G54D31*
D03*
X425846Y-68072D02*
G54D31*
D03*
X451643Y-92678D02*
G54D31*
D03*
X425846Y-118475D02*
G54D31*
D03*
X450453Y-144668D02*
G54D31*
D03*
X424259Y-192690D02*
G54D31*
D03*
X424259Y-245872D02*
G54D31*
D03*
X424259Y-296672D02*
G54D31*
D03*
X527050Y-321278D02*
G54D31*
D03*
X579040Y-321278D02*
G54D31*
D03*
X632618Y-321278D02*
G54D31*
D03*
X680640Y-322865D02*
G54D31*
D03*
X706437Y-322865D02*
G54D31*
D03*
X806450Y-348662D02*
G54D31*
D03*
X757237Y-348662D02*
G54D31*
D03*
X708025Y-347472D02*
G54D31*
D03*
X656034Y-348662D02*
G54D31*
D03*
X604043Y-348662D02*
G54D31*
D03*
X527050Y-348662D02*
G54D31*
D03*
X476646Y-345884D02*
G54D31*
D03*
X427037Y-345884D02*
G54D31*
D03*
X808037Y-16081D02*
G54D31*
D03*
X808037Y-68072D02*
G54D31*
D03*
X806450Y-120062D02*
G54D31*
D03*
X781843Y-121253D02*
G54D31*
D03*
X781843Y-143478D02*
G54D31*
D03*
X806450Y-193881D02*
G54D31*
D03*
X806450Y-245872D02*
G54D31*
D03*
X806450Y-298259D02*
G54D31*
D03*
G54D32*
X-1081311Y-829311D02*
X-1075978Y-829311D01*
X-1075978Y-834866D01*
X-1077311Y-837089D01*
X-1079978Y-838200D01*
X-1082644Y-838200D01*
X-1085311Y-837089D01*
X-1086644Y-834866D01*
X-1086644Y-823755D01*
X-1085311Y-821533D01*
X-1082644Y-820422D01*
X-1079978Y-820422D01*
X-1077311Y-821533D01*
X-1075978Y-823755D01*
G54D32*
X-1071088Y-838200D02*
X-1071088Y-820422D01*
X-1060422Y-838200D01*
X-1060422Y-820422D01*
G54D32*
X-1055532Y-838200D02*
X-1055532Y-820422D01*
X-1048866Y-820422D01*
X-1046199Y-821533D01*
X-1044865Y-823755D01*
X-1044865Y-834866D01*
X-1046199Y-837089D01*
X-1048866Y-838200D01*
X-1055532Y-838200D01*
X899318Y75406D02*
G54D30*
D03*
X900509Y74010D02*
G54D31*
D03*
X908446Y-297862D02*
G54D31*
D03*
X343296Y-286147D02*
G54D30*
D03*
X342900Y-285353D02*
G54D31*
D03*
X284162Y-190103D02*
G54D30*
D03*
X283765Y-190103D02*
G54D31*
D03*
X15875Y-262731D02*
G54D30*
D03*
X17462Y-261540D02*
G54D31*
D03*
X187722Y-325437D02*
G54D30*
D03*
X187722Y-324644D02*
G54D31*
D03*
X175022Y-249634D02*
G54D30*
D03*
X175022Y-250031D02*
G54D31*
D03*
X13890Y-493315D02*
G54D30*
D03*
X182165Y-504825D02*
G54D30*
D03*
X157559Y-467122D02*
G54D30*
D03*
X17065Y-493315D02*
G54D31*
D03*
X157956Y-463947D02*
G54D31*
D03*
X182959Y-505618D02*
G54D31*
D03*
X20637Y-650875D02*
G54D30*
D03*
X188515Y-679053D02*
G54D30*
D03*
X178196Y-618331D02*
G54D30*
D03*
X21034Y-647700D02*
G54D31*
D03*
X182165Y-617140D02*
G54D31*
D03*
X185340Y-675084D02*
G54D31*
D03*
X440134Y-502047D02*
G54D30*
D03*
X438546Y-404812D02*
G54D30*
D03*
X286146Y-487759D02*
G54D30*
D03*
X442515Y-407987D02*
G54D31*
D03*
X443309Y-504825D02*
G54D31*
D03*
X286940Y-486568D02*
G54D31*
D03*
X435768Y-677862D02*
G54D30*
D03*
X428625Y-621506D02*
G54D30*
D03*
X269478Y-670718D02*
G54D30*
D03*
X268684Y-669131D02*
G54D31*
D03*
X429815Y-619522D02*
G54D31*
D03*
X436165Y-679450D02*
G54D33*
D03*
X478234Y-511968D02*
G54D30*
D03*
X648096Y-508794D02*
G54D30*
D03*
X635396Y-484981D02*
G54D30*
D03*
X478234Y-508794D02*
G54D31*
D03*
X640159Y-481806D02*
G54D31*
D03*
X648096Y-507206D02*
G54D31*
D03*
X767159Y-477044D02*
G54D30*
D03*
X827484Y-510381D02*
G54D30*
D03*
X814784Y-413544D02*
G54D30*
D03*
X771922Y-481806D02*
G54D31*
D03*
X829072Y-515144D02*
G54D31*
D03*
X814784Y-415131D02*
G54D34*
D03*
X485309Y-680431D02*
G54D30*
D03*
X654309Y-716606D02*
G54D30*
D03*
X637722Y-639606D02*
G54D30*
D03*
X486309Y-677431D02*
G54D31*
D03*
X639309Y-635431D02*
G54D31*
D03*
X652309Y-711431D02*
G54D31*
D03*
X779309Y-746431D02*
G54D30*
D03*
X827309Y-713431D02*
G54D30*
D03*
X799309Y-646431D02*
G54D30*
D03*
X779309Y-742431D02*
G54D31*
D03*
X830309Y-709431D02*
G54D31*
D03*
X-557691Y-617431D02*
G54D30*
D03*
X-558691Y-619431D02*
G54D31*
D03*
X-134691Y-93431D02*
G54D30*
D03*
X-152691Y-293431D02*
G54D30*
D03*
X-134691Y-96431D02*
G54D31*
D03*
X-151691Y-292431D02*
G54D31*
D03*
X-152691Y-54431D02*
G54D30*
D03*
X-50691Y-31431D02*
G54D30*
D03*
X-149691Y-55431D02*
G54D31*
D03*
X-47691Y-33431D02*
G54D31*
D03*
X-379691Y-180431D02*
G54D30*
D03*
X-380691Y-177431D02*
G54D31*
D03*
X-345691Y-281431D02*
G54D30*
D03*
X-347691Y-281431D02*
G54D31*
D03*
X-548691Y-77431D02*
G54D30*
D03*
X-552691Y-77431D02*
G54D31*
D03*
G54D35*
X-548691Y-77431D02*
X-550691Y-77431D01*
X-550691Y-85431D01*
X-534691Y-101431D01*
X-534691Y-109431D01*
X-510691Y-133431D01*
X-318691Y-133431D01*
X-310691Y-141431D01*
X-254691Y-141431D01*
X-246691Y-149431D01*
X-206691Y-149431D01*
X-190691Y-165431D01*
X-158691Y-165431D01*
X-78691Y-245431D01*
X33309Y-245431D01*
X49309Y-261431D01*
X57309Y-261431D01*
X65309Y-269431D01*
X313309Y-269431D01*
X329309Y-285431D01*
X345309Y-285431D01*
X343297Y-286147D01*
X-765691Y-217431D02*
G54D30*
D03*
X-843928Y-87018D02*
G54D30*
D03*
X-849691Y-87431D02*
G54D31*
D03*
X-765691Y-217431D02*
G54D31*
D03*
X-866691Y-30431D02*
G54D30*
D03*
X-1006691Y-130431D02*
G54D30*
D03*
X-1005691Y-130431D02*
G54D30*
D03*
X-1005691Y-129431D02*
G54D31*
D03*
X-864691Y-30431D02*
G54D31*
D03*
X-1097691Y-199431D02*
G54D30*
D03*
X-1005691Y-313431D02*
G54D30*
D03*
X-1097691Y-200431D02*
G54D31*
D03*
X-1006691Y-309431D02*
G54D31*
D03*
X-1003691Y-436431D02*
G54D30*
D03*
X-1106866Y-430431D02*
G54D30*
D03*
X-1110628Y-431431D02*
G54D31*
D03*
X-999691Y-439431D02*
G54D31*
D03*
X-996691Y-614431D02*
G54D30*
D03*
X-1001691Y-614431D02*
G54D31*
D03*
X-862691Y-621431D02*
G54D30*
D03*
X-863691Y-619431D02*
G54D31*
D03*
X-722691Y-643431D02*
G54D30*
D03*
X-725691Y-643431D02*
G54D31*
D03*
G54D35*
X-725691Y-643431D02*
X-727691Y-645431D01*
X-751691Y-621431D01*
X-863691Y-621431D01*
X-863691Y-619431D01*
G54D35*
X-863691Y-619431D02*
X-863691Y-621431D01*
X-895691Y-589431D01*
X-983691Y-589431D01*
X-999691Y-605431D01*
X-999691Y-613431D01*
X-1001691Y-614431D01*
X-860691Y-388431D02*
G54D30*
D03*
X-719691Y-452431D02*
G54D30*
D03*
X-720691Y-454431D02*
G54D31*
D03*
X-859691Y-389431D02*
G54D31*
D03*
X-837691Y-452431D02*
G54D30*
D03*
X-838691Y-453431D02*
G54D31*
D03*
X-860691Y-260431D02*
G54D30*
D03*
X-743866Y-341018D02*
G54D30*
D03*
X-861691Y-261431D02*
G54D31*
D03*
X-739691Y-334431D02*
G54D31*
D03*
X-567691Y-287431D02*
G54D30*
D03*
X-670691Y-256431D02*
G54D30*
D03*
X-672691Y-259431D02*
G54D31*
D03*
X-569691Y-286431D02*
G54D31*
D03*
X-478691Y-238431D02*
G54D30*
D03*
X-540691Y-295431D02*
G54D30*
D03*
X-540691Y-294431D02*
G54D31*
D03*
X-479691Y-236431D02*
G54D31*
D03*
G54D35*
X-540691Y-294431D02*
X-542691Y-293431D01*
X-534691Y-285431D01*
X-494691Y-285431D01*
X-478691Y-269431D01*
X-478691Y-237431D01*
X-478691Y-238431D01*
X-692866Y-698431D02*
G54D30*
D03*
X-583691Y-617431D02*
G54D30*
D03*
X-585691Y-619431D02*
G54D31*
D03*
X-689691Y-697431D02*
G54D31*
D03*
X-530691Y-618431D02*
G54D30*
D03*
X-531691Y-618431D02*
G54D31*
D03*
G54D35*
X-689691Y-697431D02*
X-687691Y-701431D01*
X-655691Y-669431D01*
X-615691Y-669431D01*
X-583691Y-637431D01*
X-583691Y-621431D01*
X-585691Y-619431D01*
G54D35*
X-584691Y-619431D02*
X-582691Y-621431D01*
X-558691Y-621431D01*
X-557691Y-619431D01*
G54D35*
X-531691Y-618431D02*
X-527691Y-621431D01*
X-559691Y-621431D01*
X-558691Y-619431D01*
X-574691Y-553431D02*
G54D30*
D03*
X-614691Y-556431D02*
G54D30*
D03*
X-575691Y-553431D02*
G54D31*
D03*
X-614691Y-558431D02*
G54D31*
D03*
X-649691Y-414431D02*
G54D30*
D03*
X-649691Y-416431D02*
G54D31*
D03*
G54D35*
X-649691Y-416431D02*
X-646691Y-413431D01*
X-614691Y-445431D01*
X-614691Y-557431D01*
X-613691Y-558431D01*
X-403691Y-591431D02*
G54D31*
D03*
G54D35*
X-403691Y-591431D02*
X-406691Y-589431D01*
X-430691Y-565431D01*
X-558691Y-565431D01*
X-566691Y-557431D01*
X-574691Y-557431D01*
X-575691Y-553431D01*
X-559691Y-387431D02*
G54D36*
D03*
X-379691Y-428431D02*
G54D30*
D03*
X-379691Y-427431D02*
G54D36*
D03*
G54D35*
X-379691Y-427431D02*
X-382691Y-429431D01*
X-398691Y-413431D01*
X-406691Y-413431D01*
X-414691Y-405431D01*
X-438691Y-405431D01*
X-446691Y-397431D01*
X-542691Y-397431D01*
X-550691Y-389431D01*
X-558691Y-389431D01*
X-559691Y-387431D01*
X271309Y-155431D02*
G54D30*
D03*
X275309Y-154431D02*
G54D36*
D03*
G54D35*
X275309Y-155431D02*
X273309Y-158431D01*
X289309Y-142431D01*
X377309Y-142431D01*
X393309Y-158431D01*
X433309Y-158431D01*
X449309Y-142431D01*
X451644Y-144272D01*
X348309Y-368431D02*
G54D30*
D03*
X345309Y-369431D02*
G54D36*
D03*
G54D35*
X345309Y-369431D02*
X345309Y-365431D01*
X337309Y-357431D01*
X337309Y-317431D01*
X361309Y-293431D01*
X361309Y-277431D01*
X360759Y-238918D01*
X321309Y-237431D01*
X305309Y-237431D01*
X297309Y-229431D01*
X297309Y-173431D01*
X281309Y-157431D01*
X273309Y-157431D01*
X275309Y-154431D01*
X274309Y-32431D02*
G54D30*
D03*
X275309Y-32431D02*
G54D34*
D03*
G54D35*
X275309Y-33431D02*
X273309Y-30431D01*
X409309Y-30431D01*
X417309Y-22431D01*
X425309Y-22431D01*
X427037Y-18462D01*
G54D35*
X900509Y74010D02*
X897309Y73569D01*
X873309Y49569D01*
X825309Y49569D01*
X809309Y33569D01*
X809228Y31941D01*
X231309Y-370431D02*
G54D30*
D03*
X231309Y-372431D02*
G54D37*
D03*
X-772691Y-834431D02*
G54D30*
D03*
X-774691Y-835431D02*
G54D37*
D03*
G54D35*
X-47691Y-33431D02*
X-46691Y-29431D01*
X-54691Y-29431D01*
X-62691Y-21431D01*
X-110691Y-21431D01*
X-142691Y-53431D01*
X-150691Y-53431D01*
X-149691Y-55431D01*
X-559691Y-752431D02*
G54D38*
D03*
X-533691Y-752431D02*
G54D38*
D03*
X-509691Y-752431D02*
G54D38*
D03*
X-327691Y-751431D02*
G54D38*
D03*
X-253691Y-752431D02*
G54D38*
D03*
X-177691Y-753431D02*
G54D38*
D03*
X-101691Y-751431D02*
G54D38*
D03*
X-24691Y-751431D02*
G54D38*
D03*
X210309Y-752431D02*
G54D38*
D03*
X286309Y-751431D02*
G54D38*
D03*
X337309Y-751431D02*
G54D38*
D03*
X361309Y-752431D02*
G54D38*
D03*
X438309Y-751431D02*
G54D38*
D03*
X516309Y-752431D02*
G54D38*
D03*
X715309Y-751431D02*
G54D38*
D03*
X689309Y-751431D02*
G54D38*
D03*
X665309Y-753431D02*
G54D38*
D03*
X-544691Y-808431D02*
G54D38*
D03*
X-520691Y-809431D02*
G54D38*
D03*
X-494691Y-809431D02*
G54D38*
D03*
X-342691Y-809431D02*
G54D38*
D03*
X-316691Y-807431D02*
G54D38*
D03*
X-264691Y-809431D02*
G54D38*
D03*
X-239691Y-809431D02*
G54D38*
D03*
X-187691Y-811431D02*
G54D38*
D03*
X-163691Y-811431D02*
G54D38*
D03*
X-112691Y-808431D02*
G54D38*
D03*
X-86691Y-808431D02*
G54D38*
D03*
X-34691Y-809431D02*
G54D38*
D03*
X-10691Y-809431D02*
G54D38*
D03*
X197309Y-809431D02*
G54D38*
D03*
X222309Y-809431D02*
G54D38*
D03*
X730309Y-809431D02*
G54D38*
D03*
X705309Y-808431D02*
G54D38*
D03*
X680309Y-809431D02*
G54D38*
D03*
X528309Y-809431D02*
G54D38*
D03*
X502309Y-808431D02*
G54D38*
D03*
X449309Y-809431D02*
G54D38*
D03*
X424309Y-811431D02*
G54D38*
D03*
X374309Y-809431D02*
G54D38*
D03*
X348309Y-809431D02*
G54D38*
D03*
X297309Y-809431D02*
G54D38*
D03*
X274309Y-808431D02*
G54D38*
D03*
G54D35*
X312309Y-269431D02*
X312309Y-237431D01*
G54D35*
X297309Y-193431D02*
X292309Y-193431D01*
G54D35*
X441309Y-138431D02*
X440309Y-138431D01*
X430309Y-128431D01*
G54D35*
X433309Y-111431D02*
X434309Y-111431D01*
X445309Y-100431D01*
G54D35*
X445309Y-86431D02*
X444309Y-86431D01*
X433309Y-75431D01*
G54D35*
X417309Y-184431D02*
X417309Y-182431D01*
X413309Y-178431D01*
X413309Y-160431D01*
X415309Y-158431D01*
G54D35*
X416309Y-201431D02*
X415309Y-201431D01*
X413309Y-203431D01*
X413309Y-232431D01*
X417309Y-236431D01*
G54D35*
X415309Y-254431D02*
X415309Y-255431D01*
X412309Y-258431D01*
X412309Y-285431D01*
X416309Y-289431D01*
G54D35*
X416309Y-305431D02*
X411309Y-310431D01*
X411309Y-333431D01*
X419484Y-341606D01*
G54D35*
X434309Y-338431D02*
X434309Y-336431D01*
X438896Y-335018D01*
X464309Y-333431D01*
X471309Y-340431D01*
G54D35*
X483309Y-339431D02*
X485309Y-339431D01*
X489309Y-335431D01*
X520309Y-335431D01*
X524309Y-339431D01*
X524309Y-334431D01*
X527896Y-329256D01*
G54D35*
X527309Y-330431D02*
X528309Y-330431D01*
X531309Y-333431D01*
X573309Y-333431D01*
X578309Y-328431D01*
G54D35*
X584309Y-327431D02*
X587309Y-327431D01*
X601309Y-341431D01*
G54D35*
X610309Y-343431D02*
X608959Y-343431D01*
X631484Y-322494D01*
G54D35*
X632372Y-317906D02*
X641896Y-334844D01*
X651309Y-347431D01*
G54D35*
X662309Y-345431D02*
X664309Y-345431D01*
X681309Y-328431D01*
G54D35*
X682309Y-323431D02*
X708309Y-323431D01*
G54D35*
X710309Y-324431D02*
X710309Y-347431D01*
X709309Y-348431D01*
G54D35*
X710309Y-352431D02*
X714309Y-352431D01*
X720309Y-358431D01*
X751309Y-358431D01*
X756309Y-353431D01*
G54D35*
X761309Y-354431D02*
X761309Y-355431D01*
X766309Y-360431D01*
X796309Y-360431D01*
X803309Y-353431D01*
G54D35*
X809959Y-347194D02*
X816309Y-341431D01*
X820309Y-337431D01*
X820309Y-310431D01*
X813309Y-303431D01*
G54D35*
X811309Y-289431D02*
X814309Y-289431D01*
X820309Y-283431D01*
X820309Y-260431D01*
X811309Y-251431D01*
G54D35*
X811309Y-238431D02*
X814309Y-238431D01*
X820309Y-232431D01*
X820309Y-204431D01*
X813309Y-197431D01*
G54D35*
X814309Y-184431D02*
X816309Y-184431D01*
X820309Y-180431D01*
X820309Y-136431D01*
X810309Y-126431D01*
G54D35*
X802309Y-127431D02*
X782309Y-127431D01*
X782309Y-141431D01*
X785309Y-144431D01*
G54D35*
X812309Y-113431D02*
X819309Y-106431D01*
X819309Y-78431D01*
X816309Y-75431D01*
G54D35*
X814309Y-62431D02*
X815309Y-62431D01*
X820309Y-57431D01*
X820309Y-22431D01*
X816309Y-18431D01*
G54D35*
X815309Y-9431D02*
X815309Y-6431D01*
X818309Y-3431D01*
X818309Y27569D01*
X815309Y30569D01*
G54D35*
X798309Y25569D02*
X797309Y25569D01*
X795309Y23569D01*
X771309Y23569D01*
X765309Y17569D01*
G54D35*
X771309Y24569D02*
X771309Y42569D01*
X760309Y53569D01*
G54D35*
X746309Y16569D02*
X746309Y17569D01*
X741309Y22569D01*
X717309Y22569D01*
X711309Y16569D01*
G54D35*
X697309Y19569D02*
X693309Y19569D01*
X690309Y22569D01*
X644309Y22569D01*
X638309Y28569D01*
G54D35*
X639309Y41569D02*
X639309Y56569D01*
G54D35*
X628309Y37569D02*
X613309Y37569D01*
X610309Y34569D01*
G54D35*
X606309Y27569D02*
X606309Y12569D01*
X606309Y25569D01*
X603309Y28569D01*
X602309Y28569D01*
X586309Y12569D01*
G54D35*
X574309Y17569D02*
X570309Y17569D01*
X566309Y21569D01*
X535309Y21569D01*
X530309Y16569D01*
G54D35*
X518309Y16569D02*
X513309Y16569D01*
X508309Y21569D01*
X492309Y21569D01*
X483309Y30569D01*
G54D35*
X470309Y24569D02*
X469309Y24569D01*
X466309Y21569D01*
X431309Y21569D01*
X426309Y26569D01*
G54D35*
X438309Y19569D02*
X438309Y-9431D01*
X433309Y-14431D01*
G54D35*
X433309Y-26431D02*
X438309Y-31431D01*
X438309Y-56431D01*
X431309Y-63431D01*
G54D35*
X819546Y-332581D02*
X867172Y-332581D01*
X908446Y-334168D01*
X908446Y-296068D01*
G54D35*
X814784Y-356394D02*
X814784Y-359568D01*
X819546Y-364331D01*
X819546Y-402431D01*
X813196Y-408781D01*
G54D35*
X765572Y-775494D02*
X765572Y-758031D01*
X775096Y-748506D01*
X775096Y-740568D01*
X808434Y-707231D01*
X829072Y-707231D01*
X832246Y-704056D01*
X833834Y-704056D01*
X846534Y-691356D01*
X846534Y-665956D01*
X824309Y-643731D01*
X824309Y-516731D01*
X824309Y-510381D01*
X810022Y-496094D01*
X786209Y-496094D01*
X778272Y-488156D01*
G54D35*
X810022Y-496094D02*
X810022Y-418306D01*
G54D35*
X648096Y-732631D02*
X648096Y-707231D01*
X652859Y-702468D01*
X652859Y-643731D01*
X641746Y-632618D01*
X641746Y-483394D01*
X646509Y-478631D01*
G54D35*
X490934Y-673894D02*
X484584Y-673894D01*
X478234Y-583406D01*
X462359Y-561181D01*
X462359Y-524668D01*
X478234Y-508794D01*
X449659Y-508794D01*
G54D35*
X435372Y-700881D02*
X435372Y-673894D01*
G54D35*
X481409Y-672306D02*
X481409Y-661194D01*
X436959Y-616744D01*
G54D35*
X260746Y-662781D02*
X235346Y-611981D01*
X244872Y-531018D01*
X286146Y-515144D01*
X286146Y-491331D01*
X289322Y-488156D01*
G54D35*
X284559Y-481806D02*
X284559Y-429418D01*
X233759Y-378618D01*
X233759Y-375444D01*
X190896Y-332581D01*
G54D35*
X182959Y-316706D02*
X182959Y-246856D01*
G54D35*
X-147241Y-292894D02*
X-9128Y-292894D01*
X17859Y-265906D01*
G54D35*
X-399654Y-591344D02*
X-394891Y-591344D01*
X-356791Y-553244D01*
X-356791Y-442118D01*
X-375841Y-423068D01*
G54D35*
X-579041Y-613568D02*
X-579041Y-558006D01*
G54D35*
X-588566Y-615156D02*
X-588566Y-613568D01*
X-606028Y-596106D01*
X-606028Y-564356D01*
X-610791Y-559594D01*
G54D35*
X-691754Y-692944D02*
X-691754Y-673894D01*
X-723504Y-642144D01*
G54D35*
X-1106091Y-431006D02*
X-1094978Y-431006D01*
X-1088628Y-424656D01*
X-1088628Y-346868D01*
X-1101328Y-334168D01*
X-1106091Y-270668D01*
X-1101328Y-207168D01*
X-1098154Y-203994D01*
G54D35*
X-1099741Y-199231D02*
X-1099741Y-148431D01*
X-1093391Y-142081D01*
X-1012428Y-142081D01*
X-1002904Y-132556D01*
G54D35*
X-1104504Y-281781D02*
X-1034654Y-281781D01*
X-1012428Y-304006D01*
G54D35*
X-1103691Y-430431D02*
X-1106091Y-427831D01*
X-1010841Y-427831D01*
X-1004491Y-434181D01*
X-1003691Y-436431D01*
G54D35*
X-540691Y-295431D02*
X-540941Y-294481D01*
X-515541Y-269081D01*
X-515541Y-97631D01*
X-521891Y-91281D01*
X-540941Y-91281D01*
X-547291Y-84931D01*
X-547291Y-78581D01*
X-548691Y-77431D01*
G54D35*
X-569691Y-286431D02*
X-572691Y-288131D01*
X-604441Y-256381D01*
X-667941Y-256381D01*
X-670691Y-256431D01*
G54D35*
X-670691Y-256431D02*
X-667941Y-256381D01*
X-686991Y-237331D01*
X-686991Y-224631D01*
X-693341Y-218281D01*
X-763191Y-218281D01*
X-765691Y-217431D01*
G54D35*
X-860691Y-260431D02*
X-858441Y-262731D01*
X-826691Y-230981D01*
X-794941Y-230981D01*
X-782241Y-218281D01*
X-763191Y-218281D01*
X-765691Y-217431D01*
G54D35*
X-860691Y-260431D02*
X-858441Y-262731D01*
X-852091Y-256381D01*
X-852091Y-84931D01*
X-849691Y-87431D01*
G54D35*
X-1005691Y-130431D02*
X-1004491Y-129381D01*
X-960041Y-84931D01*
X-921941Y-84931D01*
X-864791Y-27781D01*
X-866691Y-30431D01*
G54D35*
X-866691Y-30431D02*
X-864791Y-27781D01*
X-845741Y-46831D01*
X-845741Y-84931D01*
X-848691Y-85431D01*
G54D35*
X-564754Y-289718D02*
X-545704Y-289718D01*
X-544116Y-291306D01*
G54D35*
X-739691Y-334431D02*
X-737791Y-332581D01*
X-790178Y-256381D01*
X-858441Y-262731D01*
X-860691Y-260431D01*
G54D35*
X-739691Y-334431D02*
X-737791Y-332581D01*
X-731441Y-338931D01*
X-731441Y-427831D01*
X-718741Y-440531D01*
X-718741Y-453231D01*
X-720691Y-454431D01*
G54D35*
X-837691Y-452431D02*
X-839391Y-453231D01*
X-826691Y-465931D01*
X-769541Y-465931D01*
X-756841Y-453231D01*
X-718741Y-453231D01*
X-720691Y-454431D01*
G54D35*
X-859691Y-389431D02*
X-858441Y-389731D01*
X-864791Y-396081D01*
X-890191Y-396081D01*
X-896541Y-389731D01*
X-972741Y-389731D01*
X-998141Y-415131D01*
X-998141Y-440531D01*
X-999691Y-439431D01*
G54D35*
X-718741Y-442118D02*
X-666354Y-442118D01*
X-647304Y-423068D01*
G54D35*
X-478691Y-238431D02*
X-477441Y-237331D01*
X-471091Y-230981D01*
X-458391Y-230981D01*
X-452041Y-224631D01*
X-439341Y-224631D01*
X-407591Y-192881D01*
X-394891Y-192881D01*
X-382191Y-180181D01*
X-379691Y-180431D01*
G54D35*
X-345691Y-281431D02*
X-344091Y-281781D01*
X-350441Y-275431D01*
X-350441Y-192881D01*
X-363141Y-180181D01*
X-382191Y-180181D01*
X-379691Y-180431D01*
G54D35*
X-379691Y-428431D02*
X-382191Y-427831D01*
X-356791Y-402431D01*
X-356791Y-338931D01*
X-344091Y-326231D01*
X-344091Y-281781D01*
X-345691Y-281431D01*
G54D35*
X-552691Y-77431D02*
X-553641Y-78581D01*
X-540941Y-91281D01*
X-521891Y-91281D01*
X-502841Y-110331D01*
X-426641Y-110331D01*
X-420291Y-116681D01*
X-159941Y-116681D01*
X-134541Y-91281D01*
X-134691Y-93431D01*
G54D35*
X-149691Y-55431D02*
X-147241Y-53181D01*
X-134541Y-65881D01*
X-134541Y-97631D01*
X-134691Y-96431D01*
G54D35*
X274309Y-32431D02*
X271859Y-34131D01*
X240109Y-2381D01*
X43259Y-2381D01*
X11509Y-34131D01*
X-45641Y-34131D01*
X-47691Y-33431D01*
G54D35*
X231309Y-370431D02*
X233759Y-370681D01*
X157559Y-446881D01*
X157559Y-465931D01*
X157559Y-467122D01*
G54D35*
X157559Y-467122D02*
X157559Y-465931D01*
X151209Y-472281D01*
X151209Y-478631D01*
X138509Y-491331D01*
X17859Y-491331D01*
X18653Y-493315D01*
G54D35*
X157559Y-467122D02*
X157559Y-465931D01*
X170259Y-465931D01*
X182959Y-478631D01*
X182959Y-504031D01*
X182165Y-504825D01*
G54D35*
X20637Y-650875D02*
X21034Y-650081D01*
X14684Y-643731D01*
X14684Y-491331D01*
X15478Y-493315D01*
G54D35*
X178197Y-618331D02*
X176609Y-618331D01*
X144859Y-650081D01*
X24209Y-650081D01*
X23812Y-650875D01*
G54D35*
X185340Y-675084D02*
X182959Y-675481D01*
X208359Y-650081D01*
X208359Y-631031D01*
X195659Y-618331D01*
X182959Y-618331D01*
X182165Y-617140D01*
G54D35*
X268684Y-669131D02*
X265509Y-669131D01*
X259159Y-662781D01*
X195659Y-662781D01*
X189309Y-669131D01*
X189309Y-681831D01*
X188515Y-679053D01*
G54D35*
X22622Y-254794D02*
X22622Y-245268D01*
G54D35*
X438547Y-404812D02*
X436959Y-402431D01*
X436959Y-408781D01*
X430609Y-415131D01*
X417909Y-415131D01*
X398859Y-413544D01*
X392509Y-407194D01*
X386159Y-389731D01*
X386159Y-364331D01*
X392509Y-357981D01*
X411559Y-357981D01*
X424259Y-345281D01*
X426244Y-346472D01*
G54D35*
X442515Y-407987D02*
X443309Y-408781D01*
X449659Y-415131D01*
X449659Y-491331D01*
X443309Y-497681D01*
X443309Y-504031D01*
X440134Y-502047D01*
G54D35*
X719534Y-753268D02*
X663972Y-753268D01*
G54D35*
X733822Y-808831D02*
X679846Y-808831D01*
G54D35*
X522684Y-810418D02*
X506809Y-810418D01*
X503634Y-813594D01*
G54D35*
X449659Y-812006D02*
X422672Y-812006D01*
G54D35*
X375046Y-808831D02*
X346472Y-808831D01*
X344884Y-807244D01*
G54D35*
X297259Y-807244D02*
X276622Y-807244D01*
X273446Y-810418D01*
G54D35*
X221059Y-808831D02*
X195659Y-808831D01*
G54D35*
X360759Y-751681D02*
X340122Y-751681D01*
X338534Y-753268D01*
G54D35*
X-7541Y-807244D02*
X-40878Y-807244D01*
G54D35*
X-83741Y-808831D02*
X-117078Y-808831D01*
G54D35*
X-161528Y-808831D02*
X-194866Y-808831D01*
G54D35*
X-240904Y-812006D02*
X-263128Y-812006D01*
X-266304Y-808831D01*
G54D35*
X-313928Y-807244D02*
X-339328Y-807244D01*
X-342504Y-810418D01*
X-342504Y-808831D01*
G54D35*
X-491728Y-810418D02*
X-548878Y-810418D01*
G54D35*
X-509191Y-748506D02*
X-555228Y-748506D01*
X-561578Y-754856D01*
G54D35*
X-545230Y-809436D02*
X-547291Y-808831D01*
X-553641Y-802481D01*
X-566341Y-802481D01*
X-572691Y-796131D01*
X-572691Y-783431D01*
X-559991Y-770731D01*
X-559991Y-751681D01*
X-558800Y-752079D01*
G54D35*
X-330200Y-752079D02*
X-331391Y-751681D01*
X-344091Y-738981D01*
X-490141Y-738981D01*
X-502841Y-751681D01*
X-509191Y-751681D01*
X-508000Y-752079D01*
G54D35*
X-254000Y-752079D02*
X-255191Y-751681D01*
X-267891Y-738981D01*
X-312341Y-738981D01*
X-325041Y-751681D01*
X-331391Y-751681D01*
X-330200Y-752079D01*
G54D35*
X-177800Y-752079D02*
X-178991Y-751681D01*
X-191691Y-738981D01*
X-236141Y-738981D01*
X-248841Y-751681D01*
X-255191Y-751681D01*
X-254000Y-752079D01*
G54D35*
X-101600Y-752079D02*
X-102791Y-751681D01*
X-115491Y-738981D01*
X-159941Y-738981D01*
X-172641Y-751681D01*
X-178991Y-751681D01*
X-177800Y-752079D01*
G54D35*
X-25400Y-752079D02*
X-26591Y-751681D01*
X-39291Y-738981D01*
X-83741Y-738981D01*
X-96441Y-751681D01*
X-102791Y-751681D01*
X-101600Y-752079D01*
G54D35*
X-342030Y-809436D02*
X-344091Y-808831D01*
X-356791Y-821531D01*
X-477441Y-821531D01*
X-490141Y-808831D01*
X-496491Y-808831D01*
X-494430Y-809436D01*
G54D35*
X-265830Y-809436D02*
X-267891Y-808831D01*
X-280591Y-821531D01*
X-299641Y-821531D01*
X-312341Y-808831D01*
X-318691Y-808831D01*
X-316630Y-809436D01*
G54D35*
X-189630Y-809436D02*
X-191691Y-808831D01*
X-204391Y-821531D01*
X-223441Y-821531D01*
X-236141Y-808831D01*
X-242491Y-808831D01*
X-240430Y-809436D01*
G54D35*
X-113431Y-809436D02*
X-115491Y-808831D01*
X-128191Y-821531D01*
X-147241Y-821531D01*
X-159941Y-808831D01*
X-166291Y-808831D01*
X-164230Y-809436D01*
G54D35*
X-37230Y-809436D02*
X-39291Y-808831D01*
X-51991Y-821531D01*
X-71041Y-821531D01*
X-83741Y-808831D01*
X-90091Y-808831D01*
X-88031Y-809436D01*
G54D35*
X273920Y-809436D02*
X271859Y-808831D01*
X259159Y-821531D01*
X240109Y-821531D01*
X227409Y-808831D01*
X221059Y-808831D01*
X223120Y-809436D01*
G54D35*
X350120Y-809436D02*
X348059Y-808831D01*
X335359Y-821531D01*
X316309Y-821531D01*
X303609Y-808831D01*
X297259Y-808831D01*
X299320Y-809436D01*
G54D35*
X426320Y-809436D02*
X424259Y-808831D01*
X411559Y-821531D01*
X392509Y-821531D01*
X379809Y-808831D01*
X373459Y-808831D01*
X375520Y-809436D01*
G54D35*
X502520Y-809436D02*
X500459Y-808831D01*
X487759Y-821531D01*
X468709Y-821531D01*
X456009Y-808831D01*
X449659Y-808831D01*
X451720Y-809436D01*
G54D35*
X680319Y-809436D02*
X678259Y-808831D01*
X665559Y-821531D01*
X544909Y-821531D01*
X532209Y-808831D01*
X525859Y-808831D01*
X527919Y-809436D01*
G54D35*
X514350Y-752079D02*
X513159Y-751681D01*
X500459Y-738981D01*
X456009Y-738981D01*
X443309Y-751681D01*
X436959Y-751681D01*
X438150Y-752079D01*
G54D35*
X336550Y-752079D02*
X335359Y-751681D01*
X322659Y-738981D01*
X322659Y-732631D01*
X316309Y-726281D01*
X303609Y-726281D01*
X284559Y-745331D01*
X284559Y-751681D01*
X285750Y-752079D01*
G54D35*
X285750Y-752079D02*
X284559Y-751681D01*
X271859Y-738981D01*
X227409Y-738981D01*
X214709Y-751681D01*
X208359Y-751681D01*
X209550Y-752079D01*
G54D35*
X438150Y-752079D02*
X436959Y-751681D01*
X456009Y-732631D01*
X456009Y-713581D01*
X449659Y-707231D01*
X411559Y-707231D01*
X405209Y-713581D01*
X405209Y-726281D01*
X392509Y-738981D01*
X379809Y-738981D01*
X367109Y-751681D01*
X360759Y-751681D01*
X361950Y-752079D01*
G54D35*
X-557691Y-617431D02*
X-559991Y-618331D01*
X-547291Y-631031D01*
X-344091Y-631031D01*
X-331391Y-643731D01*
X-51991Y-643731D01*
X-45641Y-650081D01*
X75009Y-650081D01*
X81359Y-656431D01*
X100409Y-656431D01*
X106759Y-662781D01*
X208359Y-662781D01*
X240109Y-694531D01*
X367109Y-694531D01*
X398859Y-662781D01*
X443309Y-662781D01*
X449659Y-669131D01*
X456009Y-669131D01*
X494109Y-707231D01*
X538559Y-707231D01*
X544909Y-713581D01*
X557609Y-713581D01*
X583009Y-738981D01*
X652859Y-738981D01*
X659209Y-732631D01*
X678259Y-732631D01*
X684609Y-726281D01*
X716359Y-726281D01*
X754459Y-764381D01*
X805259Y-764381D01*
X811609Y-770731D01*
X843359Y-770731D01*
X875109Y-802481D01*
X900509Y-802481D01*
X900906Y-791363D01*
G54D35*
X721122Y-743744D02*
X721122Y-742156D01*
X725884Y-737394D01*
G54D35*
X657622Y-748506D02*
X657622Y-745331D01*
X651272Y-738981D01*
G54D35*
X736996Y-804068D02*
X765572Y-775494D01*
G54D35*
X197720Y-809436D02*
X195659Y-808831D01*
X163909Y-840581D01*
X106759Y-840581D01*
X87709Y-821531D01*
X5159Y-821531D01*
X-7541Y-808831D01*
X-13891Y-808831D01*
X-11830Y-809436D01*
G54D35*
X-774691Y-835431D02*
X-775891Y-834231D01*
X-750491Y-808831D01*
X-686991Y-808831D01*
X-680641Y-815181D01*
X-604441Y-815181D01*
X-598091Y-808831D01*
X-547291Y-808831D01*
X-545230Y-809436D01*
G54D35*
X-837691Y-452431D02*
X-839391Y-453231D01*
X-858441Y-434181D01*
X-858441Y-389731D01*
X-859691Y-389431D01*
G54D35*
X-1004491Y-610394D02*
X-1004491Y-446881D01*
X-999728Y-442118D01*
G54D35*
X-867966Y-615156D02*
X-867966Y-570706D01*
X-872728Y-553244D01*
X-883841Y-456406D01*
X-858441Y-431006D01*
G54D35*
X648096Y-738981D02*
X648096Y-729456D01*
G54D35*
X435372Y-707231D02*
X435372Y-699294D01*
G54D35*
X435372Y-670718D02*
X435372Y-662781D01*
X800496Y-650081D02*
G54D38*
D03*
G54D35*
X806846Y-643731D02*
X814784Y-643731D01*
X822722Y-635794D01*
X341709Y-251618D02*
G54D30*
D03*
X-591741Y-81756D02*
G54D30*
D03*
X490934Y-605631D02*
G54D30*
D03*
X513159Y-627856D02*
G54D30*
D03*
X292496Y-564356D02*
G54D30*
D03*
X267096Y-562768D02*
G54D30*
D03*
X295672Y-411956D02*
G54D30*
D03*
X251222Y-418306D02*
G54D30*
D03*
X694134Y-480218D02*
G54D30*
D03*
X749696Y-748506D02*
G54D30*
D03*
X686196Y-615156D02*
G54D30*
D03*
X24209Y-569118D02*
G54D30*
D03*
X49609Y-618331D02*
G54D30*
D03*
X484584Y-431006D02*
G54D30*
D03*
X511572Y-410368D02*
G54D30*
D03*
X21034Y-419894D02*
G54D30*
D03*
X54372Y-467518D02*
G54D30*
D03*
X40084Y-181768D02*
G54D30*
D03*
X13096Y-189706D02*
G54D30*
D03*
X-136128Y-199231D02*
G54D30*
D03*
X-9128Y2382D02*
G54D30*
D03*
X-125016Y-794D02*
G54D30*
D03*
X-331391Y59532D02*
G54D30*
D03*
X-302816Y-151606D02*
G54D30*
D03*
X-317104Y-292894D02*
G54D30*
D03*
X-332978Y-156368D02*
G54D30*
D03*
X-534591Y-8731D02*
G54D30*
D03*
X-844154Y-164306D02*
G54D30*
D03*
X-720328Y-142081D02*
G54D30*
D03*
X-893366Y-34131D02*
G54D30*
D03*
X-983854Y-16668D02*
G54D30*
D03*
X-980678Y-200818D02*
G54D30*
D03*
X-1096566Y-273844D02*
G54D30*
D03*
X-860028Y-459581D02*
G54D30*
D03*
X-837804Y-394494D02*
G54D30*
D03*
X-861616Y-540544D02*
G54D30*
D03*
X-836216Y-545306D02*
G54D30*
D03*
X-817166Y-286544D02*
G54D30*
D03*
X-861616Y-330994D02*
G54D30*
D03*
X-1106091Y-396081D02*
G54D30*
D03*
X-980678Y-383381D02*
G54D30*
D03*
X-885428Y-542131D02*
G54D30*
D03*
X-979091Y-564356D02*
G54D30*
D03*
X-758428Y-394494D02*
G54D30*
D03*
X-796528Y-350044D02*
G54D30*
D03*
X-812404Y-351631D02*
G54D30*
D03*
X-828278Y-431006D02*
G54D30*
D03*
X-812404Y-351631D02*
G54D38*
D03*
X-799704Y-351631D02*
G54D38*
D03*
X-756841Y-392906D02*
G54D38*
D03*
G54D35*
X-812403Y-351631D02*
X-813991Y-351631D01*
X-852091Y-389731D01*
X-858441Y-389731D01*
X-860691Y-388431D01*
G54D35*
X-799703Y-351631D02*
X-801291Y-351631D01*
X-756841Y-396081D01*
X-758429Y-394493D01*
G54D35*
X-758429Y-394493D02*
X-756841Y-396081D01*
X-744141Y-383381D01*
X-744141Y-338931D01*
X-743866Y-341019D01*
X-677466Y-337344D02*
G54D30*
D03*
X-644128Y-286544D02*
G54D30*
D03*
X-567928Y-184944D02*
G54D30*
D03*
X-594916Y-227806D02*
G54D30*
D03*
X-583804Y-686594D02*
G54D30*
D03*
X-531416Y-688181D02*
G54D30*
D03*
X-691754Y-645318D02*
G54D30*
D03*
X-556816Y-688181D02*
G54D30*
D03*
X-690166Y-504031D02*
G54D30*
D03*
X271859Y-121444D02*
G54D30*
D03*
X265509Y-364331D02*
G54D30*
D03*
X848122Y61119D02*
G54D30*
D03*
X883046Y-324644D02*
G54D30*
D03*
X275034Y8732D02*
G54D30*
D03*
X-463154Y-329406D02*
G54D30*
D03*
X-772716Y-746918D02*
G54D30*
D03*
X71834Y62706D02*
G54D30*
D03*
X-430212Y-618331D02*
G54D30*
D03*
X-430212Y-615950D02*
G54D38*
D03*
G54D35*
X-430213Y-618331D02*
X-431800Y-615950D01*
X-406400Y-590550D01*
X-403225Y-590425D01*
X-390525Y-640556D02*
G54D30*
D03*
X-480219Y-617538D02*
G54D30*
D03*
X-113506Y-182562D02*
G54D30*
D03*
X647700Y-200819D02*
G54D30*
D03*
X899319Y-791369D02*
G54D30*
D03*
X822325Y-733425D02*
G54D30*
D03*
X18256Y-734219D02*
G54D30*
D03*
X895350Y-634206D02*
G54D30*
D03*
X498475Y-700088D02*
G54D30*
D03*
X498475Y-700088D02*
G54D39*
D03*
X-962422Y-320278D02*
G54D30*
D03*
M02*
