%FSLAX34Y34*%
%MOMM*%
%LNSMDMASK_TOP*%
G71*
G01*
%ADD10R, 0.640X2.200*%
%ADD11R, 2.200X0.640*%
%ADD12R, 0.600X2.100*%
%ADD13R, 1.300X2.800*%
%ADD14R, 2.400X2.200*%
%ADD15R, 2.200X2.400*%
%ADD16R, 1.300X1.900*%
%ADD17R, 1.900X1.300*%
%ADD18R, 3.200X1.900*%
%ADD19R, 1.900X3.200*%
%ADD20R, 2.800X1.300*%
%LPD*%
X-993775Y125D02*
G54D10*
D03*
X-1006475Y125D02*
G54D10*
D03*
X-1019175Y125D02*
G54D10*
D03*
X-1031875Y125D02*
G54D10*
D03*
X-1049775Y-17775D02*
G54D11*
D03*
X-1049775Y-30475D02*
G54D11*
D03*
X-1049775Y-43175D02*
G54D11*
D03*
X-1049775Y-55875D02*
G54D11*
D03*
X-1049775Y-68575D02*
G54D11*
D03*
X-1049775Y-81275D02*
G54D11*
D03*
X-1049775Y-93975D02*
G54D11*
D03*
X-1031875Y-111875D02*
G54D10*
D03*
X-1019175Y-111875D02*
G54D10*
D03*
X-1006475Y-111875D02*
G54D10*
D03*
X-993775Y-111875D02*
G54D10*
D03*
X-981075Y-111875D02*
G54D10*
D03*
X-968375Y-111875D02*
G54D10*
D03*
X-955675Y-111875D02*
G54D10*
D03*
X-937775Y-93975D02*
G54D11*
D03*
X-937775Y-81275D02*
G54D11*
D03*
X-937775Y-68575D02*
G54D11*
D03*
X-937775Y-55875D02*
G54D11*
D03*
X-937775Y-43175D02*
G54D11*
D03*
X-937775Y-30475D02*
G54D11*
D03*
X-937775Y-17775D02*
G54D11*
D03*
X-955675Y125D02*
G54D10*
D03*
X-968375Y125D02*
G54D10*
D03*
X-981075Y125D02*
G54D10*
D03*
X-993775Y-184025D02*
G54D10*
D03*
X-1006475Y-184025D02*
G54D10*
D03*
X-1019175Y-184025D02*
G54D10*
D03*
X-1031875Y-184025D02*
G54D10*
D03*
X-1049775Y-201925D02*
G54D11*
D03*
X-1049775Y-214625D02*
G54D11*
D03*
X-1049775Y-227325D02*
G54D11*
D03*
X-1049775Y-240025D02*
G54D11*
D03*
X-1049775Y-252725D02*
G54D11*
D03*
X-1049775Y-265425D02*
G54D11*
D03*
X-1049775Y-278125D02*
G54D11*
D03*
X-1031875Y-296025D02*
G54D10*
D03*
X-1019175Y-296025D02*
G54D10*
D03*
X-1006475Y-296025D02*
G54D10*
D03*
X-993775Y-296025D02*
G54D10*
D03*
X-981075Y-296025D02*
G54D10*
D03*
X-968375Y-296025D02*
G54D10*
D03*
X-955675Y-296025D02*
G54D10*
D03*
X-937775Y-278125D02*
G54D11*
D03*
X-937775Y-265425D02*
G54D11*
D03*
X-937775Y-252725D02*
G54D11*
D03*
X-937775Y-240025D02*
G54D11*
D03*
X-937775Y-227325D02*
G54D11*
D03*
X-937775Y-214625D02*
G54D11*
D03*
X-937775Y-201925D02*
G54D11*
D03*
X-955675Y-184025D02*
G54D10*
D03*
X-968375Y-184025D02*
G54D10*
D03*
X-981075Y-184025D02*
G54D10*
D03*
X-992188Y-525338D02*
G54D10*
D03*
X-1004888Y-525338D02*
G54D10*
D03*
X-1017588Y-525338D02*
G54D10*
D03*
X-1030288Y-525338D02*
G54D10*
D03*
X-1048188Y-543238D02*
G54D11*
D03*
X-1048188Y-555938D02*
G54D11*
D03*
X-1048188Y-568638D02*
G54D11*
D03*
X-1048188Y-581338D02*
G54D11*
D03*
X-1048188Y-594038D02*
G54D11*
D03*
X-1048188Y-606738D02*
G54D11*
D03*
X-1048188Y-619438D02*
G54D11*
D03*
X-1030288Y-637338D02*
G54D10*
D03*
X-1017588Y-637338D02*
G54D10*
D03*
X-1004888Y-637338D02*
G54D10*
D03*
X-992188Y-637338D02*
G54D10*
D03*
X-979488Y-637338D02*
G54D10*
D03*
X-966788Y-637338D02*
G54D10*
D03*
X-954088Y-637338D02*
G54D10*
D03*
X-936188Y-619438D02*
G54D11*
D03*
X-936188Y-606738D02*
G54D11*
D03*
X-936188Y-594038D02*
G54D11*
D03*
X-936188Y-581338D02*
G54D11*
D03*
X-936188Y-568638D02*
G54D11*
D03*
X-936188Y-555938D02*
G54D11*
D03*
X-936188Y-543238D02*
G54D11*
D03*
X-954088Y-525338D02*
G54D10*
D03*
X-966788Y-525338D02*
G54D10*
D03*
X-979488Y-525338D02*
G54D10*
D03*
X-754062Y-87188D02*
G54D10*
D03*
X-766762Y-87188D02*
G54D10*
D03*
X-779462Y-87188D02*
G54D10*
D03*
X-792162Y-87188D02*
G54D10*
D03*
X-810062Y-105088D02*
G54D11*
D03*
X-810062Y-117788D02*
G54D11*
D03*
X-810062Y-130488D02*
G54D11*
D03*
X-810062Y-143188D02*
G54D11*
D03*
X-810062Y-155888D02*
G54D11*
D03*
X-810062Y-168588D02*
G54D11*
D03*
X-810062Y-181288D02*
G54D11*
D03*
X-792162Y-199188D02*
G54D10*
D03*
X-779462Y-199188D02*
G54D10*
D03*
X-766762Y-199188D02*
G54D10*
D03*
X-754062Y-199188D02*
G54D10*
D03*
X-741362Y-199188D02*
G54D10*
D03*
X-728662Y-199188D02*
G54D10*
D03*
X-715962Y-199188D02*
G54D10*
D03*
X-698062Y-181288D02*
G54D11*
D03*
X-698062Y-168588D02*
G54D11*
D03*
X-698062Y-155888D02*
G54D11*
D03*
X-698062Y-143188D02*
G54D11*
D03*
X-698062Y-130488D02*
G54D11*
D03*
X-698062Y-117788D02*
G54D11*
D03*
X-698062Y-105088D02*
G54D11*
D03*
X-715962Y-87188D02*
G54D10*
D03*
X-728662Y-87188D02*
G54D10*
D03*
X-741362Y-87188D02*
G54D10*
D03*
X-344488Y39812D02*
G54D10*
D03*
X-357188Y39812D02*
G54D10*
D03*
X-369888Y39812D02*
G54D10*
D03*
X-382588Y39812D02*
G54D10*
D03*
X-400488Y21912D02*
G54D11*
D03*
X-400488Y9212D02*
G54D11*
D03*
X-400488Y-3488D02*
G54D11*
D03*
X-400488Y-16188D02*
G54D11*
D03*
X-400488Y-28888D02*
G54D11*
D03*
X-400488Y-41588D02*
G54D11*
D03*
X-400488Y-54288D02*
G54D11*
D03*
X-382588Y-72188D02*
G54D10*
D03*
X-369888Y-72188D02*
G54D10*
D03*
X-357188Y-72188D02*
G54D10*
D03*
X-344488Y-72188D02*
G54D10*
D03*
X-331788Y-72188D02*
G54D10*
D03*
X-319088Y-72188D02*
G54D10*
D03*
X-306388Y-72188D02*
G54D10*
D03*
X-288488Y-54288D02*
G54D11*
D03*
X-288488Y-41588D02*
G54D11*
D03*
X-288488Y-28888D02*
G54D11*
D03*
X-288488Y-16188D02*
G54D11*
D03*
X-288488Y-3488D02*
G54D11*
D03*
X-288488Y9212D02*
G54D11*
D03*
X-288488Y21912D02*
G54D11*
D03*
X-306388Y39812D02*
G54D10*
D03*
X-319088Y39812D02*
G54D10*
D03*
X-331788Y39812D02*
G54D10*
D03*
X-138112Y39812D02*
G54D10*
D03*
X-150812Y39812D02*
G54D10*
D03*
X-163512Y39812D02*
G54D10*
D03*
X-176212Y39812D02*
G54D10*
D03*
X-194112Y21912D02*
G54D11*
D03*
X-194112Y9212D02*
G54D11*
D03*
X-194112Y-3488D02*
G54D11*
D03*
X-194112Y-16188D02*
G54D11*
D03*
X-194112Y-28888D02*
G54D11*
D03*
X-194112Y-41588D02*
G54D11*
D03*
X-194112Y-54288D02*
G54D11*
D03*
X-176212Y-72188D02*
G54D10*
D03*
X-163512Y-72188D02*
G54D10*
D03*
X-150812Y-72188D02*
G54D10*
D03*
X-138112Y-72188D02*
G54D10*
D03*
X-125412Y-72188D02*
G54D10*
D03*
X-112712Y-72188D02*
G54D10*
D03*
X-100012Y-72188D02*
G54D10*
D03*
X-82112Y-54288D02*
G54D11*
D03*
X-82112Y-41588D02*
G54D11*
D03*
X-82112Y-28888D02*
G54D11*
D03*
X-82112Y-16188D02*
G54D11*
D03*
X-82112Y-3488D02*
G54D11*
D03*
X-82112Y9212D02*
G54D11*
D03*
X-82112Y21912D02*
G54D11*
D03*
X-100012Y39812D02*
G54D10*
D03*
X-112712Y39812D02*
G54D10*
D03*
X-125412Y39812D02*
G54D10*
D03*
X-138112Y-163388D02*
G54D10*
D03*
X-150812Y-163388D02*
G54D10*
D03*
X-163512Y-163388D02*
G54D10*
D03*
X-176212Y-163388D02*
G54D10*
D03*
X-194112Y-181288D02*
G54D11*
D03*
X-194112Y-193988D02*
G54D11*
D03*
X-194112Y-206688D02*
G54D11*
D03*
X-194112Y-219388D02*
G54D11*
D03*
X-194112Y-232088D02*
G54D11*
D03*
X-194112Y-244788D02*
G54D11*
D03*
X-194112Y-257488D02*
G54D11*
D03*
X-176212Y-275388D02*
G54D10*
D03*
X-163512Y-275388D02*
G54D10*
D03*
X-150812Y-275388D02*
G54D10*
D03*
X-138112Y-275388D02*
G54D10*
D03*
X-125412Y-275388D02*
G54D10*
D03*
X-112712Y-275388D02*
G54D10*
D03*
X-100012Y-275388D02*
G54D10*
D03*
X-82112Y-257488D02*
G54D11*
D03*
X-82112Y-244788D02*
G54D11*
D03*
X-82112Y-232088D02*
G54D11*
D03*
X-82112Y-219388D02*
G54D11*
D03*
X-82112Y-206688D02*
G54D11*
D03*
X-82112Y-193988D02*
G54D11*
D03*
X-82112Y-181288D02*
G54D11*
D03*
X-100012Y-163388D02*
G54D10*
D03*
X-112712Y-163388D02*
G54D10*
D03*
X-125412Y-163388D02*
G54D10*
D03*
X-992188Y-368175D02*
G54D10*
D03*
X-1004888Y-368175D02*
G54D10*
D03*
X-1017588Y-368175D02*
G54D10*
D03*
X-1035188Y-385775D02*
G54D11*
D03*
X-1035188Y-398475D02*
G54D11*
D03*
X-1035188Y-411175D02*
G54D11*
D03*
X-1035188Y-423875D02*
G54D11*
D03*
X-1035188Y-436575D02*
G54D11*
D03*
X-1017588Y-454175D02*
G54D10*
D03*
X-1004888Y-454175D02*
G54D10*
D03*
X-992188Y-454175D02*
G54D10*
D03*
X-979488Y-454175D02*
G54D10*
D03*
X-966788Y-454175D02*
G54D10*
D03*
X-949188Y-436575D02*
G54D11*
D03*
X-949188Y-423875D02*
G54D11*
D03*
X-949188Y-411175D02*
G54D11*
D03*
X-949188Y-398475D02*
G54D11*
D03*
X-949188Y-385775D02*
G54D11*
D03*
X-966788Y-368175D02*
G54D10*
D03*
X-979488Y-368175D02*
G54D10*
D03*
X-549275Y27112D02*
G54D10*
D03*
X-561975Y27112D02*
G54D10*
D03*
X-574675Y27112D02*
G54D10*
D03*
X-592275Y9512D02*
G54D11*
D03*
X-592275Y-3188D02*
G54D11*
D03*
X-592275Y-15888D02*
G54D11*
D03*
X-592275Y-28588D02*
G54D11*
D03*
X-592275Y-41288D02*
G54D11*
D03*
X-574675Y-58888D02*
G54D10*
D03*
X-561975Y-58888D02*
G54D10*
D03*
X-549275Y-58888D02*
G54D10*
D03*
X-536575Y-58888D02*
G54D10*
D03*
X-523875Y-58888D02*
G54D10*
D03*
X-506275Y-41288D02*
G54D11*
D03*
X-506275Y-28588D02*
G54D11*
D03*
X-506275Y-15888D02*
G54D11*
D03*
X-506275Y-3188D02*
G54D11*
D03*
X-506275Y9512D02*
G54D11*
D03*
X-523875Y27112D02*
G54D10*
D03*
X-536575Y27112D02*
G54D10*
D03*
X-342900Y-176088D02*
G54D10*
D03*
X-355600Y-176088D02*
G54D10*
D03*
X-368300Y-176088D02*
G54D10*
D03*
X-385900Y-193688D02*
G54D11*
D03*
X-385900Y-206388D02*
G54D11*
D03*
X-385900Y-219088D02*
G54D11*
D03*
X-385900Y-231788D02*
G54D11*
D03*
X-385900Y-244488D02*
G54D11*
D03*
X-368300Y-262088D02*
G54D10*
D03*
X-355600Y-262088D02*
G54D10*
D03*
X-342900Y-262088D02*
G54D10*
D03*
X-330200Y-262088D02*
G54D10*
D03*
X-317500Y-262088D02*
G54D10*
D03*
X-299900Y-244488D02*
G54D11*
D03*
X-299900Y-231788D02*
G54D11*
D03*
X-299900Y-219088D02*
G54D11*
D03*
X-299900Y-206388D02*
G54D11*
D03*
X-299900Y-193688D02*
G54D11*
D03*
X-317500Y-176088D02*
G54D10*
D03*
X-330200Y-176088D02*
G54D10*
D03*
X-817562Y-321338D02*
G54D12*
D03*
X-804862Y-321338D02*
G54D12*
D03*
X-792162Y-321338D02*
G54D12*
D03*
X-779462Y-321338D02*
G54D12*
D03*
X-766762Y-321338D02*
G54D12*
D03*
X-754062Y-321338D02*
G54D12*
D03*
X-741362Y-321338D02*
G54D12*
D03*
X-741362Y-271338D02*
G54D12*
D03*
X-754062Y-271338D02*
G54D12*
D03*
X-766762Y-271338D02*
G54D12*
D03*
X-779462Y-271338D02*
G54D12*
D03*
X-792162Y-271338D02*
G54D12*
D03*
X-804862Y-271338D02*
G54D12*
D03*
X-817562Y-271338D02*
G54D12*
D03*
X-835025Y-469700D02*
G54D12*
D03*
X-822325Y-469700D02*
G54D12*
D03*
X-809625Y-469700D02*
G54D12*
D03*
X-796925Y-469700D02*
G54D12*
D03*
X-784225Y-469700D02*
G54D12*
D03*
X-771525Y-469700D02*
G54D12*
D03*
X-758825Y-469700D02*
G54D12*
D03*
X-746125Y-469700D02*
G54D12*
D03*
X-733425Y-469700D02*
G54D12*
D03*
X-720725Y-469700D02*
G54D12*
D03*
X-720725Y-377700D02*
G54D12*
D03*
X-733425Y-377700D02*
G54D12*
D03*
X-746125Y-377700D02*
G54D12*
D03*
X-758825Y-377700D02*
G54D12*
D03*
X-771525Y-377700D02*
G54D12*
D03*
X-784225Y-377700D02*
G54D12*
D03*
X-796925Y-377700D02*
G54D12*
D03*
X-809625Y-377700D02*
G54D12*
D03*
X-822325Y-377700D02*
G54D12*
D03*
X-835025Y-377700D02*
G54D12*
D03*
X-643334Y-320272D02*
G54D12*
D03*
X-630634Y-320272D02*
G54D12*
D03*
X-617934Y-320272D02*
G54D12*
D03*
X-605234Y-320272D02*
G54D12*
D03*
X-592534Y-320272D02*
G54D12*
D03*
X-579834Y-320272D02*
G54D12*
D03*
X-567134Y-320272D02*
G54D12*
D03*
X-554434Y-320272D02*
G54D12*
D03*
X-554434Y-270272D02*
G54D12*
D03*
X-567134Y-270272D02*
G54D12*
D03*
X-579834Y-270272D02*
G54D12*
D03*
X-592534Y-270272D02*
G54D12*
D03*
X-605234Y-270272D02*
G54D12*
D03*
X-617934Y-270272D02*
G54D12*
D03*
X-630634Y-270272D02*
G54D12*
D03*
X-643334Y-270272D02*
G54D12*
D03*
X-835025Y-621703D02*
G54D12*
D03*
X-822325Y-621703D02*
G54D12*
D03*
X-809625Y-621703D02*
G54D12*
D03*
X-796925Y-621703D02*
G54D12*
D03*
X-784225Y-621703D02*
G54D12*
D03*
X-771525Y-621703D02*
G54D12*
D03*
X-758825Y-621703D02*
G54D12*
D03*
X-746125Y-621703D02*
G54D12*
D03*
X-733425Y-621703D02*
G54D12*
D03*
X-720725Y-621703D02*
G54D12*
D03*
X-720725Y-529703D02*
G54D12*
D03*
X-733425Y-529703D02*
G54D12*
D03*
X-746125Y-529703D02*
G54D12*
D03*
X-758825Y-529703D02*
G54D12*
D03*
X-771525Y-529703D02*
G54D12*
D03*
X-784225Y-529703D02*
G54D12*
D03*
X-796925Y-529703D02*
G54D12*
D03*
X-809625Y-529703D02*
G54D12*
D03*
X-822325Y-529703D02*
G54D12*
D03*
X-835025Y-529703D02*
G54D12*
D03*
X48419Y-304757D02*
G54D12*
D03*
X61119Y-304757D02*
G54D12*
D03*
X73819Y-304757D02*
G54D12*
D03*
X86519Y-304757D02*
G54D12*
D03*
X99219Y-304757D02*
G54D12*
D03*
X111919Y-304757D02*
G54D12*
D03*
X124619Y-304757D02*
G54D12*
D03*
X137319Y-304757D02*
G54D12*
D03*
X150019Y-304757D02*
G54D12*
D03*
X162719Y-304757D02*
G54D12*
D03*
X175419Y-304757D02*
G54D12*
D03*
X188119Y-304757D02*
G54D12*
D03*
X188119Y-208757D02*
G54D12*
D03*
X175419Y-208757D02*
G54D12*
D03*
X162719Y-208757D02*
G54D12*
D03*
X150019Y-208757D02*
G54D12*
D03*
X137319Y-208757D02*
G54D12*
D03*
X124619Y-208757D02*
G54D12*
D03*
X111919Y-208757D02*
G54D12*
D03*
X99219Y-208757D02*
G54D12*
D03*
X86519Y-208757D02*
G54D12*
D03*
X73819Y-208757D02*
G54D12*
D03*
X61119Y-208757D02*
G54D12*
D03*
X48419Y-208757D02*
G54D12*
D03*
X47625Y-528594D02*
G54D12*
D03*
X60325Y-528594D02*
G54D12*
D03*
X73025Y-528594D02*
G54D12*
D03*
X85725Y-528594D02*
G54D12*
D03*
X98425Y-528594D02*
G54D12*
D03*
X111125Y-528594D02*
G54D12*
D03*
X123825Y-528594D02*
G54D12*
D03*
X136525Y-528594D02*
G54D12*
D03*
X149225Y-528594D02*
G54D12*
D03*
X161925Y-528594D02*
G54D12*
D03*
X174625Y-528594D02*
G54D12*
D03*
X187325Y-528594D02*
G54D12*
D03*
X187325Y-432594D02*
G54D12*
D03*
X174625Y-432594D02*
G54D12*
D03*
X161925Y-432594D02*
G54D12*
D03*
X149225Y-432594D02*
G54D12*
D03*
X136525Y-432594D02*
G54D12*
D03*
X123825Y-432594D02*
G54D12*
D03*
X111125Y-432594D02*
G54D12*
D03*
X98425Y-432594D02*
G54D12*
D03*
X85725Y-432594D02*
G54D12*
D03*
X73025Y-432594D02*
G54D12*
D03*
X60325Y-432594D02*
G54D12*
D03*
X47625Y-432594D02*
G54D12*
D03*
X49609Y-696076D02*
G54D12*
D03*
X62309Y-696076D02*
G54D12*
D03*
X75009Y-696076D02*
G54D12*
D03*
X87709Y-696076D02*
G54D12*
D03*
X100409Y-696076D02*
G54D12*
D03*
X113109Y-696076D02*
G54D12*
D03*
X125809Y-696076D02*
G54D12*
D03*
X138509Y-696076D02*
G54D12*
D03*
X151209Y-696076D02*
G54D12*
D03*
X163909Y-696076D02*
G54D12*
D03*
X176609Y-696076D02*
G54D12*
D03*
X189309Y-696076D02*
G54D12*
D03*
X189309Y-600076D02*
G54D12*
D03*
X176609Y-600076D02*
G54D12*
D03*
X163909Y-600076D02*
G54D12*
D03*
X151209Y-600076D02*
G54D12*
D03*
X138509Y-600076D02*
G54D12*
D03*
X125809Y-600076D02*
G54D12*
D03*
X113109Y-600076D02*
G54D12*
D03*
X100409Y-600076D02*
G54D12*
D03*
X87709Y-600076D02*
G54D12*
D03*
X75009Y-600076D02*
G54D12*
D03*
X62309Y-600076D02*
G54D12*
D03*
X49609Y-600076D02*
G54D12*
D03*
X299244Y-528594D02*
G54D12*
D03*
X311944Y-528594D02*
G54D12*
D03*
X324644Y-528594D02*
G54D12*
D03*
X337344Y-528594D02*
G54D12*
D03*
X350044Y-528594D02*
G54D12*
D03*
X362744Y-528594D02*
G54D12*
D03*
X375444Y-528594D02*
G54D12*
D03*
X388144Y-528594D02*
G54D12*
D03*
X400844Y-528594D02*
G54D12*
D03*
X413544Y-528594D02*
G54D12*
D03*
X426244Y-528594D02*
G54D12*
D03*
X438944Y-528594D02*
G54D12*
D03*
X438944Y-432594D02*
G54D12*
D03*
X426244Y-432594D02*
G54D12*
D03*
X413544Y-432594D02*
G54D12*
D03*
X400844Y-432594D02*
G54D12*
D03*
X388144Y-432594D02*
G54D12*
D03*
X375444Y-432594D02*
G54D12*
D03*
X362744Y-432594D02*
G54D12*
D03*
X350044Y-432594D02*
G54D12*
D03*
X337344Y-432594D02*
G54D12*
D03*
X324644Y-432594D02*
G54D12*
D03*
X311944Y-432594D02*
G54D12*
D03*
X299244Y-432594D02*
G54D12*
D03*
X301228Y-695679D02*
G54D12*
D03*
X313928Y-695679D02*
G54D12*
D03*
X326628Y-695679D02*
G54D12*
D03*
X339328Y-695679D02*
G54D12*
D03*
X352028Y-695679D02*
G54D12*
D03*
X364728Y-695679D02*
G54D12*
D03*
X377428Y-695679D02*
G54D12*
D03*
X390128Y-695679D02*
G54D12*
D03*
X402828Y-695679D02*
G54D12*
D03*
X415528Y-695679D02*
G54D12*
D03*
X428228Y-695679D02*
G54D12*
D03*
X440928Y-695679D02*
G54D12*
D03*
X440928Y-599679D02*
G54D12*
D03*
X428228Y-599679D02*
G54D12*
D03*
X415528Y-599679D02*
G54D12*
D03*
X402828Y-599679D02*
G54D12*
D03*
X390128Y-599679D02*
G54D12*
D03*
X377428Y-599679D02*
G54D12*
D03*
X364728Y-599679D02*
G54D12*
D03*
X352028Y-599679D02*
G54D12*
D03*
X339328Y-599679D02*
G54D12*
D03*
X326628Y-599679D02*
G54D12*
D03*
X313928Y-599679D02*
G54D12*
D03*
X301228Y-599679D02*
G54D12*
D03*
X509588Y-528197D02*
G54D12*
D03*
X522288Y-528197D02*
G54D12*
D03*
X534988Y-528197D02*
G54D12*
D03*
X547688Y-528197D02*
G54D12*
D03*
X560388Y-528197D02*
G54D12*
D03*
X573088Y-528197D02*
G54D12*
D03*
X585788Y-528197D02*
G54D12*
D03*
X598488Y-528197D02*
G54D12*
D03*
X611188Y-528197D02*
G54D12*
D03*
X623888Y-528197D02*
G54D12*
D03*
X636588Y-528197D02*
G54D12*
D03*
X649288Y-528197D02*
G54D12*
D03*
X649288Y-432197D02*
G54D12*
D03*
X636588Y-432197D02*
G54D12*
D03*
X623888Y-432197D02*
G54D12*
D03*
X611188Y-432197D02*
G54D12*
D03*
X598488Y-432197D02*
G54D12*
D03*
X585788Y-432197D02*
G54D12*
D03*
X573088Y-432197D02*
G54D12*
D03*
X560388Y-432197D02*
G54D12*
D03*
X547688Y-432197D02*
G54D12*
D03*
X534988Y-432197D02*
G54D12*
D03*
X522288Y-432197D02*
G54D12*
D03*
X509588Y-432197D02*
G54D12*
D03*
X509588Y-695282D02*
G54D12*
D03*
X522288Y-695282D02*
G54D12*
D03*
X534988Y-695282D02*
G54D12*
D03*
X547688Y-695282D02*
G54D12*
D03*
X560388Y-695282D02*
G54D12*
D03*
X573088Y-695282D02*
G54D12*
D03*
X585788Y-695282D02*
G54D12*
D03*
X598488Y-695282D02*
G54D12*
D03*
X611188Y-695282D02*
G54D12*
D03*
X623888Y-695282D02*
G54D12*
D03*
X636588Y-695282D02*
G54D12*
D03*
X649288Y-695282D02*
G54D12*
D03*
X649288Y-599282D02*
G54D12*
D03*
X636588Y-599282D02*
G54D12*
D03*
X623888Y-599282D02*
G54D12*
D03*
X611188Y-599282D02*
G54D12*
D03*
X598488Y-599282D02*
G54D12*
D03*
X585788Y-599282D02*
G54D12*
D03*
X573088Y-599282D02*
G54D12*
D03*
X560388Y-599282D02*
G54D12*
D03*
X547688Y-599282D02*
G54D12*
D03*
X534988Y-599282D02*
G54D12*
D03*
X522288Y-599282D02*
G54D12*
D03*
X509588Y-599282D02*
G54D12*
D03*
X687388Y-527404D02*
G54D12*
D03*
X700088Y-527404D02*
G54D12*
D03*
X712788Y-527404D02*
G54D12*
D03*
X725488Y-527404D02*
G54D12*
D03*
X738188Y-527404D02*
G54D12*
D03*
X750888Y-527404D02*
G54D12*
D03*
X763588Y-527404D02*
G54D12*
D03*
X776288Y-527404D02*
G54D12*
D03*
X788988Y-527404D02*
G54D12*
D03*
X801688Y-527404D02*
G54D12*
D03*
X814388Y-527404D02*
G54D12*
D03*
X827088Y-527404D02*
G54D12*
D03*
X827088Y-431404D02*
G54D12*
D03*
X814388Y-431404D02*
G54D12*
D03*
X801688Y-431404D02*
G54D12*
D03*
X788988Y-431404D02*
G54D12*
D03*
X776288Y-431404D02*
G54D12*
D03*
X763588Y-431404D02*
G54D12*
D03*
X750888Y-431404D02*
G54D12*
D03*
X738188Y-431404D02*
G54D12*
D03*
X725488Y-431404D02*
G54D12*
D03*
X712788Y-431404D02*
G54D12*
D03*
X700088Y-431404D02*
G54D12*
D03*
X687388Y-431404D02*
G54D12*
D03*
X688578Y-695679D02*
G54D12*
D03*
X701278Y-695679D02*
G54D12*
D03*
X713978Y-695679D02*
G54D12*
D03*
X726678Y-695679D02*
G54D12*
D03*
X739378Y-695679D02*
G54D12*
D03*
X752078Y-695679D02*
G54D12*
D03*
X764778Y-695679D02*
G54D12*
D03*
X777478Y-695679D02*
G54D12*
D03*
X790178Y-695679D02*
G54D12*
D03*
X802878Y-695679D02*
G54D12*
D03*
X815578Y-695679D02*
G54D12*
D03*
X828278Y-695679D02*
G54D12*
D03*
X828278Y-599679D02*
G54D12*
D03*
X815578Y-599679D02*
G54D12*
D03*
X802878Y-599679D02*
G54D12*
D03*
X790178Y-599679D02*
G54D12*
D03*
X777478Y-599679D02*
G54D12*
D03*
X764778Y-599679D02*
G54D12*
D03*
X752078Y-599679D02*
G54D12*
D03*
X739378Y-599679D02*
G54D12*
D03*
X726678Y-599679D02*
G54D12*
D03*
X713978Y-599679D02*
G54D12*
D03*
X701278Y-599679D02*
G54D12*
D03*
X688578Y-599679D02*
G54D12*
D03*
X219869Y-301550D02*
G54D12*
D03*
X232569Y-301550D02*
G54D12*
D03*
X245269Y-301550D02*
G54D12*
D03*
X257969Y-301550D02*
G54D12*
D03*
X270669Y-301550D02*
G54D12*
D03*
X283369Y-301550D02*
G54D12*
D03*
X296069Y-301550D02*
G54D12*
D03*
X308769Y-301550D02*
G54D12*
D03*
X321469Y-301550D02*
G54D12*
D03*
X334169Y-301550D02*
G54D12*
D03*
X334169Y-209550D02*
G54D12*
D03*
X321469Y-209550D02*
G54D12*
D03*
X308769Y-209550D02*
G54D12*
D03*
X296069Y-209550D02*
G54D12*
D03*
X283369Y-209550D02*
G54D12*
D03*
X270669Y-209550D02*
G54D12*
D03*
X257969Y-209550D02*
G54D12*
D03*
X245269Y-209550D02*
G54D12*
D03*
X232569Y-209550D02*
G54D12*
D03*
X219869Y-209550D02*
G54D12*
D03*
X-687784Y-575066D02*
G54D12*
D03*
X-675084Y-575066D02*
G54D12*
D03*
X-662384Y-575066D02*
G54D12*
D03*
X-649684Y-575066D02*
G54D12*
D03*
X-636984Y-575066D02*
G54D12*
D03*
X-624284Y-575066D02*
G54D12*
D03*
X-611584Y-575066D02*
G54D12*
D03*
X-611584Y-525066D02*
G54D12*
D03*
X-624284Y-525066D02*
G54D12*
D03*
X-636984Y-525066D02*
G54D12*
D03*
X-649684Y-525066D02*
G54D12*
D03*
X-662384Y-525066D02*
G54D12*
D03*
X-675084Y-525066D02*
G54D12*
D03*
X-687784Y-525066D02*
G54D12*
D03*
X-688181Y-674285D02*
G54D12*
D03*
X-675481Y-674285D02*
G54D12*
D03*
X-662781Y-674285D02*
G54D12*
D03*
X-650081Y-674285D02*
G54D12*
D03*
X-637381Y-674285D02*
G54D12*
D03*
X-624681Y-674285D02*
G54D12*
D03*
X-611981Y-674285D02*
G54D12*
D03*
X-611981Y-624285D02*
G54D12*
D03*
X-624681Y-624285D02*
G54D12*
D03*
X-637381Y-624285D02*
G54D12*
D03*
X-650081Y-624285D02*
G54D12*
D03*
X-662781Y-624285D02*
G54D12*
D03*
X-675481Y-624285D02*
G54D12*
D03*
X-688181Y-624285D02*
G54D12*
D03*
X823119Y-801682D02*
G54D12*
D03*
X835819Y-801682D02*
G54D12*
D03*
X848519Y-801682D02*
G54D12*
D03*
X861219Y-801682D02*
G54D12*
D03*
X873919Y-801682D02*
G54D12*
D03*
X886619Y-801682D02*
G54D12*
D03*
X899319Y-801682D02*
G54D12*
D03*
X899319Y-751682D02*
G54D12*
D03*
X886619Y-751682D02*
G54D12*
D03*
X873919Y-751682D02*
G54D12*
D03*
X861219Y-751682D02*
G54D12*
D03*
X848519Y-751682D02*
G54D12*
D03*
X835819Y-751682D02*
G54D12*
D03*
X823119Y-751682D02*
G54D12*
D03*
X-567531Y-217482D02*
G54D12*
D03*
X-554831Y-217482D02*
G54D12*
D03*
X-542131Y-217482D02*
G54D12*
D03*
X-529431Y-217482D02*
G54D12*
D03*
X-516731Y-217482D02*
G54D12*
D03*
X-504031Y-217482D02*
G54D12*
D03*
X-491331Y-217482D02*
G54D12*
D03*
X-478631Y-217482D02*
G54D12*
D03*
X-478631Y-167482D02*
G54D12*
D03*
X-491331Y-167482D02*
G54D12*
D03*
X-504031Y-167482D02*
G54D12*
D03*
X-516731Y-167482D02*
G54D12*
D03*
X-529431Y-167482D02*
G54D12*
D03*
X-542131Y-167482D02*
G54D12*
D03*
X-554831Y-167482D02*
G54D12*
D03*
X-567531Y-167482D02*
G54D12*
D03*
X318691Y-382588D02*
G54D13*
D03*
X318691Y-340519D02*
G54D13*
D03*
X292100Y-30957D02*
G54D13*
D03*
X292100Y11112D02*
G54D13*
D03*
X21034Y-441722D02*
G54D14*
D03*
X21034Y-474663D02*
G54D14*
D03*
X272256Y-433388D02*
G54D14*
D03*
X272256Y-466329D02*
G54D14*
D03*
X272653Y-608807D02*
G54D14*
D03*
X272653Y-641747D02*
G54D14*
D03*
X21034Y-598885D02*
G54D14*
D03*
X21034Y-631826D02*
G54D14*
D03*
X20241Y-210741D02*
G54D14*
D03*
X20241Y-243682D02*
G54D14*
D03*
X483394Y-456010D02*
G54D14*
D03*
X483394Y-488950D02*
G54D14*
D03*
X484981Y-628254D02*
G54D14*
D03*
X484981Y-661194D02*
G54D14*
D03*
X760016Y-556022D02*
G54D15*
D03*
X727075Y-556022D02*
G54D15*
D03*
X910034Y-362347D02*
G54D14*
D03*
X910034Y-329407D02*
G54D14*
D03*
X-855662Y-110332D02*
G54D16*
D03*
X-855662Y-145654D02*
G54D16*
D03*
X-892175Y23415D02*
G54D16*
D03*
X-892175Y-11907D02*
G54D16*
D03*
X-1092597Y-218282D02*
G54D16*
D03*
X-1092597Y-253604D02*
G54D16*
D03*
X-1088231Y-393700D02*
G54D16*
D03*
X-1088231Y-429022D02*
G54D16*
D03*
X-885825Y-557213D02*
G54D16*
D03*
X-885825Y-592535D02*
G54D16*
D03*
X-860425Y-557610D02*
G54D16*
D03*
X-860425Y-592932D02*
G54D16*
D03*
X-590947Y-512366D02*
G54D16*
D03*
X-590947Y-547688D02*
G54D16*
D03*
X-860425Y-277019D02*
G54D16*
D03*
X-860425Y-312341D02*
G54D16*
D03*
X-651272Y53974D02*
G54D16*
D03*
X-651272Y18653D02*
G54D16*
D03*
X-599678Y-175816D02*
G54D16*
D03*
X-599678Y-211138D02*
G54D16*
D03*
X-565944Y-105172D02*
G54D17*
D03*
X-601266Y-105172D02*
G54D17*
D03*
X-330597Y-117872D02*
G54D17*
D03*
X-365919Y-117872D02*
G54D17*
D03*
X-324247Y-307976D02*
G54D17*
D03*
X-359569Y-307976D02*
G54D17*
D03*
X-103188Y-118666D02*
G54D17*
D03*
X-138509Y-118666D02*
G54D17*
D03*
X-25400Y-40879D02*
G54D16*
D03*
X-25400Y-5557D02*
G54D16*
D03*
X867966Y61118D02*
G54D17*
D03*
X903288Y61118D02*
G54D17*
D03*
X-365522Y-428626D02*
G54D16*
D03*
X-365522Y-463947D02*
G54D16*
D03*
X731441Y-407194D02*
G54D17*
D03*
X696119Y-407194D02*
G54D17*
D03*
X294481Y-151210D02*
G54D14*
D03*
X294481Y-118269D02*
G54D14*
D03*
X-587375Y-669926D02*
G54D14*
D03*
X-587375Y-636985D02*
G54D14*
D03*
X-681038Y-313532D02*
G54D14*
D03*
X-681038Y-280591D02*
G54D14*
D03*
X362744Y-273050D02*
G54D16*
D03*
X362744Y-237729D02*
G54D16*
D03*
X744538Y-725885D02*
G54D15*
D03*
X777478Y-725885D02*
G54D15*
D03*
X-624681Y-467122D02*
G54D16*
D03*
X-624681Y-431800D02*
G54D16*
D03*
X-652066Y-467519D02*
G54D16*
D03*
X-652066Y-432197D02*
G54D16*
D03*
X-675878Y-467122D02*
G54D16*
D03*
X-675878Y-431800D02*
G54D16*
D03*
X-558006Y-670719D02*
G54D16*
D03*
X-558006Y-635397D02*
G54D16*
D03*
X-531416Y-670719D02*
G54D16*
D03*
X-531416Y-635397D02*
G54D16*
D03*
X-506809Y-670719D02*
G54D16*
D03*
X-506809Y-635397D02*
G54D16*
D03*
X-481409Y-670719D02*
G54D16*
D03*
X-481409Y-635397D02*
G54D16*
D03*
X-456009Y-670719D02*
G54D16*
D03*
X-456009Y-635397D02*
G54D16*
D03*
X-429419Y-670719D02*
G54D16*
D03*
X-429419Y-635397D02*
G54D16*
D03*
X-403225Y-670719D02*
G54D16*
D03*
X-403225Y-635397D02*
G54D16*
D03*
X-866378Y-13494D02*
G54D16*
D03*
X-866378Y21828D02*
G54D16*
D03*
X-840978Y-13494D02*
G54D16*
D03*
X-840978Y21828D02*
G54D16*
D03*
X-677466Y53974D02*
G54D16*
D03*
X-677466Y18653D02*
G54D16*
D03*
X-702469Y53974D02*
G54D16*
D03*
X-702469Y18653D02*
G54D16*
D03*
X-725884Y-772716D02*
G54D16*
D03*
X-725884Y-808038D02*
G54D16*
D03*
X354806Y-53976D02*
G54D16*
D03*
X354806Y-89297D02*
G54D16*
D03*
X329406Y11906D02*
G54D16*
D03*
X329406Y-23416D02*
G54D16*
D03*
X126603Y60324D02*
G54D17*
D03*
X91281Y60324D02*
G54D17*
D03*
X-890588Y-401241D02*
G54D18*
D03*
X-890588Y-445691D02*
G54D18*
D03*
X-859631Y-404813D02*
G54D16*
D03*
X-859631Y-440135D02*
G54D16*
D03*
X280194Y60324D02*
G54D19*
D03*
X235744Y60324D02*
G54D19*
D03*
X-518691Y-294431D02*
G54D20*
D03*
X-476622Y-294431D02*
G54D20*
D03*
X228309Y-385431D02*
G54D20*
D03*
X270378Y-385431D02*
G54D20*
D03*
X-773691Y-812500D02*
G54D13*
D03*
X-773691Y-770431D02*
G54D13*
D03*
M02*
