; Drill file
; Format: 3.2 (000.00)
M48
METRIC
T01C0.6
T02C0.72
T03C1.1
%
G05
G90
T01
X-10458Y-06306
X-10200Y-06199
X-09967Y-06144
X-09839Y-06167
X-09716Y-06203
X-09573Y-06191
X-09787Y-05993
X-09827Y-05782
X-09791Y-05644
X-10147Y-05686
X-10350Y-05552
X-10263Y-05437
X-10216Y-05076
X-10335Y-04993
X-10386Y-04838
X-10700Y-04544
X-10680Y-04378
X-11069Y-04304
X-11061Y-03961
X-10986Y-03770
X-10549Y-03754
X-10352Y-03716
X-10196Y-03489
X-10180Y-03254
X-10057Y-03134
X-10386Y-03258
X-10660Y-03068
X-10807Y-03242
X-10966Y-02738
X-10231Y-02651
X-10108Y-02683
X-09882Y-02508
X-09581Y-02270
X-09569Y-02024
X-09807Y-02008
X-10200Y-02008
X-10327Y-02135
X-10204Y-02222
X-10291Y-01651
X-10430Y-01588
X-10644Y-01607
X-10720Y-01222
X-10521Y-01147
X-10319Y-01310
X-10067Y-01304
X-10057Y-01304
X-10009Y-01651
X-09632Y-01373
X-09112Y-01083
X-08977Y-01111
X-08969Y-00762
X-08763Y-00635
X-08934Y-00341
X-08667Y-00304
X-08439Y-00870
X-08338Y-00877
X-07926Y-01175
X-07842Y-01457
X-07648Y-01627
X-07549Y-01250
X-07326Y-01056
X-07227Y-01246
X-07203Y-01421
X-07239Y-01651
X-06691Y-01631
X-06437Y-01722
X-06247Y-01472
X-05743Y-01460
X-05433Y-01457
X-05544Y-01881
X-05679Y-01849
X-05759Y-02040
X-05949Y-02278
X-06056Y-02413
X-06540Y-02322
X-06707Y-02564
X-06965Y-02274
X-07136Y-02274
X-07657Y-02174
X-07993Y-02215
X-08422Y-02167
X-08703Y-01810
X-08977Y-01734
X-09176Y-02175
X-09029Y-02234
X-08954Y-02607
X-09133Y-02654
X-09042Y-02781
X-08607Y-02604
X-08172Y-02865
X-07858Y-02893
X-07489Y-02953
X-07439Y-03410
X-07965Y-03500
X-08124Y-03516
X-08303Y-03492
X-08604Y-03453
X-08616Y-03310
X-08954Y-03290
X-09045Y-03798
X-08819Y-03850
X-08607Y-03884
X-08378Y-03945
X-08192Y-04073
X-08283Y-04310
X-08100Y-04338
X-08377Y-04524
X-08600Y-04596
X-08604Y-04747
X-08680Y-04921
X-08446Y-04933
X-08616Y-05405
X-08854Y-05421
X-09077Y-05425
X-09116Y-05727
X-09176Y-06152
X-09053Y-06223
X-08870Y-06231
X-08627Y-06214
X-08009Y-06080
X-07620Y-06044
X-07465Y-06080
X-07227Y-06434
X-07191Y-06671
X-06929Y-06548
X-06918Y-06453
X-06513Y-06469
X-06243Y-06461
X-06187Y-06572
X-05838Y-06866
X-05568Y-06882
X-05314Y-06882
X-05072Y-06922
X-04818Y-06989
X-04421Y-07124
X-04389Y-06989
X-03842Y-06783
X-03885Y-06513
X-03905Y-06406
X-03528Y-06402
X-03532Y-06608
X-03524Y-06830
X-03461Y-07156
X-03199Y-06719
X-02834Y-06993
X-02802Y-07120
X-02476Y-07064
X-02266Y-07124
X-01266Y-07299
X-01167Y-07227
X-01266Y-06644
X-00861Y-06608
X-00746Y-06739
X-00655Y-06544
X-00547Y-06540
X-00476Y-06227
X-00810Y-06283
X-00818Y-06136
X-00837Y-05882
X-00798Y-05723
X-00730Y-05489
X-00603Y-05493
X-00853Y-05334
X-00552Y-05136
X-00818Y-04743
X-01072Y-05005
X-01544Y-05124
X-02064Y-05048
X-02115Y-04385
X-02048Y-03921
X-01806Y-03905
X-01389Y-03536
X-01298Y-03278
X-01167Y-03191
X-01576Y-03139
X-01527Y-02934
X-01631Y-02588
X-01536Y-02298
X-01691Y-02282
X-01778Y-02076
X-01770Y-01949
X-01655Y-01810
X-01361Y-01992
X-01135Y-01826
X-01044Y-01992
X-01195Y-02346
X-01206Y-02496
X-00591Y-02131
X-00544Y-01869
X-01004Y-01457
X-00798Y-00949
X-00452Y-00714
X-00337Y-00897
X-00187Y-00897
X-00107Y-00746
X00349Y-00667
X00480Y-00667
X00496Y-00119
X00754Y-00131
X00718Y00627
X00433Y00583
X00087Y00683
X-00091Y00575
X-00234Y00734
X-00321Y00635
X-00818Y00599
X-00829Y00734
X-00992Y00595
X-01131Y00107
X-01250Y-00008
X-00996Y-00016
X-01048Y-00377
X-01068Y-00536
X-01262Y-00540
X-01527Y-00544
X-01671Y-00552
X-01631Y-00369
X-01885Y-00655
X-02131Y-00659
X-02262Y-00667
X-02107Y-00833
X-01972Y-00933
X-01691Y-01076
X-01580Y-00933
X-01347Y-00934
X-01794Y-01405
X-02102Y-01634
X-02310Y-01810
X-02389Y-02147
X-02290Y-02350
X-02163Y-02687
X-02230Y-02941
X-02068Y-03008
X-01893Y-03183
X-02318Y-03147
X-02544Y-03052
X-02631Y-02865
X-02790Y-03028
X-03171Y-02929
X-03294Y-02865
X-03457Y-02814
X-03175Y-02457
X-02719Y-02389
X-02790Y-01949
X-02604Y-01528
X-03028Y-01516
X-03254Y-01453
X-03330Y-01564
X-03683Y-01540
X-03797Y-01804
X-04000Y-01838
X-03643Y-01953
X-03703Y-02322
X-04290Y-02536
X-04358Y-02822
X-04052Y-03104
X-03862Y-03052
X-04000Y-03405
X-04175Y-03286
X-04393Y-03612
X-04370Y-03901
X-04477Y-04163
X-04564Y-04350
X-04254Y-04425
X-04046Y-04030
X-03885Y-04036
X-03797Y-04284
X-03731Y-04850
X-03754Y-05286
X-03981Y-05548
X-03949Y-05679
X-03409Y-05473
X-03254Y-05401
X-02973Y-05965
X-03528Y-06191
X-04302Y-06183
X-04802Y-06175
X-05068Y-06187
X-05307Y-06184
X-05577Y-06174
X-05837Y-06174
X-05902Y-05902
X-06183Y-06013
X-06294Y-05993
X-06453Y-06017
X-06568Y-05584
X-06687Y-05568
X-06378Y-05560
X-06147Y-05564
X-05747Y-05534
X-05580Y-05524
X-05227Y-05556
X-05120Y-04528
X-04886Y-04508
X-05088Y-04143
X-05398Y-04092
X-05401Y-03874
X-05215Y-03687
X-05028Y-03687
X-05219Y-03413
X-04786Y-03310
X-04632Y-03294
X-04104Y-03679
X-03449Y-03453
X-03195Y-04064
X-03092Y-04068
X-02937Y-04060
X-02838Y-04429
X-00786Y-04128
X-00556Y-03762
X-00758Y-03687
X-00492Y-03504
X00302Y-03500
X00448Y-03231
X00814Y-03302
X00972Y-03405
X01083Y-03552
X01188Y-03601
X01282Y-03405
X01210Y-03306
X01540Y-03496
X01643Y-03310
X01877Y-03254
X01996Y-02957
X01568Y-02861
X01750Y-02496
X01576Y-02270
X01306Y-01877
X01187Y-01893
X00667Y-01865
X00401Y-01818
X00131Y-01897
X00516Y-01472
X-00258Y-01234
X-00507Y-00314
X-00508Y-00147
X-00540Y00052
X-00091Y00024
X-01508Y00655
X-02076Y00444
X-02453Y00611
X-02568Y00373
X-02730Y00354
X-02492Y-00008
X-02425Y-00131
X-02353Y00091
X-02171Y-00056
X-02417Y-01012
X-02842Y-00818
X-02925Y-01040
X-03191Y-00945
X-03369Y-01016
X-03290Y-00552
X-03294Y-00425
X-03219Y-00286
X-03294Y-00004
X-03691Y00115
X-04187Y-00044
X-04493Y-00202
X-04651Y-00266
X-04774Y-00357
X-04850Y-00060
X-04770Y00111
X-04635Y00354
X-05275Y00095
X-05346Y-00087
X-05695Y-00302
X-05743Y-00417
X-05917Y-00818
X-06231Y-00742
X-06314Y-00460
X-06298Y-00127
X-06509Y00000
X-06140Y00282
X-06029Y00560
X-05667Y00468
X-05501Y00512
X-05302Y00568
X-05487Y-00774
X-05370Y-00822
X-05247Y-01032
X-04564Y-00865
X-04219Y-00822
X-03961Y-00913
X-03707Y-00560
X-04306Y-00536
X-04334Y-01234
X-04651Y-01540
X-04564Y-01766
X-04790Y-01849
X-04612Y-02215
X-04453Y-02111
X-04620Y-02433
X-04787Y-02384
X-04957Y-02429
X-04989Y-02699
X-05407Y-02954
X-05677Y-02874
X-06231Y-03020
X-06338Y-02905
X-06441Y-02865
X-06378Y-03437
X-06775Y-03373
X-06910Y-03858
X-06870Y-04068
X-06739Y-04000
X-06906Y-04223
X-07205Y-04216
X-07211Y-03989
X-07584Y-03945
X-07751Y-04044
X-07890Y-04036
X-07588Y-04338
X-07739Y-04520
X-07197Y-04524
X-06957Y-04568
X-06899Y-04792
X-06902Y-05040
X-06425Y-05056
X-05957Y-04536
X-05985Y-04227
X-05818Y-04223
X-05667Y-04227
X-05739Y-03647
X-05913Y-03445
X-06247Y-04124
X-06497Y-04144
X-07541Y-05108
X-07211Y-05449
X-07485Y-05624
X-07902Y-05568
X-08053Y-05574
X-08120Y-05687
X-08362Y-05453
X-08973Y-05088
X-09541Y-05080
X-09831Y-04334
X-10037Y-04364
X-10164Y-04385
X-10172Y-04124
X-10192Y-04004
X-10093Y-03925
X-09807Y-03834
X-09708Y-04040
X-09406Y-03727
X-09624Y-03492
X-09739Y-03465
X-09624Y-03203
X-09192Y-03993
X-09152Y-04254
X-10279Y-05941
X-10743Y-06191
X-09362Y-06604
X-07727Y-07469
X-07271Y-07564
X-07056Y-07279
X-06854Y-07259
X-06767Y-07362
X-06842Y-07469
X-06564Y-07584
X-06497Y-07354
X-06235Y-07132
X-06040Y-07164
X-06111Y-07492
X-05917Y-07497
X-05417Y-07239
X-05294Y-07227
X-05159Y-07239
X-06111Y-08035
X-06568Y-07981
X-06675Y-08283
X-06933Y-08184
X-07076Y-08390
X-07346Y-08263
X-07580Y-08382
X-07727Y-08344
X-06929Y-06984
X-05421Y-02012
X-06533Y-00810
X-06965Y-00464
X-07041Y00008
X-07394Y00663
X-08084Y00548
X-08251Y00373
X-09128Y00655
X-09303Y00671
X-09787Y00337
X-10029Y00314
X-10188Y00187
X-10529Y00008
X-10152Y-00294
X-10041Y-00179
X-09839Y-00167
X-09676Y-00167
X-09553Y-00310
X-09573Y-00556
X-09588Y-00687
X-10307Y-00802
X-10720Y-00941
X-10712Y-00619
X-10977Y-01994
X-08442Y-01643
X-03568Y00651
X-03314Y00595
X-03175Y00591
X00159Y-02627
X00516Y-02707
X00718Y-03500
X00738Y-03774
X00738Y-04135
X00913Y-04128
X01238Y-03957
X01425Y-03901
X01560Y-04068
X01901Y-03997
X02313Y-03704
X02187Y-03401
X02707Y-03350
X02961Y-03485
X02786Y-03679
X02655Y-03643
X02984Y-03806
X03127Y-04052
X03254Y-04068
X03548Y-04112
X03483Y-03684
X03695Y-03612
X03687Y-03318
X03520Y-03207
X03433Y-02861
X03104Y-02810
X02877Y-02838
X02901Y-02580
X02794Y-02266
X02604Y-02270
X02413Y-02254
X02068Y-02250
X02171Y-01873
X01945Y-01818
X02409Y-01861
X02713Y-01554
X02492Y-01314
X02615Y-01175
X02719Y-01214
X02588Y-00949
X02445Y-00897
X02905Y-00956
X03115Y-00889
X03231Y-00933
X03278Y-01226
X03242Y-01556
X03250Y-01845
X03084Y-01897
X02842Y-01901
X03139Y-02266
X03417Y-02516
X03453Y-02036
X03623Y-02040
X03735Y-01842
X03500Y-01838
X03695Y-01556
X03703Y-00929
X03754Y-00643
X03762Y-00516
X03528Y-00183
X03671Y-00111
X03711Y00496
X03528Y00484
X03397Y00437
X03064Y-00008
X02750Y00087
X02743Y-00324
X03088Y-00488
X03151Y-00619
X02028Y00512
X01780Y00583
X01560Y00536
X04699Y-00123
X04897Y-00159
X04882Y-00468
X04901Y-01057
X04703Y-01250
X04751Y-01699
X04667Y-01925
X04675Y-02179
X04826Y-02187
X04850Y-02342
X04663Y-02353
X05096Y-02171
X05501Y-02179
X05763Y-01929
X05949Y-02195
X06100Y-02262
X06219Y-02536
X06552Y-02500
X06370Y-02842
X06001Y-03016
X05858Y-02655
X05517Y-02734
X06160Y-01929
X06477Y-02008
X06787Y-02088
X07068Y-02266
X07441Y-02473
X07564Y-02342
X07052Y-02881
X07719Y-03885
X08001Y-04131
X08148Y-04135
X08299Y-04076
X08604Y-03834
X08763Y-03596
X08727Y-03409
X08830Y-03246
X08680Y-03211
X08505Y-03492
X08910Y-04318
X08561Y-04973
X08501Y-05235
X08485Y-05481
X08549Y-05620
X08557Y-05751
X08930Y-05989
X08954Y-06342
X09299Y-06362
X08600Y-06239
X08207Y-06521
X08239Y-06691
X08100Y-06691
X07993Y-06464
X07993Y-06306
X07918Y-06191
X07914Y-05818
X08072Y-05751
X07914Y-05608
X07814Y-05528
X07580Y-05771
X07164Y-05822
X06981Y-05775
X06858Y-05703
X06747Y-05878
X06616Y-05909
X06608Y-05723
X06711Y-06128
X06862Y-06152
X06886Y-06334
X06941Y-06529
X07029Y-06791
X07207Y-06632
X07430Y-06533
X07735Y-06517
X07505Y-06215
X07140Y-06283
X06767Y-06878
X06767Y-07072
X06715Y-07195
X06543Y-07166
X06414Y-06691
X06195Y-06612
X06377Y-06396
X06136Y-06263
X06096Y-05794
X05985Y-05739
X05707Y-05548
X05473Y-05505
X05544Y-05786
X05330Y-05822
X05175Y-05759
X04973Y-05810
X04929Y-05600
X04774Y-05505
X04893Y-05231
X04782Y-05120
X04401Y-05020
X04270Y-05009
X04389Y-04890
X04116Y-04755
X04056Y-04905
X03913Y-04608
X04207Y-04528
X04306Y-04592
X04231Y-04056
X04385Y-04048
X04374Y-03933
X04028Y-04020
X04012Y-03881
X04846Y-04100
X05001Y-04128
X05116Y-04104
X05417Y-04064
X05588Y-04139
X05644Y-03933
X05870Y-04056
X06052Y-04139
X06152Y-04020
X06306Y-04036
X06175Y-04520
X06128Y-04731
X06239Y-04890
X06354Y-04850
X06255Y-05096
X06112Y-05080
X05767Y-04989
X05667Y-04762
X05790Y-04636
X05536Y-04564
X05477Y-04679
X05405Y-04778
X05155Y-04806
X05207Y-04600
X04846Y-04310
X04163Y-05501
X04004Y-05576
X03881Y-05505
X03750Y-05505
X03528Y-05501
X03334Y-05584
X03151Y-05493
X03084Y-05648
X02925Y-05644
X02671Y-05628
X02504Y-05929
X02330Y-06330
X01992Y-06362
X01849Y-06445
X01782Y-06183
X01615Y-06191
X01441Y-06227
X01322Y-06223
X01191Y-06215
X01064Y-06175
X00683Y-06179
X00496Y-06183
X00556Y-06362
X00679Y-06382
X00710Y-06612
X00697Y-06753
X00972Y-06668
X01349Y-06767
X01488Y-06767
X01635Y-06806
X01885Y-06791
X02016Y-06763
X02032Y-06945
X01457Y-07267
X01226Y-07176
X01123Y-07322
X00714Y-07358
X00548Y-07374
X00183Y-07342
X00119Y-07160
X-00087Y-07164
X-00171Y-07001
X-00349Y-06973
X-00552Y-07144
X00163Y-06743
X00206Y-06509
X00397Y-06791
X00960Y-07739
X00698Y-07918
X01107Y-08291
X01953Y-08315
X02445Y-08303
X02691Y-08453
X03100Y-08386
X04092Y-08418
X04512Y-08461
X05159Y-08390
X05243Y-07386
X05314Y-07191
X05163Y-07187
X05013Y-07195
X04985Y-07001
X04853Y-06804
X04479Y-06797
X04358Y-06779
X04243Y-06751
X03973Y-06791
X04064Y-06487
X04203Y-06433
X04366Y-06374
X04377Y-06501
X04286Y-06215
X04028Y-06183
X03655Y-06354
X03552Y-06259
X03377Y-06310
X03258Y-06322
X03266Y-06191
X03056Y-06279
X03254Y-06469
X03433Y-06525
X03560Y-06648
X03643Y-06798
X03354Y-06747
X03258Y-06711
X02984Y-06739
X02695Y-06707
X02732Y-07205
X03104Y-07370
X03338Y-07247
X03581Y-07328
X03731Y-07267
X03962Y-07174
X04171Y-07168
X04294Y-07172
X04473Y-07172
X04166Y-07338
X05278Y-06791
X05350Y-06556
X05263Y-06414
X05132Y-06279
X04909Y-06056
X05521Y-06533
X05528Y-07223
X05882Y-07211
X07037Y-07160
X07108Y-07362
X07497Y-07485
X07612Y-07497
X07793Y-07464
X07969Y-07509
X08045Y-07787
X08231Y-07846
X08430Y-07850
X08418Y-08342
X08862Y-08299
X09208Y-08136
X08993Y-07914
X09116Y-07691
X08358Y-07295
X08223Y-07334
X08152Y-07235
X08273Y-07134
X07906Y-07965
X07473Y-08088
X07707Y-05108
X07541Y-05056
X07374Y-04981
X07235Y-05088
X06850Y-04989
X06941Y-04802
X06826Y-04651
X07088Y-04501
X07295Y-04505
X07366Y-04620
X07596Y-04675
X07672Y-04770
X07818Y-04608
X07898Y-04703
X07985Y-04790
X07989Y-04516
X08188Y-04516
X08287Y-04981
X08275Y-05104
X08029Y-05096
X06624Y-04890
X06481Y-05088
X06461Y-04548
X03623Y-05120
X03485Y-05108
X03516Y-04814
X03377Y-04600
X03195Y-04949
X03143Y-05108
X02861Y-04878
X02738Y-05068
X02508Y-04909
X02222Y-04913
X02179Y-04683
X02028Y-04707
X02207Y-04433
X02405Y-04346
X02512Y-04183
X02957Y-04120
X02528Y-02826
X03846Y-02945
X05104Y-01707
X05251Y-01695
X05191Y-01218
X05330Y-01206
X05239Y-01000
X05731Y-00698
X05675Y-00310
X05493Y-00238
X05993Y-01210
X06223Y-01369
X05957Y-01504
X05792Y-01541
X06751Y-01167
X07199Y-01679
X07096Y-00448
X07223Y-00270
X07465Y-00361
X08537Y-00437
X08557Y-00655
X08588Y-00782
X09104Y-00512
X09366Y-00512
X08993Y00754
X08481Y00611
X07862Y00857
X07568Y00758
X06894Y00794
X09275Y-02393
X09350Y-02683
X02052Y-05263
X01822Y-05048
X01695Y-04806
X01576Y-04671
X01365Y-04735
X01544Y-04989
X00972Y-04707
X00881Y-05020
X00544Y-04675
X00139Y-04933
X00349Y-05330
X00544Y-05588
X00242Y-05691
X00984Y-05659
X01405Y-05810
X01595Y-05703
X01770Y-05778
X00210Y-04199
T02
X-05588Y-07906
X-05452Y-08094
X-05334Y-07906
X-05452Y-07709
X-05334Y-07521
X-05198Y-07709
X-05080Y-07521
X-04944Y-07709
X-04826Y-07521
X-04690Y-07709
X-04572Y-07521
X-04436Y-07709
X-04318Y-07521
X-04182Y-07709
X-04064Y-07521
X-03928Y-07709
X-03810Y-07521
X-03674Y-07709
X-03556Y-07521
X-03420Y-07709
X-03302Y-07521
X-03166Y-07709
X-03048Y-07521
X-02912Y-07709
X-02794Y-07521
X-02658Y-07709
X-02540Y-07521
X-02404Y-07709
X-02286Y-07521
X-02150Y-07709
X-02032Y-07521
X-01896Y-07709
X-01778Y-07521
X-01642Y-07709
X-01524Y-07521
X-01388Y-07709
X-01270Y-07521
X-01134Y-07709
X-01016Y-07521
X-00880Y-07709
X-00762Y-07521
X-00626Y-07709
X-00508Y-07521
X-00372Y-07709
X-00254Y-07521
X-00118Y-07709
X00000Y-07521
X00136Y-07709
X00254Y-07521
X00390Y-07709
X00508Y-07521
X00644Y-07709
X00508Y-07906
X00390Y-08094
X00254Y-07906
X00136Y-08094
X00000Y-07906
X-00118Y-08094
X-00254Y-07906
X-00372Y-08094
X-00508Y-07906
X-00626Y-08094
X-00762Y-07906
X-00880Y-08094
X-01016Y-07906
X-01134Y-08094
X-01270Y-07906
X-01388Y-08094
X-01524Y-07906
X-01642Y-08094
X-01778Y-07906
X-01896Y-08094
X-02032Y-07906
X-02150Y-08094
X-02286Y-07906
X-02404Y-08094
X-02540Y-07906
X-02658Y-08094
X-02794Y-07906
X-02912Y-08094
X-03048Y-07906
X-03166Y-08094
X-03302Y-07906
X-03420Y-08094
X-03556Y-07906
X-03674Y-08094
X-03810Y-07906
X-03928Y-08094
X-04064Y-07906
X-04182Y-08094
X-04318Y-07906
X-04436Y-08094
X-04572Y-07906
X-04690Y-08094
X-04826Y-07906
X-04944Y-08094
X-05080Y-07906
X-05198Y-08094
X-05588Y-07521
X-05556Y-05904
X-05302Y-05904
X-05048Y-05904
X-04794Y-05904
X-04540Y-05904
X-04286Y-05904
X-04032Y-05904
X-03302Y-05761
X-03048Y-05761
X-02794Y-05761
X-02540Y-05761
X-02286Y-05761
X-02032Y-05761
X-01778Y-05761
X-01524Y-05761
X-01270Y-05761
X-01016Y-05761
X-01016Y-05253
X-01270Y-05253
X-01524Y-05253
X-01778Y-05253
X-02032Y-05253
X-02286Y-05253
X-02540Y-05253
X-02794Y-05253
X-02794Y-04777
X-02540Y-04777
X-02286Y-04777
X-02032Y-04777
X-01778Y-04777
X-01524Y-04777
X-01270Y-04777
X-01016Y-04777
X-01032Y-04253
X-01286Y-04253
X-01540Y-04253
X-01794Y-04253
X-02048Y-04253
X-02302Y-04253
X-02556Y-04253
X-02810Y-04253
X-02794Y-03745
X-03048Y-03745
X-03302Y-03745
X-02540Y-03745
X-02286Y-03745
X-02032Y-03745
X-01778Y-03745
X-01524Y-03745
X-01270Y-03745
X-01016Y-03745
X-03048Y-04777
X-03302Y-04777
X-04032Y-05142
X-04286Y-05142
X-04540Y-05142
X-04794Y-05142
X-05048Y-05142
X-05302Y-05142
X-05556Y-05142
X-06223Y-03949
X-06477Y-03949
X-02794Y-06269
X-02540Y-06269
X-02286Y-06269
X-02032Y-06269
X-01778Y-06269
X-01524Y-06269
X-01270Y-06269
X-01016Y-06269
X01080Y-07521
X01215Y-07709
X01334Y-07521
X01469Y-07709
X01588Y-07521
X01723Y-07709
X01842Y-07521
X01977Y-07709
X02096Y-07521
X02231Y-07709
X02350Y-07521
X02485Y-07709
X02604Y-07521
X02739Y-07709
X02858Y-07521
X02993Y-07709
X03112Y-07521
X03247Y-07709
X03366Y-07521
X03501Y-07709
X03620Y-07521
X03755Y-07709
X03874Y-07521
X04009Y-07709
X04128Y-07521
X04263Y-07709
X04382Y-07521
X04517Y-07709
X04636Y-07521
X04771Y-07709
X04890Y-07521
X05025Y-07709
X05144Y-07521
X05279Y-07709
X05398Y-07521
X05533Y-07709
X05652Y-07521
X05787Y-07709
X05906Y-07521
X06041Y-07709
X06160Y-07521
X06295Y-07709
X06414Y-07521
X06549Y-07709
X06668Y-07521
X06803Y-07709
X06922Y-07521
X07057Y-07709
X07176Y-07521
X07311Y-07709
X07176Y-07906
X07057Y-08094
X06922Y-07906
X06803Y-08094
X06668Y-07906
X06549Y-08094
X06414Y-07906
X06295Y-08094
X06160Y-07906
X06041Y-08094
X05906Y-07906
X05787Y-08094
X05652Y-07906
X05533Y-08094
X05398Y-07906
X05279Y-08094
X05144Y-07906
X05025Y-08094
X04890Y-07906
X04771Y-08094
X04636Y-07906
X04517Y-08094
X04382Y-07906
X04263Y-08094
X04128Y-07906
X04009Y-08094
X03874Y-07906
X03755Y-08094
X03620Y-07906
X03501Y-08094
X03366Y-07906
X03247Y-08094
X03112Y-07906
X02993Y-08094
X02858Y-07906
X02739Y-08094
X02604Y-07906
X02485Y-08094
X02350Y-07906
X02231Y-08094
X02096Y-07906
X01977Y-08094
X01842Y-07906
X01723Y-08094
X01588Y-07906
X01469Y-08094
X01334Y-07906
X01215Y-08094
X01080Y-07906
X00644Y-08094
X04008Y-03719
X04008Y-03465
X04008Y-03211
X04008Y-02957
X04008Y-02703
X04008Y-02449
X04008Y-02195
X04008Y-01941
X04008Y-01687
X04008Y-01433
X04008Y-01179
X04008Y-00925
X04008Y-00671
X04008Y-00417
X04008Y-00163
X04008Y00091
X04008Y00345
X04008Y00599
X04262Y00599
X04262Y00345
X04262Y00091
X04262Y-00163
X04262Y-00417
X04262Y-00671
X04262Y-00925
X04262Y-01179
X04262Y-01433
X04262Y-01687
X04262Y-01941
X04262Y-02195
X04262Y-02449
X04262Y-02703
X04262Y-02957
X04262Y-03211
X04262Y-03465
X04262Y-03719
X04516Y-03719
X04516Y-03465
X04516Y-03211
X04516Y-02957
X04516Y-02703
X04516Y-02449
X04516Y-02195
X04516Y-01941
X04516Y-01687
X04516Y-01433
X04516Y-01179
X04516Y-00925
X04516Y-00671
X04516Y-00417
X04516Y-00163
X04516Y00091
X04516Y00345
X04516Y00599
X04770Y00599
X05024Y00599
X05024Y00345
X04770Y00345
X04770Y00091
X05024Y00091
X05278Y00091
X05278Y00345
X05278Y00599
X05532Y00599
X05532Y00345
X05532Y00091
X05786Y00091
X06040Y00091
X06040Y00345
X05786Y00345
X05786Y00599
X06040Y00599
X06294Y00599
X06548Y00599
X06548Y00345
X06294Y00345
X06294Y00091
X06548Y00091
X06802Y00091
X06802Y00345
X06802Y00599
X07056Y00599
X07310Y00599
X07564Y00599
X07564Y00345
X07310Y00345
X07056Y00345
X07056Y00091
X07310Y00091
X07564Y00091
X07818Y00091
X07818Y00345
X07818Y00599
X08072Y00599
X08072Y00345
X08072Y00091
X08072Y-00163
X07818Y-00163
X07818Y-00417
X08072Y-00417
X08072Y-00671
X07818Y-00671
X07818Y-00925
X08072Y-00925
X08072Y-01179
X07818Y-01179
X07818Y-01433
X08072Y-01433
X08072Y-01687
X07818Y-01687
X07818Y-01941
X08072Y-01941
X08072Y-02195
X07818Y-02195
X07818Y-02449
X08072Y-02449
X08072Y-02703
X07818Y-02703
X07818Y-02957
X08072Y-02957
X08072Y-03211
X07818Y-03211
X07818Y-03465
X08072Y-03465
X08072Y-03719
X07818Y-03719
X07564Y-03719
X07310Y-03719
X07310Y-03465
X07564Y-03465
X07564Y-03211
X07310Y-03211
X07056Y-03211
X07056Y-03465
X07056Y-03719
X06802Y-03719
X06802Y-03465
X06802Y-03211
X06548Y-03211
X06294Y-03211
X06040Y-03211
X05786Y-03211
X05786Y-03465
X06040Y-03465
X06294Y-03465
X06548Y-03465
X06548Y-03719
X06294Y-03719
X06040Y-03719
X05786Y-03719
X05532Y-03719
X05532Y-03465
X05532Y-03211
X05278Y-03211
X05278Y-03465
X05278Y-03719
X05024Y-03719
X05024Y-03465
X05024Y-03211
X04770Y-03211
X04770Y-03465
X04770Y-03719
X02445Y-01539
X02191Y-01539
X01937Y-01539
X01683Y-01539
X01429Y-01539
X01175Y-01539
X00921Y-01539
X00667Y-01539
X00667Y-01126
X00921Y-01126
X01175Y-01126
X01429Y-01126
X01683Y-01126
X01937Y-01126
X02191Y-01126
X02445Y-01126
X02445Y-00713
X02191Y-00713
X01937Y-00713
X01683Y-00713
X01429Y-00713
X01175Y-00713
X00921Y-00713
X00667Y-00713
X00667Y-00316
X00921Y-00316
X01175Y-00316
X01429Y-00316
X01683Y-00316
X01937Y-00316
X02191Y-00316
X02445Y-00316
X02445Y00081
X02191Y00081
X01937Y00081
X01683Y00081
X01429Y00081
X01175Y00081
X00921Y00081
X00667Y00081
X02699Y-00713
X02953Y-00713
X08326Y-00671
X08326Y-00417
X08326Y-00163
X08326Y00091
X08326Y00345
X08326Y-00925
X08326Y-01179
X08326Y-01433
X08326Y-01687
X08326Y-01941
X08326Y-02195
X08326Y-02449
X08326Y-02703
X08326Y-02957
X08326Y-03211
X08326Y-03465
X08326Y-03719
X08739Y-03985
X08739Y-04239
X08739Y-04493
X08739Y-04747
X08739Y-05001
X08739Y-05255
X08739Y-05509
X08739Y-05763
X08739Y-06017
X08739Y-06271
X09092Y-06275
X09092Y-06021
X09092Y-05767
X09092Y-05513
X09092Y-05259
X09092Y-05005
X09092Y-04751
X09092Y-04497
X09092Y-04243
X09092Y-03989
X09084Y-02961
X09084Y-02707
X09084Y-02453
X09084Y-02199
X09084Y-01945
X09084Y-01691
X09084Y-01437
X09084Y-01183
X09084Y-00929
X09084Y-00675
X08799Y-01175
X08799Y-01429
X08799Y-01683
X08799Y-01937
X08799Y-02191
X08799Y-02445
X08799Y-02699
X08799Y-02953
X07311Y-08094
X-08350Y00620
X-08604Y00620
X-08858Y00620
X-09698Y00611
X-09952Y00611
X-10206Y00611
X-10460Y00611
T03
X-05588Y-04634
X-05588Y-03872
X-04064Y-03872
X-04064Y-04634
M30
