%FSLAX34Y34*%
%MOMM*%
%LNSOLDERMASK_BOTTOM*%
G71*
G01*
%ADD10C, 2.120*%
%ADD11C, 1.800*%
%ADD12C, 2.200*%
%ADD13C, 2.000*%
%ADD14C, 1.900*%
%ADD15C, 1.500*%
%LPD*%
G36*
X-1056612Y71725D02*
X-1035412Y71725D01*
X-1035412Y50525D01*
X-1056612Y50525D01*
X-1056612Y71725D01*
G37*
X-1020612Y61125D02*
G54D10*
D03*
X-995212Y61125D02*
G54D10*
D03*
X-969812Y61125D02*
G54D10*
D03*
G36*
X-896425Y72638D02*
X-875225Y72638D01*
X-875225Y51438D01*
X-896425Y51438D01*
X-896425Y72638D01*
G37*
X-860425Y62038D02*
G54D10*
D03*
X-835025Y62038D02*
G54D10*
D03*
G36*
X57675Y17062D02*
X75675Y17062D01*
X75675Y-938D01*
X57675Y-938D01*
X57675Y17062D01*
G37*
X92075Y8062D02*
G54D11*
D03*
X117475Y8062D02*
G54D11*
D03*
X142875Y8062D02*
G54D11*
D03*
X168275Y8062D02*
G54D11*
D03*
X193675Y8062D02*
G54D11*
D03*
X219075Y8062D02*
G54D11*
D03*
X244475Y8062D02*
G54D11*
D03*
G36*
X57675Y-22625D02*
X75675Y-22625D01*
X75675Y-40625D01*
X57675Y-40625D01*
X57675Y-22625D01*
G37*
X92075Y-31625D02*
G54D11*
D03*
X117475Y-31625D02*
G54D11*
D03*
X142875Y-31625D02*
G54D11*
D03*
X168275Y-31625D02*
G54D11*
D03*
X193675Y-31625D02*
G54D11*
D03*
X219075Y-31625D02*
G54D11*
D03*
X244475Y-31625D02*
G54D11*
D03*
G36*
X57675Y-62312D02*
X75675Y-62312D01*
X75675Y-80312D01*
X57675Y-80312D01*
X57675Y-62312D01*
G37*
X92075Y-71312D02*
G54D11*
D03*
X117475Y-71312D02*
G54D11*
D03*
X142875Y-71312D02*
G54D11*
D03*
X168275Y-71312D02*
G54D11*
D03*
X193675Y-71312D02*
G54D11*
D03*
X219075Y-71312D02*
G54D11*
D03*
X244475Y-71312D02*
G54D11*
D03*
X269875Y-71312D02*
G54D11*
D03*
X295275Y-71312D02*
G54D11*
D03*
G36*
X57675Y-103588D02*
X75675Y-103588D01*
X75675Y-121588D01*
X57675Y-121588D01*
X57675Y-103588D01*
G37*
X92075Y-112588D02*
G54D11*
D03*
X117475Y-112588D02*
G54D11*
D03*
X142875Y-112588D02*
G54D11*
D03*
X168275Y-112588D02*
G54D11*
D03*
X193675Y-112588D02*
G54D11*
D03*
X219075Y-112588D02*
G54D11*
D03*
X244475Y-112588D02*
G54D11*
D03*
G36*
X57675Y-144862D02*
X75675Y-144862D01*
X75675Y-162862D01*
X57675Y-162862D01*
X57675Y-144862D01*
G37*
X92075Y-153862D02*
G54D11*
D03*
X117475Y-153862D02*
G54D11*
D03*
X142875Y-153862D02*
G54D11*
D03*
X168275Y-153862D02*
G54D11*
D03*
X193675Y-153862D02*
G54D11*
D03*
X219075Y-153862D02*
G54D11*
D03*
X244475Y-153862D02*
G54D11*
D03*
G36*
X-92600Y-383525D02*
X-110600Y-383525D01*
X-110600Y-365525D01*
X-92600Y-365525D01*
X-92600Y-383525D01*
G37*
X-127000Y-374525D02*
G54D11*
D03*
X-152400Y-374525D02*
G54D11*
D03*
X-177800Y-374525D02*
G54D11*
D03*
X-203200Y-374525D02*
G54D11*
D03*
X-228600Y-374525D02*
G54D11*
D03*
X-254000Y-374525D02*
G54D11*
D03*
X-279400Y-374525D02*
G54D11*
D03*
X-304800Y-374525D02*
G54D11*
D03*
X-330200Y-374525D02*
G54D11*
D03*
G36*
X-92600Y-486712D02*
X-110600Y-486712D01*
X-110600Y-468712D01*
X-92600Y-468712D01*
X-92600Y-486712D01*
G37*
X-127000Y-477712D02*
G54D11*
D03*
X-152400Y-477712D02*
G54D11*
D03*
X-177800Y-477712D02*
G54D11*
D03*
X-203200Y-477712D02*
G54D11*
D03*
X-228600Y-477712D02*
G54D11*
D03*
X-254000Y-477712D02*
G54D11*
D03*
X-279400Y-477712D02*
G54D11*
D03*
X-304800Y-477712D02*
G54D11*
D03*
X-330200Y-477712D02*
G54D11*
D03*
G36*
X-92600Y-585138D02*
X-110600Y-585138D01*
X-110600Y-567138D01*
X-92600Y-567138D01*
X-92600Y-585138D01*
G37*
X-127000Y-576138D02*
G54D11*
D03*
X-152400Y-576138D02*
G54D11*
D03*
X-177800Y-576138D02*
G54D11*
D03*
X-203200Y-576138D02*
G54D11*
D03*
X-228600Y-576138D02*
G54D11*
D03*
X-254000Y-576138D02*
G54D11*
D03*
X-279400Y-576138D02*
G54D11*
D03*
X-304800Y-576138D02*
G54D11*
D03*
X-330200Y-576138D02*
G54D11*
D03*
G36*
X-94188Y-434325D02*
X-112188Y-434325D01*
X-112188Y-416325D01*
X-94188Y-416325D01*
X-94188Y-434325D01*
G37*
X-128588Y-425325D02*
G54D11*
D03*
X-153988Y-425325D02*
G54D11*
D03*
X-179388Y-425325D02*
G54D11*
D03*
X-204788Y-425325D02*
G54D11*
D03*
X-230188Y-425325D02*
G54D11*
D03*
X-255588Y-425325D02*
G54D11*
D03*
X-280988Y-425325D02*
G54D11*
D03*
G36*
X-92600Y-534338D02*
X-110600Y-534338D01*
X-110600Y-516338D01*
X-92600Y-516338D01*
X-92600Y-534338D01*
G37*
X-127000Y-525338D02*
G54D11*
D03*
X-152400Y-525338D02*
G54D11*
D03*
X-177800Y-525338D02*
G54D11*
D03*
X-203200Y-525338D02*
G54D11*
D03*
X-228600Y-525338D02*
G54D11*
D03*
X-254000Y-525338D02*
G54D11*
D03*
X-279400Y-525338D02*
G54D11*
D03*
G36*
X-92600Y-635938D02*
X-110600Y-635938D01*
X-110600Y-617938D01*
X-92600Y-617938D01*
X-92600Y-635938D01*
G37*
X-127000Y-626938D02*
G54D11*
D03*
X-152400Y-626938D02*
G54D11*
D03*
X-177800Y-626938D02*
G54D11*
D03*
X-203200Y-626938D02*
G54D11*
D03*
X-228600Y-626938D02*
G54D11*
D03*
X-254000Y-626938D02*
G54D11*
D03*
X-279400Y-626938D02*
G54D11*
D03*
X-406400Y-463425D02*
G54D12*
D03*
X-558800Y-463425D02*
G54D12*
D03*
X-558800Y-387225D02*
G54D12*
D03*
X-406400Y-387225D02*
G54D12*
D03*
G36*
X-565625Y-580425D02*
X-545625Y-580425D01*
X-545625Y-600425D01*
X-565625Y-600425D01*
X-565625Y-580425D01*
G37*
X-530225Y-590425D02*
G54D13*
D03*
X-504825Y-590425D02*
G54D13*
D03*
X-479425Y-590425D02*
G54D13*
D03*
X-454025Y-590425D02*
G54D13*
D03*
X-428625Y-590425D02*
G54D13*
D03*
X-403225Y-590425D02*
G54D13*
D03*
X-403225Y-514225D02*
G54D13*
D03*
X-428625Y-514225D02*
G54D13*
D03*
X-454025Y-514225D02*
G54D13*
D03*
X-479425Y-514225D02*
G54D13*
D03*
X-504825Y-514225D02*
G54D13*
D03*
X-530225Y-514225D02*
G54D13*
D03*
X-555625Y-514225D02*
G54D13*
D03*
G36*
X864919Y-636063D02*
X864919Y-618063D01*
X882919Y-618063D01*
X882919Y-636063D01*
X864919Y-636063D01*
G37*
X873919Y-601663D02*
G54D11*
D03*
X873919Y-576263D02*
G54D11*
D03*
X873919Y-550863D02*
G54D11*
D03*
X873919Y-525463D02*
G54D11*
D03*
X873919Y-500063D02*
G54D11*
D03*
X873919Y-474663D02*
G54D11*
D03*
X873919Y-449263D02*
G54D11*
D03*
X873919Y-423863D02*
G54D11*
D03*
X873919Y-398463D02*
G54D11*
D03*
G36*
X900241Y-636460D02*
X900241Y-618460D01*
X918241Y-618460D01*
X918241Y-636460D01*
X900241Y-636460D01*
G37*
X909241Y-602060D02*
G54D11*
D03*
X909241Y-576660D02*
G54D11*
D03*
X909241Y-551260D02*
G54D11*
D03*
X909241Y-525860D02*
G54D11*
D03*
X909241Y-500460D02*
G54D11*
D03*
X909241Y-475060D02*
G54D11*
D03*
X909241Y-449660D02*
G54D11*
D03*
X909241Y-424260D02*
G54D11*
D03*
X909241Y-398860D02*
G54D11*
D03*
G36*
X899447Y-305069D02*
X899447Y-287069D01*
X917447Y-287069D01*
X917447Y-305069D01*
X899447Y-305069D01*
G37*
X908447Y-270669D02*
G54D11*
D03*
X908447Y-245269D02*
G54D11*
D03*
X908447Y-219869D02*
G54D11*
D03*
X908447Y-194469D02*
G54D11*
D03*
X908447Y-169069D02*
G54D11*
D03*
X908447Y-143669D02*
G54D11*
D03*
X908447Y-118269D02*
G54D11*
D03*
X908447Y-92869D02*
G54D11*
D03*
X908447Y-67469D02*
G54D11*
D03*
G36*
X870872Y-304276D02*
X870872Y-286276D01*
X888872Y-286276D01*
X888872Y-304276D01*
X870872Y-304276D01*
G37*
X879872Y-269876D02*
G54D11*
D03*
X879872Y-244476D02*
G54D11*
D03*
X879872Y-219076D02*
G54D11*
D03*
X879872Y-193676D02*
G54D11*
D03*
X879872Y-168276D02*
G54D11*
D03*
X879872Y-142876D02*
G54D11*
D03*
X879872Y-117476D02*
G54D11*
D03*
G36*
X-658300Y-384291D02*
X-637100Y-384291D01*
X-637100Y-405491D01*
X-658300Y-405491D01*
X-658300Y-384291D01*
G37*
X-622300Y-394891D02*
G54D10*
D03*
X400844Y59928D02*
G54D13*
D03*
X426244Y59928D02*
G54D13*
D03*
X451644Y59928D02*
G54D13*
D03*
X477044Y59928D02*
G54D13*
D03*
X502444Y59928D02*
G54D13*
D03*
X527844Y59928D02*
G54D13*
D03*
X553244Y59928D02*
G54D13*
D03*
X578644Y59928D02*
G54D13*
D03*
X604044Y59928D02*
G54D13*
D03*
X629444Y59928D02*
G54D13*
D03*
X654844Y59928D02*
G54D13*
D03*
X680244Y59928D02*
G54D13*
D03*
X705644Y59928D02*
G54D13*
D03*
X731044Y59928D02*
G54D13*
D03*
X756444Y59928D02*
G54D13*
D03*
X781845Y59928D02*
G54D13*
D03*
X807245Y59928D02*
G54D13*
D03*
X400844Y34528D02*
G54D13*
D03*
X426244Y34528D02*
G54D13*
D03*
X451644Y34528D02*
G54D13*
D03*
X477044Y34528D02*
G54D13*
D03*
X502444Y34528D02*
G54D13*
D03*
X527844Y34528D02*
G54D13*
D03*
X553244Y34528D02*
G54D13*
D03*
X578644Y34528D02*
G54D13*
D03*
X604044Y34528D02*
G54D13*
D03*
X629444Y34528D02*
G54D13*
D03*
X654844Y34528D02*
G54D13*
D03*
X680244Y34528D02*
G54D13*
D03*
X705644Y34528D02*
G54D13*
D03*
X731044Y34528D02*
G54D13*
D03*
X756444Y34528D02*
G54D13*
D03*
X781845Y34528D02*
G54D13*
D03*
X807245Y34528D02*
G54D13*
D03*
X832645Y34528D02*
G54D13*
D03*
X400844Y9128D02*
G54D13*
D03*
X426244Y9128D02*
G54D13*
D03*
X451644Y9128D02*
G54D13*
D03*
X477044Y9128D02*
G54D13*
D03*
X502444Y9128D02*
G54D13*
D03*
X527844Y9128D02*
G54D13*
D03*
X553244Y9128D02*
G54D13*
D03*
X578644Y9128D02*
G54D13*
D03*
X604044Y9128D02*
G54D13*
D03*
X629444Y9128D02*
G54D13*
D03*
X654844Y9128D02*
G54D13*
D03*
X680244Y9128D02*
G54D13*
D03*
X705644Y9128D02*
G54D13*
D03*
X731044Y9128D02*
G54D13*
D03*
X756444Y9128D02*
G54D13*
D03*
X781845Y9128D02*
G54D13*
D03*
X807245Y9128D02*
G54D13*
D03*
X832645Y9128D02*
G54D13*
D03*
X400844Y-16272D02*
G54D13*
D03*
X426244Y-16272D02*
G54D13*
D03*
X451644Y-16272D02*
G54D13*
D03*
X781845Y-16272D02*
G54D13*
D03*
X807245Y-16272D02*
G54D13*
D03*
X832645Y-16272D02*
G54D13*
D03*
X400844Y-41672D02*
G54D13*
D03*
X426244Y-41672D02*
G54D13*
D03*
X451644Y-41672D02*
G54D13*
D03*
X781845Y-41672D02*
G54D13*
D03*
X807245Y-41672D02*
G54D13*
D03*
X832645Y-41672D02*
G54D13*
D03*
X400844Y-67072D02*
G54D13*
D03*
X426244Y-67072D02*
G54D13*
D03*
X451644Y-67072D02*
G54D13*
D03*
X781845Y-67072D02*
G54D13*
D03*
X807245Y-67072D02*
G54D13*
D03*
X832645Y-67072D02*
G54D13*
D03*
X400844Y-92472D02*
G54D13*
D03*
X426244Y-92472D02*
G54D13*
D03*
X451644Y-92472D02*
G54D13*
D03*
X781845Y-92472D02*
G54D13*
D03*
X807245Y-92472D02*
G54D13*
D03*
X832645Y-92472D02*
G54D13*
D03*
X400844Y-117872D02*
G54D13*
D03*
X426244Y-117872D02*
G54D13*
D03*
X451644Y-117872D02*
G54D13*
D03*
X781845Y-117872D02*
G54D13*
D03*
X807245Y-117872D02*
G54D13*
D03*
X832645Y-117872D02*
G54D13*
D03*
X400844Y-143272D02*
G54D13*
D03*
X426244Y-143272D02*
G54D13*
D03*
X451644Y-143272D02*
G54D13*
D03*
X781845Y-143272D02*
G54D13*
D03*
X807245Y-143272D02*
G54D13*
D03*
X832645Y-143272D02*
G54D13*
D03*
X400844Y-168672D02*
G54D13*
D03*
X426244Y-168672D02*
G54D13*
D03*
X451644Y-168672D02*
G54D13*
D03*
X781845Y-168672D02*
G54D13*
D03*
X807245Y-168672D02*
G54D13*
D03*
X832645Y-168672D02*
G54D13*
D03*
X400844Y-194072D02*
G54D13*
D03*
X426244Y-194072D02*
G54D13*
D03*
X451644Y-194072D02*
G54D13*
D03*
X781845Y-194072D02*
G54D13*
D03*
X807245Y-194072D02*
G54D13*
D03*
X832645Y-194072D02*
G54D13*
D03*
X400844Y-219472D02*
G54D13*
D03*
X426244Y-219472D02*
G54D13*
D03*
X451644Y-219472D02*
G54D13*
D03*
X781845Y-219472D02*
G54D13*
D03*
X807245Y-219472D02*
G54D13*
D03*
X832645Y-219472D02*
G54D13*
D03*
X400844Y-244872D02*
G54D13*
D03*
X426244Y-244872D02*
G54D13*
D03*
X451644Y-244872D02*
G54D13*
D03*
X781845Y-244872D02*
G54D13*
D03*
X807245Y-244872D02*
G54D13*
D03*
X832645Y-244872D02*
G54D13*
D03*
X400844Y-270272D02*
G54D13*
D03*
X426244Y-270272D02*
G54D13*
D03*
X451644Y-270272D02*
G54D13*
D03*
X781845Y-270272D02*
G54D13*
D03*
X807245Y-270272D02*
G54D13*
D03*
X832645Y-270272D02*
G54D13*
D03*
X400844Y-295672D02*
G54D13*
D03*
X426244Y-295672D02*
G54D13*
D03*
X451644Y-295672D02*
G54D13*
D03*
X781845Y-295672D02*
G54D13*
D03*
X807245Y-295672D02*
G54D13*
D03*
X832645Y-295672D02*
G54D13*
D03*
X400844Y-321072D02*
G54D13*
D03*
X426244Y-321072D02*
G54D13*
D03*
X451644Y-321072D02*
G54D13*
D03*
X477044Y-321072D02*
G54D13*
D03*
X502444Y-321072D02*
G54D13*
D03*
X527844Y-321072D02*
G54D13*
D03*
X553244Y-321072D02*
G54D13*
D03*
X578644Y-321072D02*
G54D13*
D03*
X604044Y-321072D02*
G54D13*
D03*
X629444Y-321072D02*
G54D13*
D03*
X654844Y-321072D02*
G54D13*
D03*
X680244Y-321072D02*
G54D13*
D03*
X705644Y-321072D02*
G54D13*
D03*
X731044Y-321072D02*
G54D13*
D03*
X756444Y-321072D02*
G54D13*
D03*
X781845Y-321072D02*
G54D13*
D03*
X807245Y-321072D02*
G54D13*
D03*
X832645Y-321072D02*
G54D13*
D03*
X400844Y-346472D02*
G54D13*
D03*
X426244Y-346472D02*
G54D13*
D03*
X451644Y-346472D02*
G54D13*
D03*
X477044Y-346472D02*
G54D13*
D03*
X502444Y-346472D02*
G54D13*
D03*
X527844Y-346472D02*
G54D13*
D03*
X553244Y-346472D02*
G54D13*
D03*
X578644Y-346472D02*
G54D13*
D03*
X604044Y-346472D02*
G54D13*
D03*
X629444Y-346472D02*
G54D13*
D03*
X654844Y-346472D02*
G54D13*
D03*
X680244Y-346472D02*
G54D13*
D03*
X705644Y-346472D02*
G54D13*
D03*
X731044Y-346472D02*
G54D13*
D03*
X756444Y-346472D02*
G54D13*
D03*
X781845Y-346472D02*
G54D13*
D03*
X807245Y-346472D02*
G54D13*
D03*
X832645Y-346472D02*
G54D13*
D03*
X400844Y-371872D02*
G54D13*
D03*
X426244Y-371872D02*
G54D13*
D03*
X451644Y-371872D02*
G54D13*
D03*
X477044Y-371872D02*
G54D13*
D03*
X502444Y-371872D02*
G54D13*
D03*
X527844Y-371872D02*
G54D13*
D03*
X553244Y-371872D02*
G54D13*
D03*
X578644Y-371872D02*
G54D13*
D03*
X604044Y-371872D02*
G54D13*
D03*
X629444Y-371872D02*
G54D13*
D03*
X654844Y-371872D02*
G54D13*
D03*
X680244Y-371872D02*
G54D13*
D03*
X705644Y-371872D02*
G54D13*
D03*
X731044Y-371872D02*
G54D13*
D03*
X756444Y-371872D02*
G54D13*
D03*
X781845Y-371872D02*
G54D13*
D03*
X807245Y-371872D02*
G54D13*
D03*
G36*
X822645Y-361872D02*
X842645Y-361872D01*
X842645Y-381872D01*
X822645Y-381872D01*
X822645Y-361872D01*
G37*
X-558800Y-752079D02*
G54D14*
D03*
X-533400Y-752079D02*
G54D14*
D03*
X-508000Y-752079D02*
G54D14*
D03*
X-482600Y-752079D02*
G54D14*
D03*
X-457200Y-752079D02*
G54D14*
D03*
X-431800Y-752079D02*
G54D14*
D03*
X-406400Y-752079D02*
G54D14*
D03*
X-381000Y-752079D02*
G54D14*
D03*
X-355600Y-752079D02*
G54D14*
D03*
X-330200Y-752079D02*
G54D14*
D03*
X-304800Y-752079D02*
G54D14*
D03*
X-279400Y-752079D02*
G54D14*
D03*
X-254000Y-752079D02*
G54D14*
D03*
X-228600Y-752079D02*
G54D14*
D03*
X-203200Y-752079D02*
G54D14*
D03*
X-177800Y-752079D02*
G54D14*
D03*
X-152400Y-752079D02*
G54D14*
D03*
X-127000Y-752079D02*
G54D14*
D03*
X-101600Y-752079D02*
G54D14*
D03*
X-76200Y-752079D02*
G54D14*
D03*
X-50800Y-752079D02*
G54D14*
D03*
X-25400Y-752079D02*
G54D14*
D03*
X0Y-752079D02*
G54D14*
D03*
X25400Y-752079D02*
G54D14*
D03*
X50800Y-752079D02*
G54D14*
D03*
X-558800Y-790579D02*
G54D14*
D03*
X-533400Y-790579D02*
G54D14*
D03*
X-508000Y-790579D02*
G54D14*
D03*
X-482600Y-790579D02*
G54D14*
D03*
X-457200Y-790579D02*
G54D14*
D03*
X-431800Y-790579D02*
G54D14*
D03*
X-406400Y-790579D02*
G54D14*
D03*
X-381000Y-790579D02*
G54D14*
D03*
X-355600Y-790579D02*
G54D14*
D03*
X-330200Y-790579D02*
G54D14*
D03*
X-304800Y-790579D02*
G54D14*
D03*
X-279400Y-790579D02*
G54D14*
D03*
X-254000Y-790579D02*
G54D14*
D03*
X-228600Y-790579D02*
G54D14*
D03*
X-203200Y-790579D02*
G54D14*
D03*
X-177800Y-790579D02*
G54D14*
D03*
X-152400Y-790579D02*
G54D14*
D03*
X-127000Y-790579D02*
G54D14*
D03*
X-101600Y-790579D02*
G54D14*
D03*
X-76200Y-790579D02*
G54D14*
D03*
X-50800Y-790579D02*
G54D14*
D03*
X-25400Y-790579D02*
G54D14*
D03*
X0Y-790579D02*
G54D14*
D03*
X25400Y-790579D02*
G54D14*
D03*
X50800Y-790579D02*
G54D14*
D03*
G36*
X-554730Y-761436D02*
X-535730Y-761436D01*
X-535730Y-780436D01*
X-554730Y-780436D01*
X-554730Y-761436D01*
G37*
X-519830Y-770936D02*
G54D14*
D03*
X-494430Y-770936D02*
G54D14*
D03*
X-469030Y-770936D02*
G54D14*
D03*
X-443630Y-770936D02*
G54D14*
D03*
X-418230Y-770936D02*
G54D14*
D03*
X-392830Y-770936D02*
G54D14*
D03*
X-367430Y-770936D02*
G54D14*
D03*
X-342030Y-770936D02*
G54D14*
D03*
X-316630Y-770936D02*
G54D14*
D03*
X-291230Y-770936D02*
G54D14*
D03*
X-265830Y-770936D02*
G54D14*
D03*
X-240430Y-770936D02*
G54D14*
D03*
X-215030Y-770936D02*
G54D14*
D03*
X-189630Y-770936D02*
G54D14*
D03*
X-164230Y-770936D02*
G54D14*
D03*
X-138830Y-770936D02*
G54D14*
D03*
X-113430Y-770936D02*
G54D14*
D03*
X-88030Y-770936D02*
G54D14*
D03*
X-62631Y-770936D02*
G54D14*
D03*
X-37230Y-770936D02*
G54D14*
D03*
X-11830Y-770936D02*
G54D14*
D03*
X13570Y-770936D02*
G54D14*
D03*
X38970Y-770936D02*
G54D14*
D03*
X64370Y-770936D02*
G54D14*
D03*
X-545230Y-809436D02*
G54D14*
D03*
X-519830Y-809436D02*
G54D14*
D03*
X-494430Y-809436D02*
G54D14*
D03*
X-469030Y-809436D02*
G54D14*
D03*
X-443630Y-809436D02*
G54D14*
D03*
X-418230Y-809436D02*
G54D14*
D03*
X-392830Y-809436D02*
G54D14*
D03*
X-367430Y-809436D02*
G54D14*
D03*
X-342030Y-809436D02*
G54D14*
D03*
X-316630Y-809436D02*
G54D14*
D03*
X-291230Y-809436D02*
G54D14*
D03*
X-265830Y-809436D02*
G54D14*
D03*
X-240430Y-809436D02*
G54D14*
D03*
X-215030Y-809436D02*
G54D14*
D03*
X-189630Y-809436D02*
G54D14*
D03*
X-164230Y-809436D02*
G54D14*
D03*
X-138830Y-809436D02*
G54D14*
D03*
X-113430Y-809436D02*
G54D14*
D03*
X-88030Y-809436D02*
G54D14*
D03*
X-62631Y-809436D02*
G54D14*
D03*
X-37230Y-809436D02*
G54D14*
D03*
X-11830Y-809436D02*
G54D14*
D03*
X13570Y-809436D02*
G54D14*
D03*
X38970Y-809436D02*
G54D14*
D03*
X64370Y-809436D02*
G54D14*
D03*
X107950Y-752079D02*
G54D14*
D03*
X133350Y-752079D02*
G54D14*
D03*
X158750Y-752079D02*
G54D14*
D03*
X184150Y-752079D02*
G54D14*
D03*
X209550Y-752079D02*
G54D14*
D03*
X234950Y-752079D02*
G54D14*
D03*
X260350Y-752079D02*
G54D14*
D03*
X285750Y-752079D02*
G54D14*
D03*
X311150Y-752079D02*
G54D14*
D03*
X336550Y-752079D02*
G54D14*
D03*
X361950Y-752079D02*
G54D14*
D03*
X387350Y-752079D02*
G54D14*
D03*
X412750Y-752079D02*
G54D14*
D03*
X438150Y-752079D02*
G54D14*
D03*
X463550Y-752079D02*
G54D14*
D03*
X488950Y-752079D02*
G54D14*
D03*
X514350Y-752079D02*
G54D14*
D03*
X539750Y-752079D02*
G54D14*
D03*
X565150Y-752079D02*
G54D14*
D03*
X590550Y-752079D02*
G54D14*
D03*
X615950Y-752079D02*
G54D14*
D03*
X641350Y-752079D02*
G54D14*
D03*
X666750Y-752079D02*
G54D14*
D03*
X692150Y-752079D02*
G54D14*
D03*
X717550Y-752079D02*
G54D14*
D03*
X107950Y-790579D02*
G54D14*
D03*
X133350Y-790579D02*
G54D14*
D03*
X158750Y-790579D02*
G54D14*
D03*
X184150Y-790579D02*
G54D14*
D03*
X209550Y-790579D02*
G54D14*
D03*
X234950Y-790579D02*
G54D14*
D03*
X260350Y-790579D02*
G54D14*
D03*
X285750Y-790579D02*
G54D14*
D03*
X311150Y-790579D02*
G54D14*
D03*
X336550Y-790579D02*
G54D14*
D03*
X361950Y-790579D02*
G54D14*
D03*
X387350Y-790579D02*
G54D14*
D03*
X412750Y-790579D02*
G54D14*
D03*
X438150Y-790579D02*
G54D14*
D03*
X463550Y-790579D02*
G54D14*
D03*
X488950Y-790579D02*
G54D14*
D03*
X514350Y-790579D02*
G54D14*
D03*
X539750Y-790579D02*
G54D14*
D03*
X565150Y-790579D02*
G54D14*
D03*
X590550Y-790579D02*
G54D14*
D03*
X615950Y-790579D02*
G54D14*
D03*
X641350Y-790579D02*
G54D14*
D03*
X666750Y-790579D02*
G54D14*
D03*
X692150Y-790579D02*
G54D14*
D03*
X717550Y-790579D02*
G54D14*
D03*
X121520Y-770936D02*
G54D14*
D03*
X146920Y-770936D02*
G54D14*
D03*
X172320Y-770936D02*
G54D14*
D03*
X197720Y-770936D02*
G54D14*
D03*
X223120Y-770936D02*
G54D14*
D03*
X248520Y-770936D02*
G54D14*
D03*
X273920Y-770936D02*
G54D14*
D03*
X299320Y-770936D02*
G54D14*
D03*
X324720Y-770936D02*
G54D14*
D03*
X350120Y-770936D02*
G54D14*
D03*
X375520Y-770936D02*
G54D14*
D03*
X400920Y-770936D02*
G54D14*
D03*
X426320Y-770936D02*
G54D14*
D03*
X451720Y-770936D02*
G54D14*
D03*
X477120Y-770936D02*
G54D14*
D03*
X502520Y-770936D02*
G54D14*
D03*
X527919Y-770936D02*
G54D14*
D03*
X553319Y-770936D02*
G54D14*
D03*
X578719Y-770936D02*
G54D14*
D03*
X604119Y-770936D02*
G54D14*
D03*
X629519Y-770936D02*
G54D14*
D03*
X654919Y-770936D02*
G54D14*
D03*
X680319Y-770936D02*
G54D14*
D03*
X705719Y-770936D02*
G54D14*
D03*
X731120Y-770936D02*
G54D14*
D03*
X121520Y-809436D02*
G54D14*
D03*
X146920Y-809436D02*
G54D14*
D03*
X172320Y-809436D02*
G54D14*
D03*
X197720Y-809436D02*
G54D14*
D03*
X223120Y-809436D02*
G54D14*
D03*
X248520Y-809436D02*
G54D14*
D03*
X273920Y-809436D02*
G54D14*
D03*
X299320Y-809436D02*
G54D14*
D03*
X324720Y-809436D02*
G54D14*
D03*
X350120Y-809436D02*
G54D14*
D03*
X375520Y-809436D02*
G54D14*
D03*
X400920Y-809436D02*
G54D14*
D03*
X426320Y-809436D02*
G54D14*
D03*
X451720Y-809436D02*
G54D14*
D03*
X477120Y-809436D02*
G54D14*
D03*
X502520Y-809436D02*
G54D14*
D03*
X527919Y-809436D02*
G54D14*
D03*
X553319Y-809436D02*
G54D14*
D03*
X578719Y-809436D02*
G54D14*
D03*
X604119Y-809436D02*
G54D14*
D03*
X629519Y-809436D02*
G54D14*
D03*
X654919Y-809436D02*
G54D14*
D03*
X680319Y-809436D02*
G54D14*
D03*
X705719Y-809436D02*
G54D14*
D03*
X731120Y-809436D02*
G54D14*
D03*
X-32147Y63500D02*
G54D15*
D03*
X-79772Y-94854D02*
G54D15*
D03*
X-792559Y-117476D02*
G54D15*
D03*
X354806Y-411162D02*
G54D15*
D03*
X-844550Y-493316D02*
G54D15*
D03*
X371078Y49609D02*
G54D15*
D03*
X-99219Y59531D02*
G54D15*
D03*
X-256778Y37306D02*
G54D15*
D03*
X-1004094Y-17859D02*
G54D15*
D03*
X8731Y68262D02*
G54D15*
D03*
X-33734Y-89694D02*
G54D15*
D03*
X-722709Y-124619D02*
G54D15*
D03*
X155972Y53578D02*
G54D15*
D03*
X-49212Y-350441D02*
G54D15*
D03*
X-138906Y-353616D02*
G54D15*
D03*
X-23416Y73422D02*
G54D15*
D03*
X-50800Y-14684D02*
G54D15*
D03*
X-967581Y-16669D02*
G54D15*
D03*
X-9128Y57547D02*
G54D15*
D03*
X-82947Y73422D02*
G54D15*
D03*
X-245269Y61119D02*
G54D15*
D03*
X-955278Y-30956D02*
G54D15*
D03*
X689372Y79375D02*
G54D15*
D03*
X-930275Y67072D02*
G54D15*
D03*
X-912812Y65484D02*
G54D15*
D03*
X-1071166Y-61912D02*
G54D15*
D03*
X339725Y43656D02*
G54D15*
D03*
X-808434Y54769D02*
G54D15*
D03*
X786209Y85725D02*
G54D15*
D03*
X510381Y-170656D02*
G54D15*
D03*
X475059Y-169862D02*
G54D15*
D03*
X313928Y-226616D02*
G54D15*
D03*
X279400Y-226616D02*
G54D15*
D03*
X252809Y-282575D02*
G54D15*
D03*
X-116681Y-319088D02*
G54D15*
D03*
X-748903Y-295275D02*
G54D15*
D03*
X549275Y-23812D02*
G54D15*
D03*
X489744Y-15875D02*
G54D15*
D03*
X-53975Y5159D02*
G54D15*
D03*
X-99616Y-1588D02*
G54D15*
D03*
X-210741Y-83344D02*
G54D15*
D03*
X-1015206Y-29369D02*
G54D15*
D03*
X756841Y75803D02*
G54D15*
D03*
X-45244Y-71438D02*
G54D15*
D03*
X-329009Y-55166D02*
G54D15*
D03*
X-574278Y-41672D02*
G54D15*
D03*
X-1071959Y-94059D02*
G54D15*
D03*
X-1071959Y-122238D02*
G54D15*
D03*
X-1042988Y-158750D02*
G54D15*
D03*
X-870347Y-180975D02*
G54D15*
D03*
X-574278Y-146050D02*
G54D15*
D03*
X-860425Y-345281D02*
G54D15*
D03*
X-830262Y-349250D02*
G54D15*
D03*
X352822Y48419D02*
G54D15*
D03*
X-81756Y59928D02*
G54D15*
D03*
X910431Y-51197D02*
G54D15*
D03*
X936626Y-51196D02*
G54D15*
D03*
X636984Y-284162D02*
G54D15*
D03*
X310356Y-280988D02*
G54D15*
D03*
X469900Y-12303D02*
G54D15*
D03*
X567531Y-30956D02*
G54D15*
D03*
X402828Y-402034D02*
G54D15*
D03*
X-785812Y-289322D02*
G54D15*
D03*
X-10716Y-74612D02*
G54D15*
D03*
X-167084Y-55166D02*
G54D15*
D03*
X-321866Y-28575D02*
G54D15*
D03*
X-317500Y59134D02*
G54D15*
D03*
X-530225Y56753D02*
G54D15*
D03*
X-1030684Y-80169D02*
G54D15*
D03*
X-613966Y28178D02*
G54D15*
D03*
X-624681Y-412353D02*
G54D15*
D03*
X-566738Y-422672D02*
G54D15*
D03*
X-150812Y65484D02*
G54D15*
D03*
X-356791Y65088D02*
G54D15*
D03*
X-1002903Y31353D02*
G54D15*
D03*
X-739378Y66278D02*
G54D15*
D03*
X-550069Y51197D02*
G54D15*
D03*
X-764778Y-162719D02*
G54D15*
D03*
X-723900Y-165100D02*
G54D15*
D03*
X-721122Y-544909D02*
G54D15*
D03*
X-721122Y-398859D02*
G54D15*
D03*
X-686991Y-406797D02*
G54D15*
D03*
X-982662Y-578247D02*
G54D15*
D03*
X935038Y-268288D02*
G54D15*
D03*
X886222Y-829866D02*
G54D15*
D03*
X853678Y-43656D02*
G54D15*
D03*
X855662Y-65484D02*
G54D15*
D03*
X744141Y-247253D02*
G54D15*
D03*
X290116Y-257969D02*
G54D15*
D03*
X287734Y-283766D02*
G54D15*
D03*
X-157559Y-313928D02*
G54D15*
D03*
X370284Y-92869D02*
G54D15*
D03*
X323056Y-93266D02*
G54D15*
D03*
X315119Y-61913D02*
G54D15*
D03*
X34925Y-66676D02*
G54D15*
D03*
X-449262Y-20241D02*
G54D15*
D03*
X-126206Y-53976D02*
G54D15*
D03*
X-554434Y-188119D02*
G54D15*
D03*
X-1029097Y-165100D02*
G54D15*
D03*
X352822Y-18257D02*
G54D15*
D03*
X-418703Y-4366D02*
G54D15*
D03*
X-163116Y-36910D02*
G54D15*
D03*
X-542131Y-201216D02*
G54D15*
D03*
X-1019969Y-200819D02*
G54D15*
D03*
X244475Y-89694D02*
G54D15*
D03*
X-1064419Y-160735D02*
G54D15*
D03*
X-624681Y-147241D02*
G54D15*
D03*
X311547Y-88900D02*
G54D15*
D03*
X573088Y-69850D02*
G54D15*
D03*
X551656Y-273447D02*
G54D15*
D03*
X218678Y-340122D02*
G54D15*
D03*
X260350Y-227013D02*
G54D15*
D03*
X-169069Y-228203D02*
G54D15*
D03*
X-238919Y-214709D02*
G54D15*
D03*
X157559Y-227012D02*
G54D15*
D03*
X206772Y-225028D02*
G54D15*
D03*
X203200Y-694531D02*
G54D15*
D03*
X205184Y-526256D02*
G54D15*
D03*
X427038Y-500856D02*
G54D15*
D03*
X429419Y-717153D02*
G54D15*
D03*
X823119Y-784622D02*
G54D15*
D03*
X815181Y-723503D02*
G54D15*
D03*
X641350Y-669131D02*
G54D15*
D03*
X810022Y-669131D02*
G54D15*
D03*
X-668734Y-556816D02*
G54D15*
D03*
X-983853Y-616744D02*
G54D15*
D03*
X-297259Y-596503D02*
G54D15*
D03*
X-279003Y-302816D02*
G54D15*
D03*
X-223044Y-294084D02*
G54D15*
D03*
X290512Y-95647D02*
G54D15*
D03*
X-1023144Y-265112D02*
G54D15*
D03*
X-605631Y-241300D02*
G54D15*
D03*
X-260350Y-152797D02*
G54D15*
D03*
X-511969Y-452834D02*
G54D15*
D03*
X-508794Y-414338D02*
G54D15*
D03*
X-447675Y-416322D02*
G54D15*
D03*
X-445294Y-211138D02*
G54D15*
D03*
X-456406Y-176609D02*
G54D15*
D03*
X-456406Y-86519D02*
G54D15*
D03*
X-1020366Y-222250D02*
G54D15*
D03*
X-210219Y-163388D02*
G54D15*
D03*
X-204788Y-392112D02*
G54D15*
D03*
X-439341Y-361156D02*
G54D15*
D03*
X-293688Y-406003D02*
G54D15*
D03*
X-433388Y-123428D02*
G54D15*
D03*
X-1052116Y-114697D02*
G54D15*
D03*
X595709Y-150416D02*
G54D15*
D03*
X599281Y-121047D02*
G54D15*
D03*
X519112Y-121841D02*
G54D15*
D03*
X-1010841Y-268288D02*
G54D15*
D03*
X-633809Y-290512D02*
G54D15*
D03*
X362347Y-203994D02*
G54D15*
D03*
X-59134Y-213122D02*
G54D15*
D03*
X-78581Y-412750D02*
G54D15*
D03*
X-689920Y-479210D02*
G54D15*
D03*
X466725Y-192484D02*
G54D15*
D03*
X576262Y-192881D02*
G54D15*
D03*
X437356Y-393303D02*
G54D15*
D03*
X-581819Y-422275D02*
G54D15*
D03*
X-283766Y-442912D02*
G54D15*
D03*
X373459Y-184150D02*
G54D15*
D03*
X-230981Y-180975D02*
G54D15*
D03*
X-228997Y-234950D02*
G54D15*
D03*
X-478631Y-330994D02*
G54D15*
D03*
X-438944Y-698897D02*
G54D15*
D03*
X-283369Y-699294D02*
G54D15*
D03*
X466328Y-235347D02*
G54D15*
D03*
X-216297Y-268684D02*
G54D15*
D03*
X-119459Y-234553D02*
G54D15*
D03*
X-120650Y-249634D02*
G54D15*
D03*
X306388Y-794D02*
G54D15*
D03*
X-17066Y-700088D02*
G54D15*
D03*
X49609Y-11906D02*
G54D15*
D03*
X-242491Y-13097D02*
G54D15*
D03*
X-280194Y-711994D02*
G54D15*
D03*
X-346075Y-715566D02*
G54D15*
D03*
X352028Y-320675D02*
G54D15*
D03*
X164306Y-330994D02*
G54D15*
D03*
X155972Y-406797D02*
G54D15*
D03*
X509588Y-217091D02*
G54D15*
D03*
X482600Y-218678D02*
G54D15*
D03*
X369491Y-155575D02*
G54D15*
D03*
X324247Y-155575D02*
G54D15*
D03*
X240903Y-186134D02*
G54D15*
D03*
X130572Y-187722D02*
G54D15*
D03*
X123825Y-395684D02*
G54D15*
D03*
X-206772Y-300831D02*
G54D15*
D03*
X199628Y-295672D02*
G54D15*
D03*
X579225Y-154092D02*
G54D15*
D03*
X51594Y-147241D02*
G54D15*
D03*
X108347Y-355203D02*
G54D15*
D03*
X202803Y51197D02*
G54D15*
D03*
X-1032669Y-213518D02*
G54D15*
D03*
X258762Y-94853D02*
G54D15*
D03*
X-1000919Y-165100D02*
G54D15*
D03*
X-65484Y-654447D02*
G54D15*
D03*
X-352822Y-640159D02*
G54D15*
D03*
X-34925Y-697309D02*
G54D15*
D03*
X746522Y-36116D02*
G54D15*
D03*
X488156Y-46831D02*
G54D15*
D03*
X367109Y-11112D02*
G54D15*
D03*
X-188516Y-65484D02*
G54D15*
D03*
X523875Y-100012D02*
G54D15*
D03*
X375444Y-64294D02*
G54D15*
D03*
X308769Y-48816D02*
G54D15*
D03*
X11906Y-715962D02*
G54D15*
D03*
X533003Y-120650D02*
G54D15*
D03*
X376238Y-51594D02*
G54D15*
D03*
X-106759Y-53578D02*
G54D15*
D03*
X-25797Y-123428D02*
G54D15*
D03*
X-47625Y-622697D02*
G54D15*
D03*
X-80962Y-628253D02*
G54D15*
D03*
X722312Y-26988D02*
G54D15*
D03*
X-55166Y-714375D02*
G54D15*
D03*
X249238Y-131366D02*
G54D15*
D03*
X-86122Y-660797D02*
G54D15*
D03*
X-957262Y-619125D02*
G54D15*
D03*
X-8731Y-716359D02*
G54D15*
D03*
X709612Y-44847D02*
G54D15*
D03*
X71834Y-350044D02*
G54D15*
D03*
X30162Y-350044D02*
G54D15*
D03*
X67866Y-638175D02*
G54D15*
D03*
X54769Y-737394D02*
G54D15*
D03*
X-978694Y-599281D02*
G54D15*
D03*
X756444Y-234156D02*
G54D15*
D03*
X484981Y-234156D02*
G54D15*
D03*
X16272Y-674291D02*
G54D15*
D03*
X-971550Y-620316D02*
G54D15*
D03*
X858838Y-78184D02*
G54D15*
D03*
X-1038622Y-483791D02*
G54D15*
D03*
X194469Y-181769D02*
G54D15*
D03*
X-116681Y-722709D02*
G54D15*
D03*
X-126603Y-664369D02*
G54D15*
D03*
X-388541Y-651272D02*
G54D15*
D03*
X-384175Y-678259D02*
G54D15*
D03*
X-651272Y-646906D02*
G54D15*
D03*
X-642541Y-505619D02*
G54D15*
D03*
X-1045766Y-630634D02*
G54D15*
D03*
X-263128Y-286544D02*
G54D15*
D03*
X-247650Y-706438D02*
G54D15*
D03*
X-1035050Y-555228D02*
G54D15*
D03*
X-75803Y-368697D02*
G54D15*
D03*
X-73025Y-548878D02*
G54D15*
D03*
X-790178Y-556816D02*
G54D15*
D03*
X-805276Y-557386D02*
G54D15*
D03*
X-1027906Y-594122D02*
G54D15*
D03*
X719931Y-167878D02*
G54D15*
D03*
X-684212Y-746919D02*
G54D15*
D03*
X-1019969Y-619919D02*
G54D15*
D03*
X675084Y-116681D02*
G54D15*
D03*
X490056Y-105654D02*
G54D15*
D03*
X350044Y-183753D02*
G54D15*
D03*
X325041Y-184547D02*
G54D15*
D03*
X190103Y-399653D02*
G54D15*
D03*
X-180578Y-390525D02*
G54D15*
D03*
X-126603Y-729853D02*
G54D15*
D03*
X-1033462Y-499269D02*
G54D15*
D03*
X525066Y-169466D02*
G54D15*
D03*
X177976Y58349D02*
G54D15*
D03*
X43259Y58341D02*
G54D15*
D03*
X-18653Y-89694D02*
G54D15*
D03*
X-241697Y-101203D02*
G54D15*
D03*
X-254397Y-305197D02*
G54D15*
D03*
X-386159Y-305197D02*
G54D15*
D03*
X-373062Y-484981D02*
G54D15*
D03*
X-1074341Y-619125D02*
G54D15*
D03*
X121047Y-330597D02*
G54D15*
D03*
X-129778Y-327819D02*
G54D15*
D03*
X81359Y-330200D02*
G54D15*
D03*
X600075Y-301625D02*
G54D15*
D03*
X623888Y-488950D02*
G54D15*
D03*
X605234Y-413941D02*
G54D15*
D03*
X558800Y-413941D02*
G54D15*
D03*
X484584Y-409972D02*
G54D15*
D03*
X154384Y-498872D02*
G54D15*
D03*
X159544Y-570309D02*
G54D15*
D03*
X625475Y-509588D02*
G54D15*
D03*
X737394Y-498078D02*
G54D15*
D03*
X348456Y-510778D02*
G54D15*
D03*
X585788Y-265509D02*
G54D15*
D03*
X892969Y-598884D02*
G54D15*
D03*
X716359Y-582216D02*
G54D15*
D03*
X761206Y-749697D02*
G54D15*
D03*
X804466Y-778669D02*
G54D15*
D03*
X929878Y-636191D02*
G54D15*
D03*
X337741Y-631031D02*
G54D15*
D03*
X420291Y-643334D02*
G54D15*
D03*
X550069Y-217884D02*
G54D15*
D03*
X615950Y-192881D02*
G54D15*
D03*
X867966Y-321072D02*
G54D15*
D03*
X44847Y-323056D02*
G54D15*
D03*
X34925Y-533003D02*
G54D15*
D03*
X-85328Y-533400D02*
G54D15*
D03*
X-79772Y-572294D02*
G54D15*
D03*
X-1014725Y-568638D02*
G54D15*
D03*
X-398066Y-554831D02*
G54D15*
D03*
X-394891Y-567928D02*
G54D15*
D03*
X97234Y-340519D02*
G54D15*
D03*
X430609Y-459184D02*
G54D15*
D03*
X611188Y-508000D02*
G54D15*
D03*
X-206375Y-504825D02*
G54D15*
D03*
X136525Y-473472D02*
G54D15*
D03*
X576659Y-498872D02*
G54D15*
D03*
X554434Y-578644D02*
G54D15*
D03*
X106362Y-617538D02*
G54D15*
D03*
X98425Y-565944D02*
G54D15*
D03*
X526256Y-641350D02*
G54D15*
D03*
X533003Y-582216D02*
G54D15*
D03*
X177006Y-577850D02*
G54D15*
D03*
X876300Y-359569D02*
G54D15*
D03*
X771922Y-388541D02*
G54D15*
D03*
X798512Y-479028D02*
G54D15*
D03*
X662384Y-488950D02*
G54D15*
D03*
X685800Y-570309D02*
G54D15*
D03*
X527844Y-679053D02*
G54D15*
D03*
X531416Y-719138D02*
G54D15*
D03*
X524272Y-738584D02*
G54D15*
D03*
X515938Y-838994D02*
G54D15*
D03*
X112316Y-732234D02*
G54D15*
D03*
X850106Y-523478D02*
G54D15*
D03*
X860028Y-623888D02*
G54D15*
D03*
X848519Y-548084D02*
G54D15*
D03*
X352822Y-550069D02*
G54D15*
D03*
X723503Y-508794D02*
G54D15*
D03*
X747316Y-808831D02*
G54D15*
D03*
X-1026319Y-543719D02*
G54D15*
D03*
X-325438Y-540147D02*
G54D15*
D03*
X-319881Y-671909D02*
G54D15*
D03*
X-74612Y-673894D02*
G54D15*
D03*
X73819Y-377428D02*
G54D15*
D03*
X-55562Y-376238D02*
G54D15*
D03*
X-55166Y-513556D02*
G54D15*
D03*
X-154384Y-512366D02*
G54D15*
D03*
X142478Y-390128D02*
G54D15*
D03*
X140494Y-581025D02*
G54D15*
D03*
X609600Y-579438D02*
G54D15*
D03*
X594916Y-219472D02*
G54D15*
D03*
X467519Y-217884D02*
G54D15*
D03*
X351631Y-481409D02*
G54D15*
D03*
X250825Y-490934D02*
G54D15*
D03*
X250428Y-592931D02*
G54D15*
D03*
X132159Y-622300D02*
G54D15*
D03*
X588169Y-721122D02*
G54D15*
D03*
X119062Y-621506D02*
G54D15*
D03*
X500062Y-412750D02*
G54D15*
D03*
X477441Y-550466D02*
G54D15*
D03*
X489347Y-523081D02*
G54D15*
D03*
X-340916Y-547291D02*
G54D15*
D03*
X88106Y-502047D02*
G54D15*
D03*
X547291Y-550466D02*
G54D15*
D03*
X417116Y-716756D02*
G54D15*
D03*
X163512Y-680641D02*
G54D15*
D03*
X447928Y-679679D02*
G54D15*
D03*
X541734Y-406400D02*
G54D15*
D03*
X148828Y-676672D02*
G54D15*
D03*
X397272Y-679053D02*
G54D15*
D03*
X396182Y-717401D02*
G54D15*
D03*
X134938Y-676672D02*
G54D15*
D03*
X829866Y-407591D02*
G54D15*
D03*
X436562Y-637381D02*
G54D15*
D03*
X609997Y-226219D02*
G54D15*
D03*
X706834Y-226616D02*
G54D15*
D03*
X373062Y-726678D02*
G54D15*
D03*
X122634Y-717550D02*
G54D15*
D03*
X515541Y-480616D02*
G54D15*
D03*
X447278Y-717153D02*
G54D15*
D03*
X364331Y-679847D02*
G54D15*
D03*
X201612Y-676275D02*
G54D15*
D03*
X564356Y-393303D02*
G54D15*
D03*
X424259Y-675084D02*
G54D15*
D03*
X97234Y-666750D02*
G54D15*
D03*
X355997Y-664766D02*
G54D15*
D03*
X860425Y-383381D02*
G54D15*
D03*
X335359Y-674688D02*
G54D15*
D03*
X184944Y-644525D02*
G54D15*
D03*
X802878Y-509588D02*
G54D15*
D03*
X835819Y-729456D02*
G54D15*
D03*
X790575Y-796528D02*
G54D15*
D03*
X405606Y-490538D02*
G54D15*
D03*
X736600Y-461962D02*
G54D15*
D03*
X789781Y-470297D02*
G54D15*
D03*
X791369Y-560784D02*
G54D15*
D03*
X400447Y-557609D02*
G54D15*
D03*
X855662Y-575072D02*
G54D15*
D03*
X791369Y-581819D02*
G54D15*
D03*
X781447Y-552847D02*
G54D15*
D03*
X854869Y-561975D02*
G54D15*
D03*
X388144Y-550466D02*
G54D15*
D03*
X770731Y-510778D02*
G54D15*
D03*
X758031Y-577056D02*
G54D15*
D03*
X375047Y-550466D02*
G54D15*
D03*
X856059Y-497284D02*
G54D15*
D03*
X362347Y-511969D02*
G54D15*
D03*
X754062Y-505619D02*
G54D15*
D03*
X-1021556Y-507603D02*
G54D15*
D03*
X75406Y-13097D02*
G54D15*
D03*
X-477044Y11112D02*
G54D15*
D03*
X-369094Y11509D02*
G54D15*
D03*
X-113109Y10716D02*
G54D15*
D03*
X-569516Y-30162D02*
G54D15*
D03*
X-631428Y-46038D02*
G54D15*
D03*
X-696516Y-46434D02*
G54D15*
D03*
X-732631Y-105569D02*
G54D15*
D03*
X-911225Y-108347D02*
G54D15*
D03*
X-988219Y-250825D02*
G54D15*
D03*
X217884Y-468312D02*
G54D15*
D03*
X202803Y-470694D02*
G54D15*
D03*
X327819Y-122634D02*
G54D15*
D03*
X261541Y-117475D02*
G54D15*
D03*
X48022Y-66675D02*
G54D15*
D03*
X-104775Y-37703D02*
G54D15*
D03*
X-207566Y44450D02*
G54D15*
D03*
X-1018778Y18653D02*
G54D15*
D03*
X-566738Y46831D02*
G54D15*
D03*
X-1067991Y-437753D02*
G54D15*
D03*
X308372Y-189706D02*
G54D15*
D03*
X-54372Y-186928D02*
G54D15*
D03*
X110728Y-829072D02*
G54D15*
D03*
X241300Y-225425D02*
G54D15*
D03*
X-498872Y-269875D02*
G54D15*
D03*
X217091Y-187325D02*
G54D15*
D03*
X51594Y-270669D02*
G54D15*
D03*
X-271859Y-238919D02*
G54D15*
D03*
X66675Y-186531D02*
G54D15*
D03*
X-100409Y-145653D02*
G54D15*
D03*
X118666Y-189309D02*
G54D15*
D03*
X169466Y-480616D02*
G54D15*
D03*
X411559Y-475456D02*
G54D15*
D03*
X222250Y-491331D02*
G54D15*
D03*
X71438Y-735806D02*
G54D15*
D03*
X69850Y-791766D02*
G54D15*
D03*
X384572Y-294481D02*
G54D15*
D03*
X156766Y-286147D02*
G54D15*
D03*
X153988Y-349647D02*
G54D15*
D03*
X296069Y-348456D02*
G54D15*
D03*
X333772Y-724694D02*
G54D15*
D03*
X305594Y-627856D02*
G54D15*
D03*
X298450Y-380603D02*
G54D15*
D03*
X144066Y-622697D02*
G54D15*
D03*
X401241Y-388144D02*
G54D15*
D03*
X128191Y-340519D02*
G54D15*
D03*
X368697Y-331788D02*
G54D15*
D03*
X270669Y-334962D02*
G54D15*
D03*
X309959Y-838597D02*
G54D15*
D03*
X409178Y-841772D02*
G54D15*
D03*
X118754Y-360079D02*
G54D15*
D03*
X369491Y-361156D02*
G54D15*
D03*
X355203Y-625872D02*
G54D15*
D03*
X97234Y-470694D02*
G54D15*
D03*
X319484Y-494903D02*
G54D15*
D03*
X273844Y-506809D02*
G54D15*
D03*
X273237Y-720476D02*
G54D15*
D03*
X91281Y-412750D02*
G54D15*
D03*
X312738Y-405209D02*
G54D15*
D03*
X337741Y-459978D02*
G54D15*
D03*
X391319Y-460772D02*
G54D15*
D03*
X416322Y-550069D02*
G54D15*
D03*
X492919Y-559991D02*
G54D15*
D03*
X73819Y-413544D02*
G54D15*
D03*
X325438Y-406797D02*
G54D15*
D03*
X240506Y-434578D02*
G54D15*
D03*
X310356Y-736997D02*
G54D15*
D03*
X54372Y-558800D02*
G54D15*
D03*
X698103Y-577453D02*
G54D15*
D03*
X517525Y-575866D02*
G54D15*
D03*
X497284Y-581025D02*
G54D15*
D03*
X333375Y-558403D02*
G54D15*
D03*
X308372Y-564753D02*
G54D15*
D03*
X-656828Y-558403D02*
G54D15*
D03*
X55562Y-636191D02*
G54D15*
D03*
X-352822Y-619125D02*
G54D15*
D03*
X-319484Y-406400D02*
G54D15*
D03*
X-388541Y-403622D02*
G54D15*
D03*
X68262Y-617934D02*
G54D15*
D03*
X199231Y-636191D02*
G54D15*
D03*
X-81756Y-613569D02*
G54D15*
D03*
X39688Y-679053D02*
G54D15*
D03*
X-352425Y-683022D02*
G54D15*
D03*
X71041Y-661194D02*
G54D15*
D03*
X-54676Y-654045D02*
G54D15*
D03*
X232966Y-633016D02*
G54D15*
D03*
X161528Y-619125D02*
G54D15*
D03*
X278606Y-367903D02*
G54D15*
D03*
X-344884Y-345281D02*
G54D15*
D03*
X314325Y-510778D02*
G54D15*
D03*
X-107156Y-500459D02*
G54D15*
D03*
X438944Y-488950D02*
G54D15*
D03*
X298450Y-673894D02*
G54D15*
D03*
X-353219Y-660797D02*
G54D15*
D03*
X315119Y-549275D02*
G54D15*
D03*
X325438Y-646906D02*
G54D15*
D03*
X437728Y-650100D02*
G54D15*
D03*
X-60325Y-549275D02*
G54D15*
D03*
X325834Y-671116D02*
G54D15*
D03*
X69701Y-675270D02*
G54D15*
D03*
X406436Y-648739D02*
G54D15*
D03*
X343297Y-652462D02*
G54D15*
D03*
X402828Y-618331D02*
G54D15*
D03*
X365522Y-635397D02*
G54D15*
D03*
X358137Y-732787D02*
G54D15*
D03*
X416640Y-733773D02*
G54D15*
D03*
X325834Y-632222D02*
G54D15*
D03*
X326628Y-619125D02*
G54D15*
D03*
X520700Y-459978D02*
G54D15*
D03*
X420688Y-452834D02*
G54D15*
D03*
X423069Y-405606D02*
G54D15*
D03*
X-309166Y-406797D02*
G54D15*
D03*
X547688Y-467916D02*
G54D15*
D03*
X646112Y-454819D02*
G54D15*
D03*
X622300Y-136922D02*
G54D15*
D03*
X470297Y-125016D02*
G54D15*
D03*
X345281Y-203597D02*
G54D15*
D03*
X-104378Y-199231D02*
G54D15*
D03*
X615156Y-402034D02*
G54D15*
D03*
X800100Y-413147D02*
G54D15*
D03*
X850503Y-349250D02*
G54D15*
D03*
X617538Y-452041D02*
G54D15*
D03*
X798909Y-451644D02*
G54D15*
D03*
X911622Y-769144D02*
G54D15*
D03*
X621903Y-253603D02*
G54D15*
D03*
X705247Y-288131D02*
G54D15*
D03*
X927497Y-239316D02*
G54D15*
D03*
X920750Y-813594D02*
G54D15*
D03*
X586978Y-405606D02*
G54D15*
D03*
X828675Y-498078D02*
G54D15*
D03*
X781844Y-460772D02*
G54D15*
D03*
X820738Y-652066D02*
G54D15*
D03*
X579041Y-463550D02*
G54D15*
D03*
X759619Y-467519D02*
G54D15*
D03*
X612775Y-473075D02*
G54D15*
D03*
X630634Y-403622D02*
G54D15*
D03*
X890984Y-431800D02*
G54D15*
D03*
X872728Y-340916D02*
G54D15*
D03*
X566738Y-476250D02*
G54D15*
D03*
X682625Y-465138D02*
G54D15*
D03*
X694134Y-652859D02*
G54D15*
D03*
X720725Y-663178D02*
G54D15*
D03*
X710803Y-736203D02*
G54D15*
D03*
X842962Y-785019D02*
G54D15*
D03*
X841772Y-834231D02*
G54D15*
D03*
X501253Y-719534D02*
G54D15*
D03*
X553641Y-456406D02*
G54D15*
D03*
X729456Y-450453D02*
G54D15*
D03*
X540544Y-477838D02*
G54D15*
D03*
X708819Y-450056D02*
G54D15*
D03*
X516334Y-718741D02*
G54D15*
D03*
X269081Y-845344D02*
G54D15*
D03*
X96044Y-773906D02*
G54D15*
D03*
X-226616Y-712391D02*
G54D15*
D03*
X619522Y-661194D02*
G54D15*
D03*
X799306Y-630634D02*
G54D15*
D03*
X796925Y-750888D02*
G54D15*
D03*
X613569Y-626269D02*
G54D15*
D03*
X791766Y-619125D02*
G54D15*
D03*
X688578Y-633412D02*
G54D15*
D03*
X598488Y-573881D02*
G54D15*
D03*
X660797Y-572294D02*
G54D15*
D03*
X661591Y-590947D02*
G54D15*
D03*
X807244Y-575072D02*
G54D15*
D03*
X570706Y-554831D02*
G54D15*
D03*
X674688Y-587772D02*
G54D15*
D03*
X671116Y-612775D02*
G54D15*
D03*
X671512Y-719534D02*
G54D15*
D03*
X750491Y-621506D02*
G54D15*
D03*
X773509Y-651669D02*
G54D15*
D03*
X742950Y-653256D02*
G54D15*
D03*
X552053Y-653256D02*
G54D15*
D03*
X702866Y-679053D02*
G54D15*
D03*
X676672Y-687784D02*
G54D15*
D03*
X676672Y-707231D02*
G54D15*
D03*
X534988Y-655638D02*
G54D15*
D03*
X552847Y-722312D02*
G54D15*
D03*
X713978Y-628253D02*
G54D15*
D03*
X655241Y-250031D02*
G54D15*
D03*
X-329406Y-286544D02*
G54D15*
D03*
X703659Y-715962D02*
G54D15*
D03*
X823912Y-669131D02*
G54D15*
D03*
X-83741Y-588169D02*
G54D15*
D03*
X-165497Y-180975D02*
G54D15*
D03*
X-364331Y-195262D02*
G54D15*
D03*
X-484981Y-5953D02*
G54D15*
D03*
X-629841Y-12700D02*
G54D15*
D03*
X-643731Y-172244D02*
G54D15*
D03*
X-897731Y-173434D02*
G54D15*
D03*
X-179388Y-140494D02*
G54D15*
D03*
X-325438Y-145256D02*
G54D15*
D03*
X-336947Y-101600D02*
G54D15*
D03*
X-897731Y-111125D02*
G54D15*
D03*
X-169069Y-107553D02*
G54D15*
D03*
X-284162Y-81756D02*
G54D15*
D03*
X-421878Y-82153D02*
G54D15*
D03*
X-400050Y-340519D02*
G54D15*
D03*
X-1017984Y-325438D02*
G54D15*
D03*
X-177006Y-194866D02*
G54D15*
D03*
X-279003Y-194866D02*
G54D15*
D03*
X-370284Y-232172D02*
G54D15*
D03*
X-1038622Y-325834D02*
G54D15*
D03*
X-177800Y-207566D02*
G54D15*
D03*
X-461962Y-243284D02*
G54D15*
D03*
X-461169Y-221456D02*
G54D15*
D03*
X-479028Y-184944D02*
G54D15*
D03*
X-157956Y-93266D02*
G54D15*
D03*
X-197247Y-93266D02*
G54D15*
D03*
X-217091Y-5556D02*
G54D15*
D03*
X-249238Y-794D02*
G54D15*
D03*
X-329406Y-397D02*
G54D15*
D03*
X-329406Y-42466D02*
G54D15*
D03*
X-477441Y-35719D02*
G54D15*
D03*
X-211534Y-438547D02*
G54D15*
D03*
X-695722Y-456803D02*
G54D15*
D03*
X-623094Y-302022D02*
G54D15*
D03*
X-400050Y-183753D02*
G54D15*
D03*
X-673894Y-400050D02*
G54D15*
D03*
X-720464Y-421585D02*
G54D15*
D03*
X-1017191Y-412353D02*
G54D15*
D03*
X-189309Y-318294D02*
G54D15*
D03*
X-417512Y-328612D02*
G54D15*
D03*
X-410369Y-367903D02*
G54D15*
D03*
X-940594Y-372666D02*
G54D15*
D03*
X-163116Y-258762D02*
G54D15*
D03*
X-435769Y-282178D02*
G54D15*
D03*
X-425450Y-442516D02*
G54D15*
D03*
X-983059Y-433388D02*
G54D15*
D03*
X-81756Y-474266D02*
G54D15*
D03*
X685006Y-498872D02*
G54D15*
D03*
X818753Y-451644D02*
G54D15*
D03*
X-292497Y-103981D02*
G54D15*
D03*
X-524669Y-103188D02*
G54D15*
D03*
X-543322Y-145653D02*
G54D15*
D03*
X-669131Y-163116D02*
G54D15*
D03*
X-272966Y35406D02*
G54D15*
D03*
X-463466Y35406D02*
G54D15*
D03*
X-465138Y-26590D02*
G54D15*
D03*
X-235347Y9128D02*
G54D15*
D03*
X-213122Y-65881D02*
G54D15*
D03*
X-958850Y-68659D02*
G54D15*
D03*
X-833835Y-87709D02*
G54D15*
D03*
X-370682Y-55959D02*
G54D15*
D03*
X-226219Y-66675D02*
G54D15*
D03*
X-623094Y-74215D02*
G54D15*
D03*
X-915194Y-425450D02*
G54D15*
D03*
X-1009254Y-392509D02*
G54D15*
D03*
X-690960Y-385762D02*
G54D15*
D03*
X-705644Y-727868D02*
G54D15*
D03*
X-685404Y-725884D02*
G54D15*
D03*
X-788988Y-403622D02*
G54D15*
D03*
X-881857Y-384968D02*
G54D15*
D03*
X-231775Y-314722D02*
G54D15*
D03*
X-405210Y-310356D02*
G54D15*
D03*
X-388541Y-403622D02*
G54D15*
D03*
X-404581Y-403045D02*
G54D15*
D03*
X-962422Y-349250D02*
G54D15*
D03*
X-430610Y-53578D02*
G54D15*
D03*
X-896938Y-76200D02*
G54D15*
D03*
X-319088Y-94456D02*
G54D15*
D03*
X-396082Y-91281D02*
G54D15*
D03*
X-536972Y-82153D02*
G54D15*
D03*
X-368300Y-153988D02*
G54D15*
D03*
X-465138Y-153988D02*
G54D15*
D03*
X-317500Y-245665D02*
G54D15*
D03*
X678656Y-208756D02*
G54D15*
D03*
X-153591Y-229790D02*
G54D15*
D03*
X-602854Y55960D02*
G54D15*
D03*
X-704057Y794D02*
G54D15*
D03*
X-650875Y0D02*
G54D15*
D03*
X-527460Y9512D02*
G54D15*
D03*
X-876300Y-63500D02*
G54D15*
D03*
X-784225Y-145653D02*
G54D15*
D03*
X-842169Y-216694D02*
G54D15*
D03*
X-799307Y-221456D02*
G54D15*
D03*
X-692944Y-654844D02*
G54D15*
D03*
X-1052910Y794D02*
G54D15*
D03*
X-754857Y-125015D02*
G54D15*
D03*
X-1019175Y-400447D02*
G54D15*
D03*
X-1066007Y-306784D02*
G54D15*
D03*
X-773907Y-452040D02*
G54D15*
D03*
X-1031875Y-130968D02*
G54D15*
D03*
X-957263Y-55562D02*
G54D15*
D03*
X-653257Y-80962D02*
G54D15*
D03*
X-637778Y-343694D02*
G54D15*
D03*
X-591344Y-344487D02*
G54D15*
D03*
X-591741Y-749697D02*
G54D15*
D03*
X-656432Y-758428D02*
G54D15*
D03*
X-656828Y-798115D02*
G54D15*
D03*
X195262Y-831453D02*
G54D15*
D03*
X-904478Y-379809D02*
G54D15*
D03*
X-963216Y-137318D02*
G54D15*
D03*
X-1080691Y-324247D02*
G54D15*
D03*
X-895350Y-329009D02*
G54D15*
D03*
X-573882Y-364728D02*
G54D15*
D03*
X-904166Y-278125D02*
G54D15*
D03*
X-521494Y-368697D02*
G54D15*
D03*
X-913294Y-265425D02*
G54D15*
D03*
X-502841Y-368697D02*
G54D15*
D03*
X-442119Y-712390D02*
G54D15*
D03*
X-623491Y-713184D02*
G54D15*
D03*
X-693341Y-818356D02*
G54D15*
D03*
X244475Y-830262D02*
G54D15*
D03*
X-895350Y-260747D02*
G54D15*
D03*
X-521891Y-341312D02*
G54D15*
D03*
X-488554Y-450850D02*
G54D15*
D03*
X220662Y-443309D02*
G54D15*
D03*
X-713582Y-227409D02*
G54D15*
D03*
X-667544Y-828278D02*
G54D15*
D03*
X-958057Y-227012D02*
G54D15*
D03*
X-917575Y-217487D02*
G54D15*
D03*
X-654050Y-232172D02*
G54D15*
D03*
X-956866Y-202406D02*
G54D15*
D03*
X-575866Y-203994D02*
G54D15*
D03*
X-495697Y-242887D02*
G54D15*
D03*
X-429022Y-253603D02*
G54D15*
D03*
X-902891Y-223440D02*
G54D15*
D03*
X-696516Y-227409D02*
G54D15*
D03*
X-690563Y-422275D02*
G54D15*
D03*
X-598488Y-422672D02*
G54D15*
D03*
X-1054894Y-375444D02*
G54D15*
D03*
X-1069975Y-454422D02*
G54D15*
D03*
X-1019572Y-348853D02*
G54D15*
D03*
X-919163Y-399256D02*
G54D15*
D03*
X-867966Y-492125D02*
G54D15*
D03*
X-1035188Y-371612D02*
G54D15*
D03*
X-860425Y-474662D02*
G54D15*
D03*
X-1016397Y-438547D02*
G54D15*
D03*
X-595710Y-453628D02*
G54D15*
D03*
X-917575Y-615156D02*
G54D15*
D03*
X-800894Y-608012D02*
G54D15*
D03*
X-727075Y-756444D02*
G54D15*
D03*
X-734616Y-826294D02*
G54D15*
D03*
X-887016Y-623094D02*
G54D15*
D03*
X-762000Y-604440D02*
G54D15*
D03*
X-649685Y-735409D02*
G54D15*
D03*
X-481807Y-698897D02*
G54D15*
D03*
X-897335Y-508794D02*
G54D15*
D03*
X-754063Y-510778D02*
G54D15*
D03*
X-748501Y-562395D02*
G54D15*
D03*
X-637778Y-556022D02*
G54D15*
D03*
X-629444Y-599281D02*
G54D15*
D03*
X-618728Y-657225D02*
G54D15*
D03*
X-604044Y-716359D02*
G54D15*
D03*
X-973932Y-346472D02*
G54D15*
D03*
X-970757Y-404018D02*
G54D15*
D03*
X-819212Y-407255D02*
G54D15*
D03*
X-905272Y-622300D02*
G54D15*
D03*
X-676672Y-736203D02*
G54D15*
D03*
X-936188Y-660359D02*
G54D15*
D03*
X-1098550Y-377031D02*
G54D15*
D03*
X-978694Y33735D02*
G54D15*
D03*
X-825104Y37306D02*
G54D15*
D03*
X-907654Y-542528D02*
G54D15*
D03*
X-375444Y-528637D02*
G54D15*
D03*
X-954088Y-507999D02*
G54D15*
D03*
X-539750Y-409178D02*
G54D15*
D03*
X-515938Y-723900D02*
G54D15*
D03*
X-746522Y-608012D02*
G54D15*
D03*
X-611118Y-803517D02*
G54D15*
D03*
X-611118Y-749230D02*
G54D15*
D03*
X-812007Y-568722D02*
G54D15*
D03*
X-911622Y-572690D02*
G54D15*
D03*
X-758032Y-838200D02*
G54D15*
D03*
X-707628Y-838994D02*
G54D15*
D03*
X-810022Y-433784D02*
G54D15*
D03*
X-456407Y-434975D02*
G54D15*
D03*
X-758825Y-433784D02*
G54D15*
D03*
X451246Y-846137D02*
G54D15*
D03*
X-719138Y-667147D02*
G54D15*
D03*
X-775097Y-404415D02*
G54D15*
D03*
X-558007Y-552450D02*
G54D15*
D03*
X-522685Y-555625D02*
G54D15*
D03*
X-541735Y-723900D02*
G54D15*
D03*
X-540147Y-387350D02*
G54D15*
D03*
X-436960Y-390128D02*
G54D15*
D03*
X-529432Y-722709D02*
G54D15*
D03*
X-618332Y-601265D02*
G54D15*
D03*
X-624285Y-646112D02*
G54D15*
D03*
X-507207Y-692150D02*
G54D15*
D03*
X145653Y-726678D02*
G54D15*
D03*
X-506810Y-618728D02*
G54D15*
D03*
X-645319Y-601662D02*
G54D15*
D03*
X-590154Y-590153D02*
G54D15*
D03*
X899318Y75406D02*
G54D15*
D03*
X343296Y-286147D02*
G54D15*
D03*
X284162Y-190103D02*
G54D15*
D03*
X15875Y-262731D02*
G54D15*
D03*
X187722Y-325437D02*
G54D15*
D03*
X175022Y-249634D02*
G54D15*
D03*
X13890Y-493315D02*
G54D15*
D03*
X182165Y-504825D02*
G54D15*
D03*
X157559Y-467122D02*
G54D15*
D03*
X20637Y-650875D02*
G54D15*
D03*
X188515Y-679053D02*
G54D15*
D03*
X178196Y-618331D02*
G54D15*
D03*
X440134Y-502047D02*
G54D15*
D03*
X438546Y-404812D02*
G54D15*
D03*
X286146Y-487759D02*
G54D15*
D03*
X435768Y-677862D02*
G54D15*
D03*
X428625Y-621506D02*
G54D15*
D03*
X269478Y-670718D02*
G54D15*
D03*
X478234Y-511968D02*
G54D15*
D03*
X648096Y-508794D02*
G54D15*
D03*
X635396Y-484981D02*
G54D15*
D03*
X767159Y-477044D02*
G54D15*
D03*
X827484Y-510381D02*
G54D15*
D03*
X814784Y-413544D02*
G54D15*
D03*
X485309Y-680431D02*
G54D15*
D03*
X654309Y-716606D02*
G54D15*
D03*
X637722Y-639606D02*
G54D15*
D03*
X779309Y-746431D02*
G54D15*
D03*
X827309Y-713431D02*
G54D15*
D03*
X799309Y-646431D02*
G54D15*
D03*
X-557691Y-617431D02*
G54D15*
D03*
X-134691Y-93431D02*
G54D15*
D03*
X-152691Y-293431D02*
G54D15*
D03*
X-152691Y-54431D02*
G54D15*
D03*
X-50691Y-31431D02*
G54D15*
D03*
X-379691Y-180431D02*
G54D15*
D03*
X-345691Y-281431D02*
G54D15*
D03*
X-548691Y-77431D02*
G54D15*
D03*
X-765691Y-217431D02*
G54D15*
D03*
X-843928Y-87018D02*
G54D15*
D03*
X-866691Y-30431D02*
G54D15*
D03*
X-1006691Y-130431D02*
G54D15*
D03*
X-1005691Y-130431D02*
G54D15*
D03*
X-1097691Y-199431D02*
G54D15*
D03*
X-1005691Y-313431D02*
G54D15*
D03*
X-1003691Y-436431D02*
G54D15*
D03*
X-1106866Y-430431D02*
G54D15*
D03*
X-996691Y-614431D02*
G54D15*
D03*
X-862691Y-621431D02*
G54D15*
D03*
X-722691Y-643431D02*
G54D15*
D03*
X-860691Y-388431D02*
G54D15*
D03*
X-719691Y-452431D02*
G54D15*
D03*
X-837691Y-452431D02*
G54D15*
D03*
X-860691Y-260431D02*
G54D15*
D03*
X-743866Y-341018D02*
G54D15*
D03*
X-567691Y-287431D02*
G54D15*
D03*
X-670691Y-256431D02*
G54D15*
D03*
X-478691Y-238431D02*
G54D15*
D03*
X-540691Y-295431D02*
G54D15*
D03*
X-692866Y-698431D02*
G54D15*
D03*
X-583691Y-617431D02*
G54D15*
D03*
X-530691Y-618431D02*
G54D15*
D03*
X-574691Y-553431D02*
G54D15*
D03*
X-614691Y-556431D02*
G54D15*
D03*
X-649691Y-414431D02*
G54D15*
D03*
X-379691Y-428431D02*
G54D15*
D03*
X271309Y-155431D02*
G54D15*
D03*
X348309Y-368431D02*
G54D15*
D03*
X274309Y-32431D02*
G54D15*
D03*
X231309Y-370431D02*
G54D15*
D03*
X-772691Y-834431D02*
G54D15*
D03*
X341709Y-251618D02*
G54D15*
D03*
X-591741Y-81756D02*
G54D15*
D03*
X490934Y-605631D02*
G54D15*
D03*
X513159Y-627856D02*
G54D15*
D03*
X292496Y-564356D02*
G54D15*
D03*
X267096Y-562768D02*
G54D15*
D03*
X295672Y-411956D02*
G54D15*
D03*
X251222Y-418306D02*
G54D15*
D03*
X694134Y-480218D02*
G54D15*
D03*
X749696Y-748506D02*
G54D15*
D03*
X686196Y-615156D02*
G54D15*
D03*
X24209Y-569118D02*
G54D15*
D03*
X49609Y-618331D02*
G54D15*
D03*
X484584Y-431006D02*
G54D15*
D03*
X511572Y-410368D02*
G54D15*
D03*
X21034Y-419894D02*
G54D15*
D03*
X54372Y-467518D02*
G54D15*
D03*
X40084Y-181768D02*
G54D15*
D03*
X13096Y-189706D02*
G54D15*
D03*
X-136128Y-199231D02*
G54D15*
D03*
X-9128Y2382D02*
G54D15*
D03*
X-125016Y-794D02*
G54D15*
D03*
X-331391Y59532D02*
G54D15*
D03*
X-302816Y-151606D02*
G54D15*
D03*
X-317104Y-292894D02*
G54D15*
D03*
X-332978Y-156368D02*
G54D15*
D03*
X-534591Y-8731D02*
G54D15*
D03*
X-844154Y-164306D02*
G54D15*
D03*
X-720328Y-142081D02*
G54D15*
D03*
X-893366Y-34131D02*
G54D15*
D03*
X-983854Y-16668D02*
G54D15*
D03*
X-980678Y-200818D02*
G54D15*
D03*
X-1096566Y-273844D02*
G54D15*
D03*
X-860028Y-459581D02*
G54D15*
D03*
X-837804Y-394494D02*
G54D15*
D03*
X-861616Y-540544D02*
G54D15*
D03*
X-836216Y-545306D02*
G54D15*
D03*
X-817166Y-286544D02*
G54D15*
D03*
X-861616Y-330994D02*
G54D15*
D03*
X-1106091Y-396081D02*
G54D15*
D03*
X-980678Y-383381D02*
G54D15*
D03*
X-885428Y-542131D02*
G54D15*
D03*
X-979091Y-564356D02*
G54D15*
D03*
X-758428Y-394494D02*
G54D15*
D03*
X-796528Y-350044D02*
G54D15*
D03*
X-812404Y-351631D02*
G54D15*
D03*
X-828278Y-431006D02*
G54D15*
D03*
X-677466Y-337344D02*
G54D15*
D03*
X-644128Y-286544D02*
G54D15*
D03*
X-567928Y-184944D02*
G54D15*
D03*
X-594916Y-227806D02*
G54D15*
D03*
X-583804Y-686594D02*
G54D15*
D03*
X-531416Y-688181D02*
G54D15*
D03*
X-691754Y-645318D02*
G54D15*
D03*
X-556816Y-688181D02*
G54D15*
D03*
X-690166Y-504031D02*
G54D15*
D03*
X271859Y-121444D02*
G54D15*
D03*
X265509Y-364331D02*
G54D15*
D03*
X848122Y61119D02*
G54D15*
D03*
X883046Y-324644D02*
G54D15*
D03*
X275034Y8732D02*
G54D15*
D03*
X-463154Y-329406D02*
G54D15*
D03*
X-772716Y-746918D02*
G54D15*
D03*
X71834Y62706D02*
G54D15*
D03*
X-430212Y-618331D02*
G54D15*
D03*
X-390525Y-640556D02*
G54D15*
D03*
X-480219Y-617538D02*
G54D15*
D03*
X-113506Y-182562D02*
G54D15*
D03*
X647700Y-200819D02*
G54D15*
D03*
X899319Y-791369D02*
G54D15*
D03*
X822325Y-733425D02*
G54D15*
D03*
X18256Y-734219D02*
G54D15*
D03*
X895350Y-634206D02*
G54D15*
D03*
X498475Y-700088D02*
G54D15*
D03*
X-962422Y-320278D02*
G54D15*
D03*
M02*
